<mxfile host="app.diagrams.net" modified="2024-03-08T02:04:13.648Z" agent="Mozilla/5.0 (Windows NT 10.0; Win64; x64; rv:123.0) Gecko/20100101 Firefox/123.0" etag="TPpoMfh3IOxchYdoKHw7" version="24.0.2" type="github">
  <diagram name="Page-1" id="FJBeGDeRB-_xiciJr-KX">
    <mxGraphModel dx="1024" dy="546" grid="1" gridSize="10" guides="1" tooltips="1" connect="1" arrows="1" fold="1" page="1" pageScale="1" pageWidth="850" pageHeight="1100" math="0" shadow="0">
      <root>
        <mxCell id="0" />
        <mxCell id="1" parent="0" />
        <mxCell id="CqxWXHBQ5XjZxX1Wiu87-44" value="customers_table" style="shape=table;startSize=30;container=1;collapsible=1;childLayout=tableLayout;fixedRows=1;rowLines=0;fontStyle=1;align=center;resizeLast=1;html=1;" vertex="1" parent="1">
          <mxGeometry x="40" y="40" width="180" height="180" as="geometry" />
        </mxCell>
        <mxCell id="CqxWXHBQ5XjZxX1Wiu87-45" value="" style="shape=tableRow;horizontal=0;startSize=0;swimlaneHead=0;swimlaneBody=0;fillColor=none;collapsible=0;dropTarget=0;points=[[0,0.5],[1,0.5]];portConstraint=eastwest;top=0;left=0;right=0;bottom=1;" vertex="1" parent="CqxWXHBQ5XjZxX1Wiu87-44">
          <mxGeometry y="30" width="180" height="30" as="geometry" />
        </mxCell>
        <mxCell id="CqxWXHBQ5XjZxX1Wiu87-46" value="PK" style="shape=partialRectangle;connectable=0;fillColor=none;top=0;left=0;bottom=0;right=0;fontStyle=1;overflow=hidden;whiteSpace=wrap;html=1;" vertex="1" parent="CqxWXHBQ5XjZxX1Wiu87-45">
          <mxGeometry width="30" height="30" as="geometry">
            <mxRectangle width="30" height="30" as="alternateBounds" />
          </mxGeometry>
        </mxCell>
        <mxCell id="CqxWXHBQ5XjZxX1Wiu87-47" value="&lt;div&gt;customer_id - varchar&lt;/div&gt;" style="shape=partialRectangle;connectable=0;fillColor=none;top=0;left=0;bottom=0;right=0;align=left;spacingLeft=6;fontStyle=5;overflow=hidden;whiteSpace=wrap;html=1;" vertex="1" parent="CqxWXHBQ5XjZxX1Wiu87-45">
          <mxGeometry x="30" width="150" height="30" as="geometry">
            <mxRectangle width="150" height="30" as="alternateBounds" />
          </mxGeometry>
        </mxCell>
        <mxCell id="CqxWXHBQ5XjZxX1Wiu87-48" value="" style="shape=tableRow;horizontal=0;startSize=0;swimlaneHead=0;swimlaneBody=0;fillColor=none;collapsible=0;dropTarget=0;points=[[0,0.5],[1,0.5]];portConstraint=eastwest;top=0;left=0;right=0;bottom=0;" vertex="1" parent="CqxWXHBQ5XjZxX1Wiu87-44">
          <mxGeometry y="60" width="180" height="30" as="geometry" />
        </mxCell>
        <mxCell id="CqxWXHBQ5XjZxX1Wiu87-49" value="" style="shape=partialRectangle;connectable=0;fillColor=none;top=0;left=0;bottom=0;right=0;editable=1;overflow=hidden;whiteSpace=wrap;html=1;" vertex="1" parent="CqxWXHBQ5XjZxX1Wiu87-48">
          <mxGeometry width="30" height="30" as="geometry">
            <mxRectangle width="30" height="30" as="alternateBounds" />
          </mxGeometry>
        </mxCell>
        <mxCell id="CqxWXHBQ5XjZxX1Wiu87-50" value="&lt;div&gt;order_id - varchar&lt;/div&gt;" style="shape=partialRectangle;connectable=0;fillColor=none;top=0;left=0;bottom=0;right=0;align=left;spacingLeft=6;overflow=hidden;whiteSpace=wrap;html=1;" vertex="1" parent="CqxWXHBQ5XjZxX1Wiu87-48">
          <mxGeometry x="30" width="150" height="30" as="geometry">
            <mxRectangle width="150" height="30" as="alternateBounds" />
          </mxGeometry>
        </mxCell>
        <mxCell id="CqxWXHBQ5XjZxX1Wiu87-51" value="" style="shape=tableRow;horizontal=0;startSize=0;swimlaneHead=0;swimlaneBody=0;fillColor=none;collapsible=0;dropTarget=0;points=[[0,0.5],[1,0.5]];portConstraint=eastwest;top=0;left=0;right=0;bottom=0;" vertex="1" parent="CqxWXHBQ5XjZxX1Wiu87-44">
          <mxGeometry y="90" width="180" height="30" as="geometry" />
        </mxCell>
        <mxCell id="CqxWXHBQ5XjZxX1Wiu87-52" value="" style="shape=partialRectangle;connectable=0;fillColor=none;top=0;left=0;bottom=0;right=0;editable=1;overflow=hidden;whiteSpace=wrap;html=1;" vertex="1" parent="CqxWXHBQ5XjZxX1Wiu87-51">
          <mxGeometry width="30" height="30" as="geometry">
            <mxRectangle width="30" height="30" as="alternateBounds" />
          </mxGeometry>
        </mxCell>
        <mxCell id="CqxWXHBQ5XjZxX1Wiu87-53" value="customer_zip_code - int" style="shape=partialRectangle;connectable=0;fillColor=none;top=0;left=0;bottom=0;right=0;align=left;spacingLeft=6;overflow=hidden;whiteSpace=wrap;html=1;" vertex="1" parent="CqxWXHBQ5XjZxX1Wiu87-51">
          <mxGeometry x="30" width="150" height="30" as="geometry">
            <mxRectangle width="150" height="30" as="alternateBounds" />
          </mxGeometry>
        </mxCell>
        <mxCell id="CqxWXHBQ5XjZxX1Wiu87-54" value="" style="shape=tableRow;horizontal=0;startSize=0;swimlaneHead=0;swimlaneBody=0;fillColor=none;collapsible=0;dropTarget=0;points=[[0,0.5],[1,0.5]];portConstraint=eastwest;top=0;left=0;right=0;bottom=0;" vertex="1" parent="CqxWXHBQ5XjZxX1Wiu87-44">
          <mxGeometry y="120" width="180" height="30" as="geometry" />
        </mxCell>
        <mxCell id="CqxWXHBQ5XjZxX1Wiu87-55" value="" style="shape=partialRectangle;connectable=0;fillColor=none;top=0;left=0;bottom=0;right=0;editable=1;overflow=hidden;whiteSpace=wrap;html=1;" vertex="1" parent="CqxWXHBQ5XjZxX1Wiu87-54">
          <mxGeometry width="30" height="30" as="geometry">
            <mxRectangle width="30" height="30" as="alternateBounds" />
          </mxGeometry>
        </mxCell>
        <mxCell id="CqxWXHBQ5XjZxX1Wiu87-56" value="customer_city - varchar" style="shape=partialRectangle;connectable=0;fillColor=none;top=0;left=0;bottom=0;right=0;align=left;spacingLeft=6;overflow=hidden;whiteSpace=wrap;html=1;" vertex="1" parent="CqxWXHBQ5XjZxX1Wiu87-54">
          <mxGeometry x="30" width="150" height="30" as="geometry">
            <mxRectangle width="150" height="30" as="alternateBounds" />
          </mxGeometry>
        </mxCell>
        <mxCell id="CqxWXHBQ5XjZxX1Wiu87-57" value="&lt;div&gt;FK&lt;/div&gt;" style="shape=partialRectangle;connectable=0;fillColor=none;top=0;left=0;bottom=0;right=0;fontStyle=1;overflow=hidden;whiteSpace=wrap;html=1;" vertex="1" parent="1">
          <mxGeometry x="40" y="100" width="30" height="30" as="geometry">
            <mxRectangle width="30" height="30" as="alternateBounds" />
          </mxGeometry>
        </mxCell>
        <mxCell id="CqxWXHBQ5XjZxX1Wiu87-58" value="customer_state - varchar" style="shape=partialRectangle;connectable=0;fillColor=none;top=0;left=0;bottom=0;right=0;align=left;spacingLeft=6;overflow=hidden;whiteSpace=wrap;html=1;" vertex="1" parent="1">
          <mxGeometry x="70" y="190" width="150" height="30" as="geometry">
            <mxRectangle width="150" height="30" as="alternateBounds" />
          </mxGeometry>
        </mxCell>
        <mxCell id="CqxWXHBQ5XjZxX1Wiu87-59" value="geolocation_table" style="shape=table;startSize=30;container=1;collapsible=1;childLayout=tableLayout;fixedRows=1;rowLines=0;fontStyle=1;align=center;resizeLast=1;html=1;" vertex="1" parent="1">
          <mxGeometry x="260" y="40" width="180" height="180" as="geometry" />
        </mxCell>
        <mxCell id="CqxWXHBQ5XjZxX1Wiu87-60" value="" style="shape=tableRow;horizontal=0;startSize=0;swimlaneHead=0;swimlaneBody=0;fillColor=none;collapsible=0;dropTarget=0;points=[[0,0.5],[1,0.5]];portConstraint=eastwest;top=0;left=0;right=0;bottom=1;" vertex="1" parent="CqxWXHBQ5XjZxX1Wiu87-59">
          <mxGeometry y="30" width="180" height="30" as="geometry" />
        </mxCell>
        <mxCell id="CqxWXHBQ5XjZxX1Wiu87-61" value="PK" style="shape=partialRectangle;connectable=0;fillColor=none;top=0;left=0;bottom=0;right=0;fontStyle=1;overflow=hidden;whiteSpace=wrap;html=1;" vertex="1" parent="CqxWXHBQ5XjZxX1Wiu87-60">
          <mxGeometry width="30" height="30" as="geometry">
            <mxRectangle width="30" height="30" as="alternateBounds" />
          </mxGeometry>
        </mxCell>
        <mxCell id="CqxWXHBQ5XjZxX1Wiu87-62" value="&lt;div&gt;zip_code - int&lt;br&gt;&lt;/div&gt;" style="shape=partialRectangle;connectable=0;fillColor=none;top=0;left=0;bottom=0;right=0;align=left;spacingLeft=6;fontStyle=5;overflow=hidden;whiteSpace=wrap;html=1;" vertex="1" parent="CqxWXHBQ5XjZxX1Wiu87-60">
          <mxGeometry x="30" width="150" height="30" as="geometry">
            <mxRectangle width="150" height="30" as="alternateBounds" />
          </mxGeometry>
        </mxCell>
        <mxCell id="CqxWXHBQ5XjZxX1Wiu87-63" value="" style="shape=tableRow;horizontal=0;startSize=0;swimlaneHead=0;swimlaneBody=0;fillColor=none;collapsible=0;dropTarget=0;points=[[0,0.5],[1,0.5]];portConstraint=eastwest;top=0;left=0;right=0;bottom=0;" vertex="1" parent="CqxWXHBQ5XjZxX1Wiu87-59">
          <mxGeometry y="60" width="180" height="30" as="geometry" />
        </mxCell>
        <mxCell id="CqxWXHBQ5XjZxX1Wiu87-64" value="" style="shape=partialRectangle;connectable=0;fillColor=none;top=0;left=0;bottom=0;right=0;editable=1;overflow=hidden;whiteSpace=wrap;html=1;" vertex="1" parent="CqxWXHBQ5XjZxX1Wiu87-63">
          <mxGeometry width="30" height="30" as="geometry">
            <mxRectangle width="30" height="30" as="alternateBounds" />
          </mxGeometry>
        </mxCell>
        <mxCell id="CqxWXHBQ5XjZxX1Wiu87-65" value="&lt;div&gt;latitude - float &lt;br&gt;&lt;/div&gt;" style="shape=partialRectangle;connectable=0;fillColor=none;top=0;left=0;bottom=0;right=0;align=left;spacingLeft=6;overflow=hidden;whiteSpace=wrap;html=1;" vertex="1" parent="CqxWXHBQ5XjZxX1Wiu87-63">
          <mxGeometry x="30" width="150" height="30" as="geometry">
            <mxRectangle width="150" height="30" as="alternateBounds" />
          </mxGeometry>
        </mxCell>
        <mxCell id="CqxWXHBQ5XjZxX1Wiu87-66" value="" style="shape=tableRow;horizontal=0;startSize=0;swimlaneHead=0;swimlaneBody=0;fillColor=none;collapsible=0;dropTarget=0;points=[[0,0.5],[1,0.5]];portConstraint=eastwest;top=0;left=0;right=0;bottom=0;" vertex="1" parent="CqxWXHBQ5XjZxX1Wiu87-59">
          <mxGeometry y="90" width="180" height="30" as="geometry" />
        </mxCell>
        <mxCell id="CqxWXHBQ5XjZxX1Wiu87-67" value="" style="shape=partialRectangle;connectable=0;fillColor=none;top=0;left=0;bottom=0;right=0;editable=1;overflow=hidden;whiteSpace=wrap;html=1;" vertex="1" parent="CqxWXHBQ5XjZxX1Wiu87-66">
          <mxGeometry width="30" height="30" as="geometry">
            <mxRectangle width="30" height="30" as="alternateBounds" />
          </mxGeometry>
        </mxCell>
        <mxCell id="CqxWXHBQ5XjZxX1Wiu87-68" value="longitude - float " style="shape=partialRectangle;connectable=0;fillColor=none;top=0;left=0;bottom=0;right=0;align=left;spacingLeft=6;overflow=hidden;whiteSpace=wrap;html=1;" vertex="1" parent="CqxWXHBQ5XjZxX1Wiu87-66">
          <mxGeometry x="30" width="150" height="30" as="geometry">
            <mxRectangle width="150" height="30" as="alternateBounds" />
          </mxGeometry>
        </mxCell>
        <mxCell id="CqxWXHBQ5XjZxX1Wiu87-69" value="" style="shape=tableRow;horizontal=0;startSize=0;swimlaneHead=0;swimlaneBody=0;fillColor=none;collapsible=0;dropTarget=0;points=[[0,0.5],[1,0.5]];portConstraint=eastwest;top=0;left=0;right=0;bottom=0;" vertex="1" parent="CqxWXHBQ5XjZxX1Wiu87-59">
          <mxGeometry y="120" width="180" height="30" as="geometry" />
        </mxCell>
        <mxCell id="CqxWXHBQ5XjZxX1Wiu87-70" value="" style="shape=partialRectangle;connectable=0;fillColor=none;top=0;left=0;bottom=0;right=0;editable=1;overflow=hidden;whiteSpace=wrap;html=1;" vertex="1" parent="CqxWXHBQ5XjZxX1Wiu87-69">
          <mxGeometry width="30" height="30" as="geometry">
            <mxRectangle width="30" height="30" as="alternateBounds" />
          </mxGeometry>
        </mxCell>
        <mxCell id="CqxWXHBQ5XjZxX1Wiu87-71" value="geolocation_city - varchar" style="shape=partialRectangle;connectable=0;fillColor=none;top=0;left=0;bottom=0;right=0;align=left;spacingLeft=6;overflow=hidden;whiteSpace=wrap;html=1;" vertex="1" parent="CqxWXHBQ5XjZxX1Wiu87-69">
          <mxGeometry x="30" width="150" height="30" as="geometry">
            <mxRectangle width="150" height="30" as="alternateBounds" />
          </mxGeometry>
        </mxCell>
        <mxCell id="CqxWXHBQ5XjZxX1Wiu87-72" value="geolocation_state - varchar" style="shape=partialRectangle;connectable=0;fillColor=none;top=0;left=0;bottom=0;right=0;align=left;spacingLeft=6;overflow=hidden;whiteSpace=wrap;html=1;" vertex="1" parent="1">
          <mxGeometry x="290" y="190" width="150" height="30" as="geometry">
            <mxRectangle width="150" height="30" as="alternateBounds" />
          </mxGeometry>
        </mxCell>
        <mxCell id="CqxWXHBQ5XjZxX1Wiu87-73" value="order_items_table" style="shape=table;startSize=30;container=1;collapsible=1;childLayout=tableLayout;fixedRows=1;rowLines=0;fontStyle=1;align=center;resizeLast=1;html=1;" vertex="1" parent="1">
          <mxGeometry x="480" y="40" width="180" height="240" as="geometry" />
        </mxCell>
        <mxCell id="CqxWXHBQ5XjZxX1Wiu87-74" value="" style="shape=tableRow;horizontal=0;startSize=0;swimlaneHead=0;swimlaneBody=0;fillColor=none;collapsible=0;dropTarget=0;points=[[0,0.5],[1,0.5]];portConstraint=eastwest;top=0;left=0;right=0;bottom=1;" vertex="1" parent="CqxWXHBQ5XjZxX1Wiu87-73">
          <mxGeometry y="30" width="180" height="30" as="geometry" />
        </mxCell>
        <mxCell id="CqxWXHBQ5XjZxX1Wiu87-75" value="PK" style="shape=partialRectangle;connectable=0;fillColor=none;top=0;left=0;bottom=0;right=0;fontStyle=1;overflow=hidden;whiteSpace=wrap;html=1;" vertex="1" parent="CqxWXHBQ5XjZxX1Wiu87-74">
          <mxGeometry width="30" height="30" as="geometry">
            <mxRectangle width="30" height="30" as="alternateBounds" />
          </mxGeometry>
        </mxCell>
        <mxCell id="CqxWXHBQ5XjZxX1Wiu87-76" value="&lt;div&gt;order_item_id - int&lt;br&gt;&lt;/div&gt;" style="shape=partialRectangle;connectable=0;fillColor=none;top=0;left=0;bottom=0;right=0;align=left;spacingLeft=6;fontStyle=5;overflow=hidden;whiteSpace=wrap;html=1;" vertex="1" parent="CqxWXHBQ5XjZxX1Wiu87-74">
          <mxGeometry x="30" width="150" height="30" as="geometry">
            <mxRectangle width="150" height="30" as="alternateBounds" />
          </mxGeometry>
        </mxCell>
        <mxCell id="CqxWXHBQ5XjZxX1Wiu87-77" value="" style="shape=tableRow;horizontal=0;startSize=0;swimlaneHead=0;swimlaneBody=0;fillColor=none;collapsible=0;dropTarget=0;points=[[0,0.5],[1,0.5]];portConstraint=eastwest;top=0;left=0;right=0;bottom=0;" vertex="1" parent="CqxWXHBQ5XjZxX1Wiu87-73">
          <mxGeometry y="60" width="180" height="30" as="geometry" />
        </mxCell>
        <mxCell id="CqxWXHBQ5XjZxX1Wiu87-78" value="" style="shape=partialRectangle;connectable=0;fillColor=none;top=0;left=0;bottom=0;right=0;editable=1;overflow=hidden;whiteSpace=wrap;html=1;" vertex="1" parent="CqxWXHBQ5XjZxX1Wiu87-77">
          <mxGeometry width="30" height="30" as="geometry">
            <mxRectangle width="30" height="30" as="alternateBounds" />
          </mxGeometry>
        </mxCell>
        <mxCell id="CqxWXHBQ5XjZxX1Wiu87-79" value="&lt;div&gt;order_id - varchar&lt;br&gt;&lt;/div&gt;" style="shape=partialRectangle;connectable=0;fillColor=none;top=0;left=0;bottom=0;right=0;align=left;spacingLeft=6;overflow=hidden;whiteSpace=wrap;html=1;" vertex="1" parent="CqxWXHBQ5XjZxX1Wiu87-77">
          <mxGeometry x="30" width="150" height="30" as="geometry">
            <mxRectangle width="150" height="30" as="alternateBounds" />
          </mxGeometry>
        </mxCell>
        <mxCell id="CqxWXHBQ5XjZxX1Wiu87-80" value="" style="shape=tableRow;horizontal=0;startSize=0;swimlaneHead=0;swimlaneBody=0;fillColor=none;collapsible=0;dropTarget=0;points=[[0,0.5],[1,0.5]];portConstraint=eastwest;top=0;left=0;right=0;bottom=0;" vertex="1" parent="CqxWXHBQ5XjZxX1Wiu87-73">
          <mxGeometry y="90" width="180" height="30" as="geometry" />
        </mxCell>
        <mxCell id="CqxWXHBQ5XjZxX1Wiu87-81" value="" style="shape=partialRectangle;connectable=0;fillColor=none;top=0;left=0;bottom=0;right=0;editable=1;overflow=hidden;whiteSpace=wrap;html=1;" vertex="1" parent="CqxWXHBQ5XjZxX1Wiu87-80">
          <mxGeometry width="30" height="30" as="geometry">
            <mxRectangle width="30" height="30" as="alternateBounds" />
          </mxGeometry>
        </mxCell>
        <mxCell id="CqxWXHBQ5XjZxX1Wiu87-82" value="product_id - varchar" style="shape=partialRectangle;connectable=0;fillColor=none;top=0;left=0;bottom=0;right=0;align=left;spacingLeft=6;overflow=hidden;whiteSpace=wrap;html=1;" vertex="1" parent="CqxWXHBQ5XjZxX1Wiu87-80">
          <mxGeometry x="30" width="150" height="30" as="geometry">
            <mxRectangle width="150" height="30" as="alternateBounds" />
          </mxGeometry>
        </mxCell>
        <mxCell id="CqxWXHBQ5XjZxX1Wiu87-83" value="" style="shape=tableRow;horizontal=0;startSize=0;swimlaneHead=0;swimlaneBody=0;fillColor=none;collapsible=0;dropTarget=0;points=[[0,0.5],[1,0.5]];portConstraint=eastwest;top=0;left=0;right=0;bottom=0;" vertex="1" parent="CqxWXHBQ5XjZxX1Wiu87-73">
          <mxGeometry y="120" width="180" height="30" as="geometry" />
        </mxCell>
        <mxCell id="CqxWXHBQ5XjZxX1Wiu87-84" value="" style="shape=partialRectangle;connectable=0;fillColor=none;top=0;left=0;bottom=0;right=0;editable=1;overflow=hidden;whiteSpace=wrap;html=1;" vertex="1" parent="CqxWXHBQ5XjZxX1Wiu87-83">
          <mxGeometry width="30" height="30" as="geometry">
            <mxRectangle width="30" height="30" as="alternateBounds" />
          </mxGeometry>
        </mxCell>
        <mxCell id="CqxWXHBQ5XjZxX1Wiu87-85" value="&lt;div&gt;seller_id - varchar&lt;/div&gt;" style="shape=partialRectangle;connectable=0;fillColor=none;top=0;left=0;bottom=0;right=0;align=left;spacingLeft=6;overflow=hidden;whiteSpace=wrap;html=1;" vertex="1" parent="CqxWXHBQ5XjZxX1Wiu87-83">
          <mxGeometry x="30" width="150" height="30" as="geometry">
            <mxRectangle width="150" height="30" as="alternateBounds" />
          </mxGeometry>
        </mxCell>
        <mxCell id="CqxWXHBQ5XjZxX1Wiu87-86" value="&lt;div&gt;shipping_limit_date - datetime&lt;/div&gt;" style="shape=partialRectangle;connectable=0;fillColor=none;top=0;left=0;bottom=0;right=0;align=left;spacingLeft=6;overflow=hidden;whiteSpace=wrap;html=1;" vertex="1" parent="1">
          <mxGeometry x="510" y="190" width="150" height="30" as="geometry">
            <mxRectangle width="150" height="30" as="alternateBounds" />
          </mxGeometry>
        </mxCell>
        <mxCell id="CqxWXHBQ5XjZxX1Wiu87-87" value="&lt;div&gt;FK&lt;/div&gt;" style="shape=partialRectangle;connectable=0;fillColor=none;top=0;left=0;bottom=0;right=0;fontStyle=1;overflow=hidden;whiteSpace=wrap;html=1;" vertex="1" parent="1">
          <mxGeometry x="480" y="100" width="30" height="30" as="geometry">
            <mxRectangle width="30" height="30" as="alternateBounds" />
          </mxGeometry>
        </mxCell>
        <mxCell id="CqxWXHBQ5XjZxX1Wiu87-88" value="&lt;div&gt;FK&lt;/div&gt;" style="shape=partialRectangle;connectable=0;fillColor=none;top=0;left=0;bottom=0;right=0;fontStyle=1;overflow=hidden;whiteSpace=wrap;html=1;" vertex="1" parent="1">
          <mxGeometry x="480" y="130" width="30" height="30" as="geometry">
            <mxRectangle width="30" height="30" as="alternateBounds" />
          </mxGeometry>
        </mxCell>
        <mxCell id="CqxWXHBQ5XjZxX1Wiu87-89" value="&lt;div&gt;FK&lt;/div&gt;" style="shape=partialRectangle;connectable=0;fillColor=none;top=0;left=0;bottom=0;right=0;fontStyle=1;overflow=hidden;whiteSpace=wrap;html=1;" vertex="1" parent="1">
          <mxGeometry x="480" y="160" width="30" height="30" as="geometry">
            <mxRectangle width="30" height="30" as="alternateBounds" />
          </mxGeometry>
        </mxCell>
        <mxCell id="CqxWXHBQ5XjZxX1Wiu87-90" value="price - float" style="shape=partialRectangle;connectable=0;fillColor=none;top=0;left=0;bottom=0;right=0;align=left;spacingLeft=6;overflow=hidden;whiteSpace=wrap;html=1;" vertex="1" parent="1">
          <mxGeometry x="510" y="220" width="150" height="30" as="geometry">
            <mxRectangle width="150" height="30" as="alternateBounds" />
          </mxGeometry>
        </mxCell>
        <mxCell id="CqxWXHBQ5XjZxX1Wiu87-91" value="freight_value - float" style="shape=partialRectangle;connectable=0;fillColor=none;top=0;left=0;bottom=0;right=0;align=left;spacingLeft=6;overflow=hidden;whiteSpace=wrap;html=1;" vertex="1" parent="1">
          <mxGeometry x="510" y="250" width="150" height="30" as="geometry">
            <mxRectangle width="150" height="30" as="alternateBounds" />
          </mxGeometry>
        </mxCell>
        <mxCell id="CqxWXHBQ5XjZxX1Wiu87-92" value="payments_table" style="shape=table;startSize=30;container=1;collapsible=1;childLayout=tableLayout;fixedRows=1;rowLines=0;fontStyle=1;align=center;resizeLast=1;html=1;" vertex="1" parent="1">
          <mxGeometry x="40" y="320" width="180" height="180" as="geometry" />
        </mxCell>
        <mxCell id="CqxWXHBQ5XjZxX1Wiu87-93" value="" style="shape=tableRow;horizontal=0;startSize=0;swimlaneHead=0;swimlaneBody=0;fillColor=none;collapsible=0;dropTarget=0;points=[[0,0.5],[1,0.5]];portConstraint=eastwest;top=0;left=0;right=0;bottom=1;" vertex="1" parent="CqxWXHBQ5XjZxX1Wiu87-92">
          <mxGeometry y="30" width="180" height="30" as="geometry" />
        </mxCell>
        <mxCell id="CqxWXHBQ5XjZxX1Wiu87-94" value="PK" style="shape=partialRectangle;connectable=0;fillColor=none;top=0;left=0;bottom=0;right=0;fontStyle=1;overflow=hidden;whiteSpace=wrap;html=1;" vertex="1" parent="CqxWXHBQ5XjZxX1Wiu87-93">
          <mxGeometry width="30" height="30" as="geometry">
            <mxRectangle width="30" height="30" as="alternateBounds" />
          </mxGeometry>
        </mxCell>
        <mxCell id="CqxWXHBQ5XjZxX1Wiu87-95" value="&lt;div&gt;payment_value - float&lt;/div&gt;" style="shape=partialRectangle;connectable=0;fillColor=none;top=0;left=0;bottom=0;right=0;align=left;spacingLeft=6;fontStyle=5;overflow=hidden;whiteSpace=wrap;html=1;" vertex="1" parent="CqxWXHBQ5XjZxX1Wiu87-93">
          <mxGeometry x="30" width="150" height="30" as="geometry">
            <mxRectangle width="150" height="30" as="alternateBounds" />
          </mxGeometry>
        </mxCell>
        <mxCell id="CqxWXHBQ5XjZxX1Wiu87-96" value="" style="shape=tableRow;horizontal=0;startSize=0;swimlaneHead=0;swimlaneBody=0;fillColor=none;collapsible=0;dropTarget=0;points=[[0,0.5],[1,0.5]];portConstraint=eastwest;top=0;left=0;right=0;bottom=0;" vertex="1" parent="CqxWXHBQ5XjZxX1Wiu87-92">
          <mxGeometry y="60" width="180" height="30" as="geometry" />
        </mxCell>
        <mxCell id="CqxWXHBQ5XjZxX1Wiu87-97" value="" style="shape=partialRectangle;connectable=0;fillColor=none;top=0;left=0;bottom=0;right=0;editable=1;overflow=hidden;whiteSpace=wrap;html=1;" vertex="1" parent="CqxWXHBQ5XjZxX1Wiu87-96">
          <mxGeometry width="30" height="30" as="geometry">
            <mxRectangle width="30" height="30" as="alternateBounds" />
          </mxGeometry>
        </mxCell>
        <mxCell id="CqxWXHBQ5XjZxX1Wiu87-98" value="&lt;div&gt;order_id - varchar&lt;/div&gt;" style="shape=partialRectangle;connectable=0;fillColor=none;top=0;left=0;bottom=0;right=0;align=left;spacingLeft=6;overflow=hidden;whiteSpace=wrap;html=1;" vertex="1" parent="CqxWXHBQ5XjZxX1Wiu87-96">
          <mxGeometry x="30" width="150" height="30" as="geometry">
            <mxRectangle width="150" height="30" as="alternateBounds" />
          </mxGeometry>
        </mxCell>
        <mxCell id="CqxWXHBQ5XjZxX1Wiu87-99" value="" style="shape=tableRow;horizontal=0;startSize=0;swimlaneHead=0;swimlaneBody=0;fillColor=none;collapsible=0;dropTarget=0;points=[[0,0.5],[1,0.5]];portConstraint=eastwest;top=0;left=0;right=0;bottom=0;" vertex="1" parent="CqxWXHBQ5XjZxX1Wiu87-92">
          <mxGeometry y="90" width="180" height="30" as="geometry" />
        </mxCell>
        <mxCell id="CqxWXHBQ5XjZxX1Wiu87-100" value="" style="shape=partialRectangle;connectable=0;fillColor=none;top=0;left=0;bottom=0;right=0;editable=1;overflow=hidden;whiteSpace=wrap;html=1;" vertex="1" parent="CqxWXHBQ5XjZxX1Wiu87-99">
          <mxGeometry width="30" height="30" as="geometry">
            <mxRectangle width="30" height="30" as="alternateBounds" />
          </mxGeometry>
        </mxCell>
        <mxCell id="CqxWXHBQ5XjZxX1Wiu87-101" value="payment_sequential - int" style="shape=partialRectangle;connectable=0;fillColor=none;top=0;left=0;bottom=0;right=0;align=left;spacingLeft=6;overflow=hidden;whiteSpace=wrap;html=1;" vertex="1" parent="CqxWXHBQ5XjZxX1Wiu87-99">
          <mxGeometry x="30" width="150" height="30" as="geometry">
            <mxRectangle width="150" height="30" as="alternateBounds" />
          </mxGeometry>
        </mxCell>
        <mxCell id="CqxWXHBQ5XjZxX1Wiu87-102" value="" style="shape=tableRow;horizontal=0;startSize=0;swimlaneHead=0;swimlaneBody=0;fillColor=none;collapsible=0;dropTarget=0;points=[[0,0.5],[1,0.5]];portConstraint=eastwest;top=0;left=0;right=0;bottom=0;" vertex="1" parent="CqxWXHBQ5XjZxX1Wiu87-92">
          <mxGeometry y="120" width="180" height="30" as="geometry" />
        </mxCell>
        <mxCell id="CqxWXHBQ5XjZxX1Wiu87-103" value="" style="shape=partialRectangle;connectable=0;fillColor=none;top=0;left=0;bottom=0;right=0;editable=1;overflow=hidden;whiteSpace=wrap;html=1;" vertex="1" parent="CqxWXHBQ5XjZxX1Wiu87-102">
          <mxGeometry width="30" height="30" as="geometry">
            <mxRectangle width="30" height="30" as="alternateBounds" />
          </mxGeometry>
        </mxCell>
        <mxCell id="CqxWXHBQ5XjZxX1Wiu87-104" value="payment_installments - varchar" style="shape=partialRectangle;connectable=0;fillColor=none;top=0;left=0;bottom=0;right=0;align=left;spacingLeft=6;overflow=hidden;whiteSpace=wrap;html=1;" vertex="1" parent="CqxWXHBQ5XjZxX1Wiu87-102">
          <mxGeometry x="30" width="150" height="30" as="geometry">
            <mxRectangle width="150" height="30" as="alternateBounds" />
          </mxGeometry>
        </mxCell>
        <mxCell id="CqxWXHBQ5XjZxX1Wiu87-105" value="&lt;div&gt;FK&lt;/div&gt;" style="shape=partialRectangle;connectable=0;fillColor=none;top=0;left=0;bottom=0;right=0;fontStyle=1;overflow=hidden;whiteSpace=wrap;html=1;" vertex="1" parent="1">
          <mxGeometry x="40" y="380" width="30" height="30" as="geometry">
            <mxRectangle width="30" height="30" as="alternateBounds" />
          </mxGeometry>
        </mxCell>
        <mxCell id="CqxWXHBQ5XjZxX1Wiu87-106" value="payment_type - varchar" style="shape=partialRectangle;connectable=0;fillColor=none;top=0;left=0;bottom=0;right=0;align=left;spacingLeft=6;overflow=hidden;whiteSpace=wrap;html=1;" vertex="1" parent="1">
          <mxGeometry x="70" y="470" width="150" height="30" as="geometry">
            <mxRectangle width="150" height="30" as="alternateBounds" />
          </mxGeometry>
        </mxCell>
        <mxCell id="CqxWXHBQ5XjZxX1Wiu87-107" value="reviews_table" style="shape=table;startSize=30;container=1;collapsible=1;childLayout=tableLayout;fixedRows=1;rowLines=0;fontStyle=1;align=center;resizeLast=1;html=1;" vertex="1" parent="1">
          <mxGeometry x="260" y="290" width="180" height="240" as="geometry" />
        </mxCell>
        <mxCell id="CqxWXHBQ5XjZxX1Wiu87-108" value="" style="shape=tableRow;horizontal=0;startSize=0;swimlaneHead=0;swimlaneBody=0;fillColor=none;collapsible=0;dropTarget=0;points=[[0,0.5],[1,0.5]];portConstraint=eastwest;top=0;left=0;right=0;bottom=1;" vertex="1" parent="CqxWXHBQ5XjZxX1Wiu87-107">
          <mxGeometry y="30" width="180" height="30" as="geometry" />
        </mxCell>
        <mxCell id="CqxWXHBQ5XjZxX1Wiu87-109" value="PK" style="shape=partialRectangle;connectable=0;fillColor=none;top=0;left=0;bottom=0;right=0;fontStyle=1;overflow=hidden;whiteSpace=wrap;html=1;" vertex="1" parent="CqxWXHBQ5XjZxX1Wiu87-108">
          <mxGeometry width="30" height="30" as="geometry">
            <mxRectangle width="30" height="30" as="alternateBounds" />
          </mxGeometry>
        </mxCell>
        <mxCell id="CqxWXHBQ5XjZxX1Wiu87-110" value="&lt;div&gt;review_id - varchar&lt;br&gt;&lt;/div&gt;" style="shape=partialRectangle;connectable=0;fillColor=none;top=0;left=0;bottom=0;right=0;align=left;spacingLeft=6;fontStyle=5;overflow=hidden;whiteSpace=wrap;html=1;" vertex="1" parent="CqxWXHBQ5XjZxX1Wiu87-108">
          <mxGeometry x="30" width="150" height="30" as="geometry">
            <mxRectangle width="150" height="30" as="alternateBounds" />
          </mxGeometry>
        </mxCell>
        <mxCell id="CqxWXHBQ5XjZxX1Wiu87-111" value="" style="shape=tableRow;horizontal=0;startSize=0;swimlaneHead=0;swimlaneBody=0;fillColor=none;collapsible=0;dropTarget=0;points=[[0,0.5],[1,0.5]];portConstraint=eastwest;top=0;left=0;right=0;bottom=0;" vertex="1" parent="CqxWXHBQ5XjZxX1Wiu87-107">
          <mxGeometry y="60" width="180" height="30" as="geometry" />
        </mxCell>
        <mxCell id="CqxWXHBQ5XjZxX1Wiu87-112" value="" style="shape=partialRectangle;connectable=0;fillColor=none;top=0;left=0;bottom=0;right=0;editable=1;overflow=hidden;whiteSpace=wrap;html=1;" vertex="1" parent="CqxWXHBQ5XjZxX1Wiu87-111">
          <mxGeometry width="30" height="30" as="geometry">
            <mxRectangle width="30" height="30" as="alternateBounds" />
          </mxGeometry>
        </mxCell>
        <mxCell id="CqxWXHBQ5XjZxX1Wiu87-113" value="&lt;div&gt;order_id - varchar&lt;br&gt;&lt;/div&gt;" style="shape=partialRectangle;connectable=0;fillColor=none;top=0;left=0;bottom=0;right=0;align=left;spacingLeft=6;overflow=hidden;whiteSpace=wrap;html=1;" vertex="1" parent="CqxWXHBQ5XjZxX1Wiu87-111">
          <mxGeometry x="30" width="150" height="30" as="geometry">
            <mxRectangle width="150" height="30" as="alternateBounds" />
          </mxGeometry>
        </mxCell>
        <mxCell id="CqxWXHBQ5XjZxX1Wiu87-114" value="" style="shape=tableRow;horizontal=0;startSize=0;swimlaneHead=0;swimlaneBody=0;fillColor=none;collapsible=0;dropTarget=0;points=[[0,0.5],[1,0.5]];portConstraint=eastwest;top=0;left=0;right=0;bottom=0;" vertex="1" parent="CqxWXHBQ5XjZxX1Wiu87-107">
          <mxGeometry y="90" width="180" height="30" as="geometry" />
        </mxCell>
        <mxCell id="CqxWXHBQ5XjZxX1Wiu87-115" value="" style="shape=partialRectangle;connectable=0;fillColor=none;top=0;left=0;bottom=0;right=0;editable=1;overflow=hidden;whiteSpace=wrap;html=1;" vertex="1" parent="CqxWXHBQ5XjZxX1Wiu87-114">
          <mxGeometry width="30" height="30" as="geometry">
            <mxRectangle width="30" height="30" as="alternateBounds" />
          </mxGeometry>
        </mxCell>
        <mxCell id="CqxWXHBQ5XjZxX1Wiu87-116" value="review_score - int" style="shape=partialRectangle;connectable=0;fillColor=none;top=0;left=0;bottom=0;right=0;align=left;spacingLeft=6;overflow=hidden;whiteSpace=wrap;html=1;" vertex="1" parent="CqxWXHBQ5XjZxX1Wiu87-114">
          <mxGeometry x="30" width="150" height="30" as="geometry">
            <mxRectangle width="150" height="30" as="alternateBounds" />
          </mxGeometry>
        </mxCell>
        <mxCell id="CqxWXHBQ5XjZxX1Wiu87-117" value="" style="shape=tableRow;horizontal=0;startSize=0;swimlaneHead=0;swimlaneBody=0;fillColor=none;collapsible=0;dropTarget=0;points=[[0,0.5],[1,0.5]];portConstraint=eastwest;top=0;left=0;right=0;bottom=0;" vertex="1" parent="CqxWXHBQ5XjZxX1Wiu87-107">
          <mxGeometry y="120" width="180" height="30" as="geometry" />
        </mxCell>
        <mxCell id="CqxWXHBQ5XjZxX1Wiu87-118" value="" style="shape=partialRectangle;connectable=0;fillColor=none;top=0;left=0;bottom=0;right=0;editable=1;overflow=hidden;whiteSpace=wrap;html=1;" vertex="1" parent="CqxWXHBQ5XjZxX1Wiu87-117">
          <mxGeometry width="30" height="30" as="geometry">
            <mxRectangle width="30" height="30" as="alternateBounds" />
          </mxGeometry>
        </mxCell>
        <mxCell id="CqxWXHBQ5XjZxX1Wiu87-119" value="&lt;div&gt;review_comment_title - varchar&lt;br&gt;&lt;/div&gt;" style="shape=partialRectangle;connectable=0;fillColor=none;top=0;left=0;bottom=0;right=0;align=left;spacingLeft=6;overflow=hidden;whiteSpace=wrap;html=1;" vertex="1" parent="CqxWXHBQ5XjZxX1Wiu87-117">
          <mxGeometry x="30" width="150" height="30" as="geometry">
            <mxRectangle width="150" height="30" as="alternateBounds" />
          </mxGeometry>
        </mxCell>
        <mxCell id="CqxWXHBQ5XjZxX1Wiu87-120" value="&lt;div&gt;review_comment_message - varchar&lt;/div&gt;" style="shape=partialRectangle;connectable=0;fillColor=none;top=0;left=0;bottom=0;right=0;align=left;spacingLeft=6;overflow=hidden;whiteSpace=wrap;html=1;" vertex="1" parent="1">
          <mxGeometry x="290" y="440" width="150" height="30" as="geometry">
            <mxRectangle width="150" height="30" as="alternateBounds" />
          </mxGeometry>
        </mxCell>
        <mxCell id="CqxWXHBQ5XjZxX1Wiu87-121" value="&lt;div&gt;FK&lt;/div&gt;" style="shape=partialRectangle;connectable=0;fillColor=none;top=0;left=0;bottom=0;right=0;fontStyle=1;overflow=hidden;whiteSpace=wrap;html=1;" vertex="1" parent="1">
          <mxGeometry x="260" y="350" width="30" height="30" as="geometry">
            <mxRectangle width="30" height="30" as="alternateBounds" />
          </mxGeometry>
        </mxCell>
        <mxCell id="CqxWXHBQ5XjZxX1Wiu87-124" value="review_creation_date - datetime" style="shape=partialRectangle;connectable=0;fillColor=none;top=0;left=0;bottom=0;right=0;align=left;spacingLeft=6;overflow=hidden;whiteSpace=wrap;html=1;" vertex="1" parent="1">
          <mxGeometry x="290" y="470" width="150" height="30" as="geometry">
            <mxRectangle width="150" height="30" as="alternateBounds" />
          </mxGeometry>
        </mxCell>
        <mxCell id="CqxWXHBQ5XjZxX1Wiu87-125" value="&lt;div&gt;review_answer_timestamp - timestamp&lt;/div&gt;" style="shape=partialRectangle;connectable=0;fillColor=none;top=0;left=0;bottom=0;right=0;align=left;spacingLeft=6;overflow=hidden;whiteSpace=wrap;html=1;" vertex="1" parent="1">
          <mxGeometry x="290" y="500" width="150" height="30" as="geometry">
            <mxRectangle width="150" height="30" as="alternateBounds" />
          </mxGeometry>
        </mxCell>
        <mxCell id="CqxWXHBQ5XjZxX1Wiu87-126" value="orders_table" style="shape=table;startSize=30;container=1;collapsible=1;childLayout=tableLayout;fixedRows=1;rowLines=0;fontStyle=1;align=center;resizeLast=1;html=1;swimlaneLine=1;" vertex="1" parent="1">
          <mxGeometry x="480" y="320" width="180" height="270" as="geometry" />
        </mxCell>
        <mxCell id="CqxWXHBQ5XjZxX1Wiu87-127" value="" style="shape=tableRow;horizontal=0;startSize=0;swimlaneHead=0;swimlaneBody=0;fillColor=none;collapsible=0;dropTarget=0;points=[[0,0.5],[1,0.5]];portConstraint=eastwest;top=0;left=0;right=0;bottom=1;swimlaneLine=1;" vertex="1" parent="CqxWXHBQ5XjZxX1Wiu87-126">
          <mxGeometry y="30" width="180" height="30" as="geometry" />
        </mxCell>
        <mxCell id="CqxWXHBQ5XjZxX1Wiu87-128" value="PK" style="shape=partialRectangle;connectable=0;fillColor=none;top=0;left=0;bottom=0;right=0;fontStyle=1;overflow=hidden;whiteSpace=wrap;html=1;swimlaneLine=1;" vertex="1" parent="CqxWXHBQ5XjZxX1Wiu87-127">
          <mxGeometry width="30" height="30" as="geometry">
            <mxRectangle width="30" height="30" as="alternateBounds" />
          </mxGeometry>
        </mxCell>
        <mxCell id="CqxWXHBQ5XjZxX1Wiu87-129" value="&lt;div&gt;order_id - varchar&lt;br&gt;&lt;/div&gt;" style="shape=partialRectangle;connectable=0;fillColor=none;top=0;left=0;bottom=0;right=0;align=left;spacingLeft=6;fontStyle=5;overflow=hidden;whiteSpace=wrap;html=1;swimlaneLine=1;" vertex="1" parent="CqxWXHBQ5XjZxX1Wiu87-127">
          <mxGeometry x="30" width="150" height="30" as="geometry">
            <mxRectangle width="150" height="30" as="alternateBounds" />
          </mxGeometry>
        </mxCell>
        <mxCell id="CqxWXHBQ5XjZxX1Wiu87-130" value="" style="shape=tableRow;horizontal=0;startSize=0;swimlaneHead=0;swimlaneBody=0;fillColor=none;collapsible=0;dropTarget=0;points=[[0,0.5],[1,0.5]];portConstraint=eastwest;top=0;left=0;right=0;bottom=0;swimlaneLine=1;" vertex="1" parent="CqxWXHBQ5XjZxX1Wiu87-126">
          <mxGeometry y="60" width="180" height="30" as="geometry" />
        </mxCell>
        <mxCell id="CqxWXHBQ5XjZxX1Wiu87-131" value="" style="shape=partialRectangle;connectable=0;fillColor=none;top=0;left=0;bottom=0;right=0;editable=1;overflow=hidden;whiteSpace=wrap;html=1;swimlaneLine=1;" vertex="1" parent="CqxWXHBQ5XjZxX1Wiu87-130">
          <mxGeometry width="30" height="30" as="geometry">
            <mxRectangle width="30" height="30" as="alternateBounds" />
          </mxGeometry>
        </mxCell>
        <mxCell id="CqxWXHBQ5XjZxX1Wiu87-132" value="&lt;div&gt;customer_id - varchar&lt;br&gt;&lt;/div&gt;" style="shape=partialRectangle;connectable=0;fillColor=none;top=0;left=0;bottom=0;right=0;align=left;spacingLeft=6;overflow=hidden;whiteSpace=wrap;html=1;swimlaneLine=1;" vertex="1" parent="CqxWXHBQ5XjZxX1Wiu87-130">
          <mxGeometry x="30" width="150" height="30" as="geometry">
            <mxRectangle width="150" height="30" as="alternateBounds" />
          </mxGeometry>
        </mxCell>
        <mxCell id="CqxWXHBQ5XjZxX1Wiu87-133" value="" style="shape=tableRow;horizontal=0;startSize=0;swimlaneHead=0;swimlaneBody=0;fillColor=none;collapsible=0;dropTarget=0;points=[[0,0.5],[1,0.5]];portConstraint=eastwest;top=0;left=0;right=0;bottom=0;swimlaneLine=1;" vertex="1" parent="CqxWXHBQ5XjZxX1Wiu87-126">
          <mxGeometry y="90" width="180" height="30" as="geometry" />
        </mxCell>
        <mxCell id="CqxWXHBQ5XjZxX1Wiu87-134" value="" style="shape=partialRectangle;connectable=0;fillColor=none;top=0;left=0;bottom=0;right=0;editable=1;overflow=hidden;whiteSpace=wrap;html=1;swimlaneLine=1;" vertex="1" parent="CqxWXHBQ5XjZxX1Wiu87-133">
          <mxGeometry width="30" height="30" as="geometry">
            <mxRectangle width="30" height="30" as="alternateBounds" />
          </mxGeometry>
        </mxCell>
        <mxCell id="CqxWXHBQ5XjZxX1Wiu87-135" value="order_status - varchar" style="shape=partialRectangle;connectable=0;fillColor=none;top=0;left=0;bottom=0;right=0;align=left;spacingLeft=6;overflow=hidden;whiteSpace=wrap;html=1;swimlaneLine=1;" vertex="1" parent="CqxWXHBQ5XjZxX1Wiu87-133">
          <mxGeometry x="30" width="150" height="30" as="geometry">
            <mxRectangle width="150" height="30" as="alternateBounds" />
          </mxGeometry>
        </mxCell>
        <mxCell id="CqxWXHBQ5XjZxX1Wiu87-136" value="" style="shape=tableRow;horizontal=0;startSize=0;swimlaneHead=0;swimlaneBody=0;fillColor=none;collapsible=0;dropTarget=0;points=[[0,0.5],[1,0.5]];portConstraint=eastwest;top=0;left=0;right=0;bottom=0;swimlaneLine=1;" vertex="1" parent="CqxWXHBQ5XjZxX1Wiu87-126">
          <mxGeometry y="120" width="180" height="30" as="geometry" />
        </mxCell>
        <mxCell id="CqxWXHBQ5XjZxX1Wiu87-137" value="" style="shape=partialRectangle;connectable=0;fillColor=none;top=0;left=0;bottom=0;right=0;editable=1;overflow=hidden;whiteSpace=wrap;html=1;swimlaneLine=1;" vertex="1" parent="CqxWXHBQ5XjZxX1Wiu87-136">
          <mxGeometry width="30" height="30" as="geometry">
            <mxRectangle width="30" height="30" as="alternateBounds" />
          </mxGeometry>
        </mxCell>
        <mxCell id="CqxWXHBQ5XjZxX1Wiu87-138" value="&lt;div&gt;purchase_timestamp- timestamp&lt;br&gt;&lt;/div&gt;" style="shape=partialRectangle;connectable=0;fillColor=none;top=0;left=0;bottom=0;right=0;align=left;spacingLeft=6;overflow=hidden;whiteSpace=wrap;html=1;swimlaneLine=1;" vertex="1" parent="CqxWXHBQ5XjZxX1Wiu87-136">
          <mxGeometry x="30" width="150" height="30" as="geometry">
            <mxRectangle width="150" height="30" as="alternateBounds" />
          </mxGeometry>
        </mxCell>
        <mxCell id="CqxWXHBQ5XjZxX1Wiu87-139" value="order_approved_at - timestamp" style="shape=partialRectangle;connectable=0;fillColor=none;top=0;left=0;bottom=0;right=0;align=left;spacingLeft=6;overflow=hidden;whiteSpace=wrap;html=1;swimlaneLine=1;" vertex="1" parent="1">
          <mxGeometry x="510" y="470" width="150" height="30" as="geometry">
            <mxRectangle width="150" height="30" as="alternateBounds" />
          </mxGeometry>
        </mxCell>
        <mxCell id="CqxWXHBQ5XjZxX1Wiu87-140" value="&lt;div&gt;FK&lt;/div&gt;" style="shape=partialRectangle;connectable=0;fillColor=none;top=0;left=0;bottom=0;right=0;fontStyle=1;overflow=hidden;whiteSpace=wrap;html=1;swimlaneLine=1;" vertex="1" parent="1">
          <mxGeometry x="480" y="380" width="30" height="30" as="geometry">
            <mxRectangle width="30" height="30" as="alternateBounds" />
          </mxGeometry>
        </mxCell>
        <mxCell id="CqxWXHBQ5XjZxX1Wiu87-141" value="carrier_delivered_date - timestamp" style="shape=partialRectangle;connectable=0;fillColor=none;top=0;left=0;bottom=0;right=0;align=left;spacingLeft=6;overflow=hidden;whiteSpace=wrap;html=1;swimlaneLine=1;" vertex="1" parent="1">
          <mxGeometry x="510" y="500" width="150" height="30" as="geometry">
            <mxRectangle width="150" height="30" as="alternateBounds" />
          </mxGeometry>
        </mxCell>
        <mxCell id="CqxWXHBQ5XjZxX1Wiu87-142" value="customer_delivered_date - timestamp" style="shape=partialRectangle;connectable=0;fillColor=none;top=0;left=0;bottom=0;right=0;align=left;spacingLeft=6;overflow=hidden;whiteSpace=wrap;html=1;swimlaneLine=1;" vertex="1" parent="1">
          <mxGeometry x="510" y="530" width="150" height="30" as="geometry">
            <mxRectangle width="150" height="30" as="alternateBounds" />
          </mxGeometry>
        </mxCell>
        <mxCell id="CqxWXHBQ5XjZxX1Wiu87-143" value="estimated_delivery_date&amp;nbsp; - timestamp" style="shape=partialRectangle;connectable=0;fillColor=none;top=0;left=0;bottom=0;right=0;align=left;spacingLeft=6;overflow=hidden;whiteSpace=wrap;html=1;swimlaneLine=1;" vertex="1" parent="1">
          <mxGeometry x="510" y="560" width="150" height="30" as="geometry">
            <mxRectangle width="150" height="30" as="alternateBounds" />
          </mxGeometry>
        </mxCell>
        <mxCell id="CqxWXHBQ5XjZxX1Wiu87-144" value="products_table" style="shape=table;startSize=30;container=1;collapsible=1;childLayout=tableLayout;fixedRows=1;rowLines=0;fontStyle=1;align=center;resizeLast=1;html=1;swimlaneLine=1;" vertex="1" parent="1">
          <mxGeometry x="40" y="560" width="180" height="300" as="geometry" />
        </mxCell>
        <mxCell id="CqxWXHBQ5XjZxX1Wiu87-145" value="" style="shape=tableRow;horizontal=0;startSize=0;swimlaneHead=0;swimlaneBody=0;fillColor=none;collapsible=0;dropTarget=0;points=[[0,0.5],[1,0.5]];portConstraint=eastwest;top=0;left=0;right=0;bottom=1;swimlaneLine=1;" vertex="1" parent="CqxWXHBQ5XjZxX1Wiu87-144">
          <mxGeometry y="30" width="180" height="30" as="geometry" />
        </mxCell>
        <mxCell id="CqxWXHBQ5XjZxX1Wiu87-146" value="PK" style="shape=partialRectangle;connectable=0;fillColor=none;top=0;left=0;bottom=0;right=0;fontStyle=1;overflow=hidden;whiteSpace=wrap;html=1;swimlaneLine=1;" vertex="1" parent="CqxWXHBQ5XjZxX1Wiu87-145">
          <mxGeometry width="30" height="30" as="geometry">
            <mxRectangle width="30" height="30" as="alternateBounds" />
          </mxGeometry>
        </mxCell>
        <mxCell id="CqxWXHBQ5XjZxX1Wiu87-147" value="&lt;div&gt;product_id - varchar&lt;br&gt;&lt;/div&gt;" style="shape=partialRectangle;connectable=0;fillColor=none;top=0;left=0;bottom=0;right=0;align=left;spacingLeft=6;fontStyle=5;overflow=hidden;whiteSpace=wrap;html=1;swimlaneLine=1;" vertex="1" parent="CqxWXHBQ5XjZxX1Wiu87-145">
          <mxGeometry x="30" width="150" height="30" as="geometry">
            <mxRectangle width="150" height="30" as="alternateBounds" />
          </mxGeometry>
        </mxCell>
        <mxCell id="CqxWXHBQ5XjZxX1Wiu87-148" value="" style="shape=tableRow;horizontal=0;startSize=0;swimlaneHead=0;swimlaneBody=0;fillColor=none;collapsible=0;dropTarget=0;points=[[0,0.5],[1,0.5]];portConstraint=eastwest;top=0;left=0;right=0;bottom=0;swimlaneLine=1;" vertex="1" parent="CqxWXHBQ5XjZxX1Wiu87-144">
          <mxGeometry y="60" width="180" height="30" as="geometry" />
        </mxCell>
        <mxCell id="CqxWXHBQ5XjZxX1Wiu87-149" value="" style="shape=partialRectangle;connectable=0;fillColor=none;top=0;left=0;bottom=0;right=0;editable=1;overflow=hidden;whiteSpace=wrap;html=1;swimlaneLine=1;" vertex="1" parent="CqxWXHBQ5XjZxX1Wiu87-148">
          <mxGeometry width="30" height="30" as="geometry">
            <mxRectangle width="30" height="30" as="alternateBounds" />
          </mxGeometry>
        </mxCell>
        <mxCell id="CqxWXHBQ5XjZxX1Wiu87-150" value="&lt;div&gt;product_category - varchar&lt;br&gt;&lt;/div&gt;" style="shape=partialRectangle;connectable=0;fillColor=none;top=0;left=0;bottom=0;right=0;align=left;spacingLeft=6;overflow=hidden;whiteSpace=wrap;html=1;swimlaneLine=1;" vertex="1" parent="CqxWXHBQ5XjZxX1Wiu87-148">
          <mxGeometry x="30" width="150" height="30" as="geometry">
            <mxRectangle width="150" height="30" as="alternateBounds" />
          </mxGeometry>
        </mxCell>
        <mxCell id="CqxWXHBQ5XjZxX1Wiu87-151" value="" style="shape=tableRow;horizontal=0;startSize=0;swimlaneHead=0;swimlaneBody=0;fillColor=none;collapsible=0;dropTarget=0;points=[[0,0.5],[1,0.5]];portConstraint=eastwest;top=0;left=0;right=0;bottom=0;swimlaneLine=1;" vertex="1" parent="CqxWXHBQ5XjZxX1Wiu87-144">
          <mxGeometry y="90" width="180" height="30" as="geometry" />
        </mxCell>
        <mxCell id="CqxWXHBQ5XjZxX1Wiu87-152" value="" style="shape=partialRectangle;connectable=0;fillColor=none;top=0;left=0;bottom=0;right=0;editable=1;overflow=hidden;whiteSpace=wrap;html=1;swimlaneLine=1;" vertex="1" parent="CqxWXHBQ5XjZxX1Wiu87-151">
          <mxGeometry width="30" height="30" as="geometry">
            <mxRectangle width="30" height="30" as="alternateBounds" />
          </mxGeometry>
        </mxCell>
        <mxCell id="CqxWXHBQ5XjZxX1Wiu87-153" value="product_name_length - int" style="shape=partialRectangle;connectable=0;fillColor=none;top=0;left=0;bottom=0;right=0;align=left;spacingLeft=6;overflow=hidden;whiteSpace=wrap;html=1;swimlaneLine=1;" vertex="1" parent="CqxWXHBQ5XjZxX1Wiu87-151">
          <mxGeometry x="30" width="150" height="30" as="geometry">
            <mxRectangle width="150" height="30" as="alternateBounds" />
          </mxGeometry>
        </mxCell>
        <mxCell id="CqxWXHBQ5XjZxX1Wiu87-154" value="" style="shape=tableRow;horizontal=0;startSize=0;swimlaneHead=0;swimlaneBody=0;fillColor=none;collapsible=0;dropTarget=0;points=[[0,0.5],[1,0.5]];portConstraint=eastwest;top=0;left=0;right=0;bottom=0;swimlaneLine=1;" vertex="1" parent="CqxWXHBQ5XjZxX1Wiu87-144">
          <mxGeometry y="120" width="180" height="30" as="geometry" />
        </mxCell>
        <mxCell id="CqxWXHBQ5XjZxX1Wiu87-155" value="" style="shape=partialRectangle;connectable=0;fillColor=none;top=0;left=0;bottom=0;right=0;editable=1;overflow=hidden;whiteSpace=wrap;html=1;swimlaneLine=1;" vertex="1" parent="CqxWXHBQ5XjZxX1Wiu87-154">
          <mxGeometry width="30" height="30" as="geometry">
            <mxRectangle width="30" height="30" as="alternateBounds" />
          </mxGeometry>
        </mxCell>
        <mxCell id="CqxWXHBQ5XjZxX1Wiu87-156" value="product_desc_length - int" style="shape=partialRectangle;connectable=0;fillColor=none;top=0;left=0;bottom=0;right=0;align=left;spacingLeft=6;overflow=hidden;whiteSpace=wrap;html=1;swimlaneLine=1;" vertex="1" parent="CqxWXHBQ5XjZxX1Wiu87-154">
          <mxGeometry x="30" width="150" height="30" as="geometry">
            <mxRectangle width="150" height="30" as="alternateBounds" />
          </mxGeometry>
        </mxCell>
        <mxCell id="CqxWXHBQ5XjZxX1Wiu87-157" value="num_photos - int" style="shape=partialRectangle;connectable=0;fillColor=none;top=0;left=0;bottom=0;right=0;align=left;spacingLeft=6;overflow=hidden;whiteSpace=wrap;html=1;swimlaneLine=1;" vertex="1" parent="1">
          <mxGeometry x="70" y="710" width="150" height="30" as="geometry">
            <mxRectangle width="150" height="30" as="alternateBounds" />
          </mxGeometry>
        </mxCell>
        <mxCell id="CqxWXHBQ5XjZxX1Wiu87-159" value="weight (grams) - int " style="shape=partialRectangle;connectable=0;fillColor=none;top=0;left=0;bottom=0;right=0;align=left;spacingLeft=6;overflow=hidden;whiteSpace=wrap;html=1;swimlaneLine=1;" vertex="1" parent="1">
          <mxGeometry x="70" y="740" width="150" height="30" as="geometry">
            <mxRectangle width="150" height="30" as="alternateBounds" />
          </mxGeometry>
        </mxCell>
        <mxCell id="CqxWXHBQ5XjZxX1Wiu87-160" value="product_length_cm - int" style="shape=partialRectangle;connectable=0;fillColor=none;top=0;left=0;bottom=0;right=0;align=left;spacingLeft=6;overflow=hidden;whiteSpace=wrap;html=1;swimlaneLine=1;" vertex="1" parent="1">
          <mxGeometry x="70" y="770" width="150" height="30" as="geometry">
            <mxRectangle width="150" height="30" as="alternateBounds" />
          </mxGeometry>
        </mxCell>
        <mxCell id="CqxWXHBQ5XjZxX1Wiu87-161" value="product_height_cm - int" style="shape=partialRectangle;connectable=0;fillColor=none;top=0;left=0;bottom=0;right=0;align=left;spacingLeft=6;overflow=hidden;whiteSpace=wrap;html=1;swimlaneLine=1;" vertex="1" parent="1">
          <mxGeometry x="70" y="800" width="150" height="30" as="geometry">
            <mxRectangle width="150" height="30" as="alternateBounds" />
          </mxGeometry>
        </mxCell>
        <mxCell id="CqxWXHBQ5XjZxX1Wiu87-162" value="product_width_cm - int" style="shape=partialRectangle;connectable=0;fillColor=none;top=0;left=0;bottom=0;right=0;align=left;spacingLeft=6;overflow=hidden;whiteSpace=wrap;html=1;swimlaneLine=1;" vertex="1" parent="1">
          <mxGeometry x="70" y="830" width="150" height="30" as="geometry">
            <mxRectangle width="150" height="30" as="alternateBounds" />
          </mxGeometry>
        </mxCell>
        <mxCell id="CqxWXHBQ5XjZxX1Wiu87-163" value="sellers_table" style="shape=table;startSize=30;container=1;collapsible=1;childLayout=tableLayout;fixedRows=1;rowLines=0;fontStyle=1;align=center;resizeLast=1;html=1;" vertex="1" parent="1">
          <mxGeometry x="260" y="600" width="180" height="150" as="geometry" />
        </mxCell>
        <mxCell id="CqxWXHBQ5XjZxX1Wiu87-164" value="" style="shape=tableRow;horizontal=0;startSize=0;swimlaneHead=0;swimlaneBody=0;fillColor=none;collapsible=0;dropTarget=0;points=[[0,0.5],[1,0.5]];portConstraint=eastwest;top=0;left=0;right=0;bottom=1;" vertex="1" parent="CqxWXHBQ5XjZxX1Wiu87-163">
          <mxGeometry y="30" width="180" height="30" as="geometry" />
        </mxCell>
        <mxCell id="CqxWXHBQ5XjZxX1Wiu87-165" value="PK" style="shape=partialRectangle;connectable=0;fillColor=none;top=0;left=0;bottom=0;right=0;fontStyle=1;overflow=hidden;whiteSpace=wrap;html=1;" vertex="1" parent="CqxWXHBQ5XjZxX1Wiu87-164">
          <mxGeometry width="30" height="30" as="geometry">
            <mxRectangle width="30" height="30" as="alternateBounds" />
          </mxGeometry>
        </mxCell>
        <mxCell id="CqxWXHBQ5XjZxX1Wiu87-166" value="&lt;div&gt;seller_id - varchar&lt;/div&gt;" style="shape=partialRectangle;connectable=0;fillColor=none;top=0;left=0;bottom=0;right=0;align=left;spacingLeft=6;fontStyle=5;overflow=hidden;whiteSpace=wrap;html=1;" vertex="1" parent="CqxWXHBQ5XjZxX1Wiu87-164">
          <mxGeometry x="30" width="150" height="30" as="geometry">
            <mxRectangle width="150" height="30" as="alternateBounds" />
          </mxGeometry>
        </mxCell>
        <mxCell id="CqxWXHBQ5XjZxX1Wiu87-167" value="" style="shape=tableRow;horizontal=0;startSize=0;swimlaneHead=0;swimlaneBody=0;fillColor=none;collapsible=0;dropTarget=0;points=[[0,0.5],[1,0.5]];portConstraint=eastwest;top=0;left=0;right=0;bottom=0;" vertex="1" parent="CqxWXHBQ5XjZxX1Wiu87-163">
          <mxGeometry y="60" width="180" height="30" as="geometry" />
        </mxCell>
        <mxCell id="CqxWXHBQ5XjZxX1Wiu87-168" value="" style="shape=partialRectangle;connectable=0;fillColor=none;top=0;left=0;bottom=0;right=0;editable=1;overflow=hidden;whiteSpace=wrap;html=1;" vertex="1" parent="CqxWXHBQ5XjZxX1Wiu87-167">
          <mxGeometry width="30" height="30" as="geometry">
            <mxRectangle width="30" height="30" as="alternateBounds" />
          </mxGeometry>
        </mxCell>
        <mxCell id="CqxWXHBQ5XjZxX1Wiu87-169" value="&lt;div&gt;seller_zip_code - int&lt;br&gt;&lt;/div&gt;" style="shape=partialRectangle;connectable=0;fillColor=none;top=0;left=0;bottom=0;right=0;align=left;spacingLeft=6;overflow=hidden;whiteSpace=wrap;html=1;" vertex="1" parent="CqxWXHBQ5XjZxX1Wiu87-167">
          <mxGeometry x="30" width="150" height="30" as="geometry">
            <mxRectangle width="150" height="30" as="alternateBounds" />
          </mxGeometry>
        </mxCell>
        <mxCell id="CqxWXHBQ5XjZxX1Wiu87-170" value="" style="shape=tableRow;horizontal=0;startSize=0;swimlaneHead=0;swimlaneBody=0;fillColor=none;collapsible=0;dropTarget=0;points=[[0,0.5],[1,0.5]];portConstraint=eastwest;top=0;left=0;right=0;bottom=0;" vertex="1" parent="CqxWXHBQ5XjZxX1Wiu87-163">
          <mxGeometry y="90" width="180" height="30" as="geometry" />
        </mxCell>
        <mxCell id="CqxWXHBQ5XjZxX1Wiu87-171" value="" style="shape=partialRectangle;connectable=0;fillColor=none;top=0;left=0;bottom=0;right=0;editable=1;overflow=hidden;whiteSpace=wrap;html=1;" vertex="1" parent="CqxWXHBQ5XjZxX1Wiu87-170">
          <mxGeometry width="30" height="30" as="geometry">
            <mxRectangle width="30" height="30" as="alternateBounds" />
          </mxGeometry>
        </mxCell>
        <mxCell id="CqxWXHBQ5XjZxX1Wiu87-172" value="seller_city - varchar" style="shape=partialRectangle;connectable=0;fillColor=none;top=0;left=0;bottom=0;right=0;align=left;spacingLeft=6;overflow=hidden;whiteSpace=wrap;html=1;" vertex="1" parent="CqxWXHBQ5XjZxX1Wiu87-170">
          <mxGeometry x="30" width="150" height="30" as="geometry">
            <mxRectangle width="150" height="30" as="alternateBounds" />
          </mxGeometry>
        </mxCell>
        <mxCell id="CqxWXHBQ5XjZxX1Wiu87-173" value="" style="shape=tableRow;horizontal=0;startSize=0;swimlaneHead=0;swimlaneBody=0;fillColor=none;collapsible=0;dropTarget=0;points=[[0,0.5],[1,0.5]];portConstraint=eastwest;top=0;left=0;right=0;bottom=0;" vertex="1" parent="CqxWXHBQ5XjZxX1Wiu87-163">
          <mxGeometry y="120" width="180" height="30" as="geometry" />
        </mxCell>
        <mxCell id="CqxWXHBQ5XjZxX1Wiu87-174" value="" style="shape=partialRectangle;connectable=0;fillColor=none;top=0;left=0;bottom=0;right=0;editable=1;overflow=hidden;whiteSpace=wrap;html=1;" vertex="1" parent="CqxWXHBQ5XjZxX1Wiu87-173">
          <mxGeometry width="30" height="30" as="geometry">
            <mxRectangle width="30" height="30" as="alternateBounds" />
          </mxGeometry>
        </mxCell>
        <mxCell id="CqxWXHBQ5XjZxX1Wiu87-175" value="seller_state - varchar" style="shape=partialRectangle;connectable=0;fillColor=none;top=0;left=0;bottom=0;right=0;align=left;spacingLeft=6;overflow=hidden;whiteSpace=wrap;html=1;" vertex="1" parent="CqxWXHBQ5XjZxX1Wiu87-173">
          <mxGeometry x="30" width="150" height="30" as="geometry">
            <mxRectangle width="150" height="30" as="alternateBounds" />
          </mxGeometry>
        </mxCell>
        <mxCell id="CqxWXHBQ5XjZxX1Wiu87-178" value="category_name_table" style="shape=table;startSize=30;container=1;collapsible=1;childLayout=tableLayout;fixedRows=1;rowLines=0;fontStyle=1;align=center;resizeLast=1;html=1;" vertex="1" parent="1">
          <mxGeometry x="480" y="640" width="180" height="150" as="geometry" />
        </mxCell>
        <mxCell id="CqxWXHBQ5XjZxX1Wiu87-179" value="" style="shape=tableRow;horizontal=0;startSize=0;swimlaneHead=0;swimlaneBody=0;fillColor=none;collapsible=0;dropTarget=0;points=[[0,0.5],[1,0.5]];portConstraint=eastwest;top=0;left=0;right=0;bottom=1;" vertex="1" parent="CqxWXHBQ5XjZxX1Wiu87-178">
          <mxGeometry y="30" width="180" height="30" as="geometry" />
        </mxCell>
        <mxCell id="CqxWXHBQ5XjZxX1Wiu87-180" value="PK" style="shape=partialRectangle;connectable=0;fillColor=none;top=0;left=0;bottom=0;right=0;fontStyle=1;overflow=hidden;whiteSpace=wrap;html=1;" vertex="1" parent="CqxWXHBQ5XjZxX1Wiu87-179">
          <mxGeometry width="30" height="30" as="geometry">
            <mxRectangle width="30" height="30" as="alternateBounds" />
          </mxGeometry>
        </mxCell>
        <mxCell id="CqxWXHBQ5XjZxX1Wiu87-181" value="product_category" style="shape=partialRectangle;connectable=0;fillColor=none;top=0;left=0;bottom=0;right=0;align=left;spacingLeft=6;fontStyle=5;overflow=hidden;whiteSpace=wrap;html=1;" vertex="1" parent="CqxWXHBQ5XjZxX1Wiu87-179">
          <mxGeometry x="30" width="150" height="30" as="geometry">
            <mxRectangle width="150" height="30" as="alternateBounds" />
          </mxGeometry>
        </mxCell>
        <mxCell id="CqxWXHBQ5XjZxX1Wiu87-182" value="" style="shape=tableRow;horizontal=0;startSize=0;swimlaneHead=0;swimlaneBody=0;fillColor=none;collapsible=0;dropTarget=0;points=[[0,0.5],[1,0.5]];portConstraint=eastwest;top=0;left=0;right=0;bottom=0;" vertex="1" parent="CqxWXHBQ5XjZxX1Wiu87-178">
          <mxGeometry y="60" width="180" height="30" as="geometry" />
        </mxCell>
        <mxCell id="CqxWXHBQ5XjZxX1Wiu87-183" value="" style="shape=partialRectangle;connectable=0;fillColor=none;top=0;left=0;bottom=0;right=0;editable=1;overflow=hidden;whiteSpace=wrap;html=1;" vertex="1" parent="CqxWXHBQ5XjZxX1Wiu87-182">
          <mxGeometry width="30" height="30" as="geometry">
            <mxRectangle width="30" height="30" as="alternateBounds" />
          </mxGeometry>
        </mxCell>
        <mxCell id="CqxWXHBQ5XjZxX1Wiu87-184" value="&lt;div&gt;product_category_en&lt;br&gt;&lt;/div&gt;" style="shape=partialRectangle;connectable=0;fillColor=none;top=0;left=0;bottom=0;right=0;align=left;spacingLeft=6;overflow=hidden;whiteSpace=wrap;html=1;" vertex="1" parent="CqxWXHBQ5XjZxX1Wiu87-182">
          <mxGeometry x="30" width="150" height="30" as="geometry">
            <mxRectangle width="150" height="30" as="alternateBounds" />
          </mxGeometry>
        </mxCell>
        <mxCell id="CqxWXHBQ5XjZxX1Wiu87-185" value="" style="shape=tableRow;horizontal=0;startSize=0;swimlaneHead=0;swimlaneBody=0;fillColor=none;collapsible=0;dropTarget=0;points=[[0,0.5],[1,0.5]];portConstraint=eastwest;top=0;left=0;right=0;bottom=0;" vertex="1" parent="CqxWXHBQ5XjZxX1Wiu87-178">
          <mxGeometry y="90" width="180" height="30" as="geometry" />
        </mxCell>
        <mxCell id="CqxWXHBQ5XjZxX1Wiu87-186" value="" style="shape=partialRectangle;connectable=0;fillColor=none;top=0;left=0;bottom=0;right=0;editable=1;overflow=hidden;whiteSpace=wrap;html=1;" vertex="1" parent="CqxWXHBQ5XjZxX1Wiu87-185">
          <mxGeometry width="30" height="30" as="geometry">
            <mxRectangle width="30" height="30" as="alternateBounds" />
          </mxGeometry>
        </mxCell>
        <mxCell id="CqxWXHBQ5XjZxX1Wiu87-187" value="" style="shape=partialRectangle;connectable=0;fillColor=none;top=0;left=0;bottom=0;right=0;align=left;spacingLeft=6;overflow=hidden;whiteSpace=wrap;html=1;" vertex="1" parent="CqxWXHBQ5XjZxX1Wiu87-185">
          <mxGeometry x="30" width="150" height="30" as="geometry">
            <mxRectangle width="150" height="30" as="alternateBounds" />
          </mxGeometry>
        </mxCell>
        <mxCell id="CqxWXHBQ5XjZxX1Wiu87-188" value="" style="shape=tableRow;horizontal=0;startSize=0;swimlaneHead=0;swimlaneBody=0;fillColor=none;collapsible=0;dropTarget=0;points=[[0,0.5],[1,0.5]];portConstraint=eastwest;top=0;left=0;right=0;bottom=0;" vertex="1" parent="CqxWXHBQ5XjZxX1Wiu87-178">
          <mxGeometry y="120" width="180" height="30" as="geometry" />
        </mxCell>
        <mxCell id="CqxWXHBQ5XjZxX1Wiu87-189" value="" style="shape=partialRectangle;connectable=0;fillColor=none;top=0;left=0;bottom=0;right=0;editable=1;overflow=hidden;whiteSpace=wrap;html=1;" vertex="1" parent="CqxWXHBQ5XjZxX1Wiu87-188">
          <mxGeometry width="30" height="30" as="geometry">
            <mxRectangle width="30" height="30" as="alternateBounds" />
          </mxGeometry>
        </mxCell>
        <mxCell id="CqxWXHBQ5XjZxX1Wiu87-190" value="" style="shape=partialRectangle;connectable=0;fillColor=none;top=0;left=0;bottom=0;right=0;align=left;spacingLeft=6;overflow=hidden;whiteSpace=wrap;html=1;" vertex="1" parent="CqxWXHBQ5XjZxX1Wiu87-188">
          <mxGeometry x="30" width="150" height="30" as="geometry">
            <mxRectangle width="150" height="30" as="alternateBounds" />
          </mxGeometry>
        </mxCell>
        <mxCell id="CqxWXHBQ5XjZxX1Wiu87-204" value="" style="shape=image;verticalLabelPosition=bottom;labelBackgroundColor=default;verticalAlign=top;aspect=fixed;imageAspect=0;image=data:image/png,iVBORw0KGgoAAAANSUhEUgAABLAAAALSCAYAAADNzSikAAAgAElEQVR4XuzdB3xTVRvH8SdNB3vvDQ5AEffeGxFlb1EUUVScuBX3wIELFQcORFARQZChuCeu170R2XtvOpK8z3NLQgstbdImTW5+5/30LbS5957zPbfB++8ZnnWbtgaEggACCCCAAAIIIIAAAggggAACCCCAQJwKeAiw4rRnqBYCCCCAAAIIIIAAAggggAACCCCAgCNAgMWNgAACCCCAAAIIIIAAAggggAACCCAQ1wIEWHHdPVQOAQQQQAABBBBAAAEEEEAAAQQQQIAAi3sAAQQQQAABBBBAAAEEEEAAAQQQQCCuBQiw4rp7qBwCCCCAAAIIIIAAAggggAACCCCAAAEW9wACCCCAAAIIIIAAAggggAACCCCAQFwLEGDFdfdQOQQQQAABBBBAAAEEEEAAAQQQQAABAizuAQQQQAABBBBAAAEEEEAAAQQQQACBuBYgwIrr7qFyCCCAAAIIIIAAAggggAACCCCAAAIEWNwDCCCAAAIIIIAAAggggAACCCCAAAJxLUCAFdfdQ+UQQAABBBBAAAEEEEAAAQQQQAABBAiwuAcQQAABBBBAAAEEEEAAAQQQQAABBOJagAArrruHyiGAAAIIIIAAAggggAACCCCAAAIIEGBxDyCAAAIIIIAAAggggAACCCCAAAIIxLUAAVZcdw+VQwABBBBAAAEEEEAAAQQQQAABBBAgwOIeQAABBBBAAAEEEEAAAQQQQAABBBCIawECrLjuHiqHAAIIIIAAAggggAACCCCAAAIIIECAxT2AAAIIIIAAAggggAACCCCAAAIIIBDXAgRYcd09VA4BBBBAAAEEEEAAAQQQQAABBBBAgACLewABBBBAAAEEEEAAAQQQQAABBBBAIK4FCLDiunuoHAIIIIAAAggggAACCCCAAAIIIIAAARb3AAIIIIAAAggggAACCCCAAAIIIIBAXAsQYMV191A5BBBAAAEEEEAAAQQQQAABBBBAAAECLO4BBBBAAAEEdicQEMnx5Uh2jk9ycuyzfmRv/7N+XfT7hRWv1ytpqV5JTU3Vz6mSmmaf9WveVPGkeHBHAAEESi4QyBbxbxOPfog/Uz+26vtSZu7fA/oeVfg7lARSyomkZOiHfS63/e/6Z096yevFGRBAAAEEEChlAQKsUgbldAgggAACiSeQmZUlmzZtkY2bt8j6TZtl1aq1smbdelm7foOs27BJ/H5/qTeqYvnyUr16FalRrap+VJFa1atKpYoVQh+lfkFOiAACCSoQEE/WUpHsFeLRj5St/4onc75I5gLxbJuvQdWmUm9XwKNhVrkmIhlNJWAf5fcSf1pdkbTaEkivpwFXWqlfkxMigAACCCBQlAABVlFCfB8BBBBAwFUCW7duk1Vr1slK/Vi0dLksXrpC1m8s/QfAkqCl60itBvXqSKMGdaVuzRpSq2Z1qValkng8jNoqiSvHIhDvAp5Alsi2eRpMzZGULb+KZ9NP+vkPrXbph+iRW3jEr4FWoOIB+tFWg649cj9sFBcFAQQQQACBKAoQYEURl1MjgAACCJS9gM/nl/8WLJZf/5otS5etdEZZJWKxKYh169SSvZs1ln1atnBGalEQQCDxBTzb/hXv6oni2fidpOifJeBLyEb5M5qLVDpQcmp1lUCFNtoGAveE7EgqjQACCMSxAAFWHHcOVUMAAQQQiEzA5/PJH7Pnyt//zpN5C5foGlaJ+UC4u9bXrVVD9mzRRNq03EOqV60SGRRHIYBAGQgEJGXzz5KyZpqkbPhUpwcuK4M6RPeSgdRq4q9yvPirnyH+ykdolpUS3QtydgQQQACBpBAgwEqKbqaRCCCAQHIIrFi5Rr763y8ye+58sZFXyVBsWmH9OjXlwP1aO2EW0wyToddpY0IK6PRA7/IXxLtmqq5htTAhmxBJpQO6bpa/ejvx1R0ggdQakZyCYxBAAAEEEHAECLC4ERBAAAEEEl7A1rR675NZzppWgcButgVM+JbuvgGVK1WUow/dXw7Yt6XLW0rzEEgkgYB4F90nqasnO7sFJm3RnQ191U+VnMZDdcdDpkAn7X1AwxFAAIESCBBglQCPQxFAAAEEyl5gxkdf6vpW/0Zlp8Cyb11kNaipOxr27NhOqlTiITEyQY5CoHQEvBtniXfu9eLxrS+dE7rhLBpe5TS6SXw1O7qhNbQBAQQQQCCGAgRYMcTmUggggAACpSewRXcTfHn8FNmwcXPpndRFZ/J6vXLWqcdJqz2buahVNAWBxBFInXeTeNdO1won76jQ3fWWv8J+kt1ybOJ0KDVFAAEEEChzAQKsMu8CKoAAAgggEK7Axk1b5NkxE1y5OHu4FkW9/vQTj5IDmVJYFBPfR6BUBVL/HSjejd+U6jndeLKAt6pktf3cjU2jTQgggAACURAgwIoCKqdEAAEEEIiegN/vl6deGi+bt26N3kVcduaL+naRGjqtkIIAAtEXSF38kHhXjIn+hVxyBX/FAyR771dc0hqagQACCCAQTQECrGjqcm4EEEAAgVIX+P3vOfLO+5+V+nndfMIK5cvJ5QN6i8fNjaRtCMSDgD9TMn45RmcNZsZDbRKkDimSuf9XLOyeIL1FNRFAAIGyFCDAKkt9ro0AAgggELbAqxOmyaJlK8I+LtkPGDKon6SlpiY7A+1HIKoC3jXvSOr8W6J6DTee3FfnPMlpOMSNTaNNCCCAAAKlKECAVYqYnAoBBBBAIPoCw58dI9nZOdG/kMuucPVF50hGeprLWkVzEIgvgdQlj4l3+YvxVakEqE2gwr6S1fK1BKgpVUQAAQQQKEsBAqyy1OfaCCCAAAJhC4waN0lWrVkX9nHJfsCQi3UEVhojsJL9PqD90RXwrnpdUhfeF92LuPDsvpodJafJ3S5sGU1CAAEEEChNAQKs0tTkXAgggAACURf49OsfZNb3P0f9Om66QKrXK9dcfI6kpKS4qVm0BYG4E/BkzpP0PzppvfxxV7f4rZBHF3EfLbaYOwUBBBBAAIHdCRBgcX8ggAACCCSUwMZNm+XZVydKTg7TCIvbce1PPkbatt6ruC/ndQggUAKBtDmXScqGz0twhuQ6NJBeT7L2nZlcjaa1CCCAAAIRCRBgRcTGQQgggAACZSkwe+4CeWvah2VZhYS59p7NGkvXM08Wj4c9CBOm06hoYgv4tkj6n53Ek70ssdsRg9oHdG/UrP10V9nUqjG4GpdAAAEEEEh0AQKsRO9B6o8AAggkqcBf/86Td2Z+Kj4/U3UKuwX2bbmHtD/paPHqFEIKAgjETsCTvUrSZvcXT+aC2F00wa4U8FaR7JavSyCjUYLVnOoigAACCJSVAAFWWclzXQQQQACBEgusXL1WJs34WNasW1/ic7npBDba6vQTjpT999mbkVdu6ljaklACnkCWpC4eLikr2V1v547zVztFspveK5JSPqH6lMoigAACCJStAAFW2fpzdQQQQACBMAXe/+xrOfW4I0JH+Xx++eG3v+STr74T+3Oylz10yuDpxx8pVSpXDFEsX7lGqlerLOlpacnOQ/sRiKqAd8Wr4qvRQafEVQtdx7PlV0mbO0Q8WUwpDKRWl5ym94i/yjHqs31acyBHUufdLDnNH4xq33ByBBBAAIHEFyDASvw+pAUIIIBAUgkMe/IlaVivjvTqeLqkpaWG2p6ZmSW//DlbPtYgy+8PJJWJNXav5k3kpGMOk+pVK+dr+8ezvpfvfvhNrhzYRzLS05POhQYjEEuB1EUPSMqaqZLT4jHxVzo436U9m3+TtAVDxbNtTiyrFBfXCqTVlZwmt4m/sv7ywbMjSPdkLZW0v/to4FdFslpPjou6UgkEEEAAgfgVIMCK376hZggggAACBQhYgGUlIz1NOrc/SZo1apDvVX5dE2v9xk0y89OvZe6Cxa42rFC+nBNa2ULt5TLyh1PbMjNl7FvTZeWadY7B1Rf1JcBy9d1A4+JBwAIs78qxWhWP+Gp20tDmdv1zSp6q6bLl2avFu2q8pCx/UWyaoWuLx6sG3cVX9wIJpNfZyUEzq0X3qdUb+vWABMo1J8By7Y1AwxBAAIHSEyDAKj1LzoQAAgggEAOBYIAVvFTd2jWd0Vjly2XscnWfzyebtmyVL775SX79a3YMahf9S9SuUU1OOvZwaaSj0PKOQAteORAIyLsff6Xt/VdHou2YUkmAFf2+4QoI7AiwtlvoGk85zR4QX9UTCsDRn0/fZvGunSHepU+KJyc3bE7o4kmXnHoXia92T83tKmmOt+sGEikbP5fUuTeJx7ch1FQCrITudSqPAAIIxEyAACtm1FwIAQQQQKA0BHYOsILnLK+jkc7t1mGXKXR5r2nhjq0H9cOvf8ofs+dKTk5OaVQpqudo3KCuHNSmley9R9Pd7iaYmZ0tb039QBYsLnidHQKsqHYTJ0fAEdglwAq56IishldJTp3zdyOlo7N868W7+m3xrNQRWlmL4l41kFZb/LW65X6k1tL6bl/XqoCap6x8VdIWP6IDrnZ93yXAivuupoIIIIBAXAgQYMVFN1AJBBBAAIHiChQWYOU9/uC2reXYww9yRih5U/JO3yn4KqvXrJc58xfKf/MXydKVq52RS7aOViCQ+zkaxXYKTEnRD0+KePRz5YoVpHmThrJH00bO56KKhXHZGsD98fdcef/zr3UBe99uDyHAKkqU7yNQcoHCA6wd5w5kNNOFzO8Sf/lWOkrJRo4WHvo4RwV84l03UzwbvpSUjd9oyLVRv6g/7/p150On4JV+0TrZ6ClnBJVXAjqSzNb0ClQ5WvzVTpaAt0oRl9Q6+bMkJXO+eOffLilbf9/t6wmwSr8HOSMCCCDgRgECLDf2Km1CAAEEXCxQnAArb/NrVK8qhx/QRlpoMFSuXLqkpe5Y+L04TAENsDZu3izrN+nHhk36sVE22OeN9rVNGnIV/vBYoVw5qVqlku4IWEmq6UeVqpWkaiX90D8XNP1vd/WxUG2bLlS/Zt0G+e6n3+TvOfOLU/3QawiwwuLixQhEJFCcACvfiVMq6DpRncVXq6sE0nSdKK9twlBEoLVTzTy+dbrD4VL9WCKSaZ917b/tf/f4NxfajoCnnEh6fV2fyj40NM+wzw1yP1Jrht9+3yadBrlWvGumSMqqN8KaEkmAFT43RyCAAALJKECAlYy9TpsRQACBBBYIN8DauanVq1aRtvvsJc0aN5CKFcqLhUypqbuu01KWRH4NxbZuy5StW7fJilVr5Le//9UF6ZfsNiwrqr4EWEUJ8X0ESi4QdoC10yUDOiLLX729+Gu000BLN6hIrV6M0U4lr3fYZ9geVnmyV0jK+vc1sJokHv/WsE8TPIAAK2I6DkQAAQSSSoAAK6m6m8YigAACiS9Q0gCrIIHKlSpKgzq1pH7d2lKndg0pl54uGRlp+qGf9c/hjtoqStmno6mysrIlU3cK3OZ8zpJ1OrJryfJVsnT5SlmlOwfmXYC9qPMV5/sEWMVR4jUIlEygpAFWQVe3kVKBCvtKoNJ+Ou1wHw22aueO1PLqIun6OeCtqIcVPVU6nJZ5NKASv37k6HRFC6t8qyVlyx/i2fybeLb8vn0aYzhn3P1rCbBKz5IzIYAAAm4WIMByc+/SNgQQQMCFAtEIsIpiSvV6pVrVyjodsLKU01DLAq10XV8rLS3N+bNNB3TW2/KmOMFUdnaOZOn6VNm6sHp2tk//rJ+zcmSDTjlcp9MPbWRVrAsBVqzFuV4yCkQjwCqOYyBNp/9lNNRwSxdS1/Wq8n7Y+lX294C3Qu4oKf0IfrY/h/6etUanHy7KnYIY40KAFWNwLocAAggkqAABVoJ2HNVGAAEEklWgLAIsN1gTYLmhF2lDvAuUVYAV7y5F1Y8Aqyghvo8AAgggYAIEWNwHCCCAAAIJJUCAFVl3EWBF5sZRCIQjQIAVjtaO1xJgRebGUQgggECyCRBgJVuP014EEEAgwQUIsCLrQAKsyNw4CoFwBAiwwtEiwIpMi6MQQACB5BUgwErevqflCCCAQEIKEGBF1m0EWJG5cRQC4QgQYIWjRYAVmRZHIYAAAskrQICVvH1PyxFAAIGEFCDAiqzbCLAic+MoBMIRIMAKR4sAKzItjkIAAQSSV4AAK3n7npYjgAACCSlAgBVZtxFgRebGUQiEI0CAFY4WAVZkWhyFAAIIJK8AAVby9j0tRwABBBJSgAArsm4jwIrMjaMQCEeAACscLQKsyLQ4CgEEEEheAQKs5O17Wo4AAggkpAABVmTdRoAVmRtHIRCOAAFWOFoEWJFpcRQCCCCQvAIEWMnb97QcAQQQSEgBAqzIuo0AKzI3jkIgHAECrHC0CLAi0+IoBBBAIHkFCLCSt+9pOQIIIJCQAgRYkXUbAVZkbhyFQDgCBFjhaBFgRabFUQgggEDyChBgJW/f03IEEEAgIQUIsCLrNgKsyNw4CoFwBAiwwtEiwIpMi6MQQACB5BUgwErevqflCCCAQEIKEGBF1m0EWJG5cRQC4QgQYIWjRYAVmRZHIYAAAskrQICVvH1PyxFAAIGEFCDAiqzbCLAic+MoBMIRIMAKR4sAKzItjkIAAQSSV4AAK3n7npYjgAACCSlAgBVZtxFgRebGUQiEI0CAFY4WAVZkWhyFAAIIJK8AAVby9j0tRwABBBJSgAArsm4jwIrMjaMQCEeAACscLQKsyLQ4CgEEEEheAQKs5O17Wo4AAggkpMBDI0eLz+dPyLqXZaUJsMpSn2sni0Dq4uHiXTE6WZpbau30l28l2a3Gl9r5OBECCCCAgDsFCLDc2a+0CgEEEHCtwEtvTJHlK1e7tn3RatiQQf0kLTU1WqfnvAggoALeVW9J6sI7sQhTwF+rp2Q3viXMo3g5AggggECyCRBgJVuP014EEEAgwQW+/el3+eiLbxO8FbGtflpaqlxz0Tni8Xhie2GuhkCSCXiyV0n676eKBHxJ1vKSNNcjWftOl0B6w5KchGMRQAABBJJAgAArCTqZJiKAAAJuEtiWmSVPvzxesrKz3dSsqLald+d20rRh/aheg5MjgECuQNq8GyVl7XQ4iikQKLenZLWeWMxX8zIEEEAAgWQWIMBK5t6n7QgggECCCixdvlJGvzk1QWsf22ofeXBbOf7Ig2N7Ua6GQDILBLIl/a/u4tn2XzIrFKvtAUmRrAO+E/GkFev1vAgBBBBAILkFCLCSu/9pPQIIIJCwAqtWr5WXx78jOT6m6hTWiacce5gc3HYfpg4m7F1OxRNWwJ8pabPPl5QtvyVsE6Jd8UBabcnaZ5pISrloX4rzI4AAAgi4RIAAyyUdSTMQQACBZBTIyfHJ2EnTZenyVcnY/ELb7PV6pX+Ps6R2zeq4IIBAmQkEJHXVm+JdeE+Z1SBeL+yrf6nk1LtYq8e6fPHaR9QLAQQQiEcBAqx47BXqhAACCCBQqMC4t2dIn05n5Pv+wqXLZfzkmZKdk5P0cocf1EZOPOrQfA7/LVgsDevVloz09KT3AQCBaAp4Fz0k/jr9dEHyenkuE5D0P7qIJ3NONC+dEOf2ZzSRnJavScBbeUd9/VmS9rfuQth6UkK0gUoigAACCJSdAAFW2dlzZQQQQACBCASGPfmSVChfTi7o2VEqVaqQP6iZv1imfvCZbN26TQIRnDtRD0lPS9Opgq13WevK5/PLWzM+lP/mLZKrL+pLgJWoHUy9E0YgddED4l05VrKb3iv+Gh203nlGGOnaWGlzLpWUTT/qLoVZCdOmEldU17fyV9hHcpoPl0BanXyn82z+WdL/0cCvXHNdyH1yiS/FCRBAAAEE3C1AgOXu/qV1CCCAgOsELMAKltNOOFIO2GdvSUlJ2aWdMz+ZJf/MXSCbt2yVQMB9cVa5jHSpU7OGnKTrXNWrXXOX9q9YtUbGTZohtmujFQIs1/0o0KA4FAgGWFY1f6WDNbR5VAKp1XapqXfNFPEue0E82Uv1hdvisCUlrJInXUeh1Refjkbz1eqx68l8GyVt7hBJ2fi18z0CrBJ6czgCCCCQJAIEWEnS0TQTAQQQcItA3gDL2lS5YgU585RjpUnDegUGWdnZOfL9z3/IH7P/k3UbNor9PRGLhXRVKleUJg3qyRG6s2CNalV2aYYFdWvWrpeZn30t8xfpg3GeQoCViL1OnRNNIG+AFay7r8Fg8dXsrkFWQWvS6T586z93Rm15tv4jnpw1FuckWrNzQyhtX6BcC51C2Vd8VU8puA0568S7ZqKkLhmhB+zYgIMAKyG7nEojgAACMRcgwIo5ORdEAAEEECiJwM4BVvBc6elpcvIxh8kezRpLpQrlC73E2nUb5N/5C2XBomVOoLVh42bJzIqv6Ty2CHuVShWdwKph3TrSollDXcOqTqG7CdraXwsWL5OPv/pebHfGggoBVknuOo5FoHgCBQVYwSP9NTpKTp1zJFB+b/1SwYuXe3ybxbNxlng2fC4p2+aIJ2uZjtJaGWehlkenAuqoz7T64tfAKlD1GPFXOVYCKfmndO8QC2g496+GdOPEu9rWufLvgkmAVbz7i1chgAACyS5AgJXsdwDtRwABBBJMoLAAK28zWjRtKG1a7SUN6taWalUqFdnCDZs2y7IVq2XFytWySkcwbd6yRbboOlr2YVPwojEFMUMDt/LlyjnreVWoUE6qV60idWvVkDo6HbBOMXYPzMrKlsXLVsg/cxbIz3/+I37/rg+FeRtOgFXkbcALECixwO4CrODJbR0oX+1eOsXwcAlUaKlZVlGbK/iddbM8W/4SzzYdpZVtoZYG1TlrdcSWfo7Gelq6bpUzYsxGVdmHLkofKLeX1reVrmfVRiSl8F8SOO3U0VWebbN1iuB3Gly9rkHcwt3aEmCV+NbjBAgggEBSCBBgJUU300gEEEDAPQLFCbDytraSTjHco2kjadq4/vZAK8/uV8VgsfBq67ZM2bJtmy4Or5811LJF4u3v2/Tru5vsYyFVBQ2pypXPkIrly28PrPTPOkLM4wlv+3gbJbZ0+SpZtHSFzNERZPbncAoBVjhavBaByASKE2DlO7OGV/7Kh+rH0Rpo7a+js1proJUa1sVt1Jb4LMxaJ2LBVvDPFnDtLtzaHlI5QZVX1+lKyw2rxKufvRXDqoO92LP1b0nZ/IuGVl9JyoZZOtBqS7HPQYBVbCpeiAACCCS1AAFWUnc/jUcAAQQSTyDcAGvnFlbUEU+NGtSVenVqSV0d7WQLoNsoqHgqOT6f2CLsy3VE2HL9vFhDq1Vr1upIsMhrSYAVuR1HIlBcgbADrJ1PrOGVv2JbCVTcT6fntdIRT/s4C5zHW7ERVZ4tf0qKjQrb8pt4Nv2w+7CsiAYQYMVbD1MfBBBAID4FCLDis1+oFQIIIIBAIQIlDbAKOq3t6FelciWpqh+Vde0pm3Zo609VrVLZ+VppB1xZupC8TVvcoGtwrdu4ST/rh/59/fY/b4rCzokEWPxIIRB9gRIHWAVVUUMt29EvkN5A157SqXz2Wf8uGQ1DXxOPtxQbp2tWOWtvLRHJXKJ/Xqof+tmmLurfRXdO9PgzS/F67EJYqpicDAEEEHCxAAGWizuXpiGAAAJuFIhGgFWUk+0AWD4jQ8qVS5fU1FTx6t9TvCnOZ+dDF123v6fotECfjp7y+fzi0zWp7LPfr3/f/mdbT2tbZmaZ7IRIgFVUL/N9BEouEJUAqxjVCnh1arS3qn7oQuo2NVA/nKmIzmf9SNn+OZCtaZHuxOq3z7kfHvu7TTX0b9V1tdaLx7ehGFcs3ZcwAqt0PTkbAggg4FYBAiy39iztQgABBFwqUBYBlhsoCbDc0Iu0Id4FyirAineXoupHgFWUEN9HAAEEEDABAizuAwQQQACBhBIgwIqsuwiwInPjKATCESDACkdrx2sJsCJz4ygEEEAg2QQIsJKtx2kvAgggkOACBFiRdSABVmRuHIVAOAIEWOFoEWBFpsVRCCCAQPIKEGAlb9/TcgQQQCAhBQiwIus2AqzI3DgKgXAECLDC0SLAikyLoxBAAIHkFSDASt6+p+UIIIBAQgoQYEXWbQRYkblxFALhCBBghaNFgBWZFkchgAACyStAgJW8fU/LEUAAgYQUIMCKrNsIsCJz4ygEwhEgwApHiwArMi2OQgABBJJXgAArefueliOAAAIJKUCAFVm3EWBF5sZRCIQjQIAVjhYBVmRaHIUAAggkrwABVvL2PS1HAAEEElKAACuybiPAisyNoxAIR4AAKxwtAqzItDgKAQQQSF4BAqzk7XtajgACCCSkAAFWZN1GgBWZG0chEI4AAVY4WgRYkWlxFAIIIJC8AgRYydv3tBwBBBBISAECrMi6jQArMjeOQiAcAQKscLQIsCLT4igEEEAgeQUIsJK372k5AgggkJACBFiRdRsBVmRuHIVAOAIEWOFoEWBFpsVRCCCAQPIKEGAlb9/TcgQQQCAhBQiwIus2AqzI3DgKgXAECLDC0SLAikyLoxBAAIHkFSDASt6+p+UIIIBAQgoQYEXWbQRYkblxFALhCBBghaNFgBWZFkchgAACyStAgJW8fU/LEUAAgYQUIMCKrNsIsCJz4ygEwhEgwApHiwArMi2OQgABBJJXgAArefueliOAAAIJKUCAFVm3EWBF5sZRCIQjQIAVjhYBVmRaHIUAAggkrwABVvL2PS1HAAEEElLg4WfGSE5OTkLWvSwrffVF50hGelpZVoFrI+B6Ae+SxyR1+Yuub2dpN9BfoY1ktxxX2qflfAgggAACLhMgwHJZh9IcBBBAwO0CYyZMk8XLVri9maXeviGD+klaamqpn5cTIoDADgHv6imSuuBWSMIU8NU5T3IaDgnzKF6OAAIIIJBsAgRYydbjtBcBBBBIcIHf/v5Xpr7/eYK3IrbVz8hIl6sH9o3tRbkaAsko4M+UjF+OFAkwSrT43e+RzP2/FUnJKP4hvBIBBBBAICkFCLCSsttpNAIIIJC4Aj6/X5586XXZujUzcRsR45pf3K+rVK9aJcZX5XIIJKdA6hyyVUoAACAASURBVKJh4l3JdLji9r6/4oGSvffo4r6c1yGAAAIIJLEAAVYSdz5NRwABBBJVYMPGTfLc2Im6FpYvUZsQs3qfefKxsl/rPWN2PS6EAAIiabMvlJRNOqqIsluBQGp1ydrvU5QQQAABBBAolgABVrGYeBECCCCAQLwJbN26TV4aP0U2bNwcb1WLi/qker3S6YwTZc9mjeOiPlQCgWQTSJ13k3jXTtdmB5Kt6cVqr7/SIZK9FwveFwuLFyGAAAIIOAIEWNwICCCAAAIJLTD9oy/lt79mi9/PQ2KwI2vXrC49zz5NKlWskNB9S+URSHQB74YvxDvvRvH4NiR6U0qv/ikVJafJUPFVb1965+RMCCCAAAJJIUCAlRTdTCMRQAABdwusWrNOZn4ySxYuXS6BQPIGWVUrV5JjDj9Q9mvFlEF33/G0LrEEApK68H7xrnlbxL8tsapemrXVRdp91c6QnMY36YLt5UvzzJwLAQQQQCBJBAiwkqSjaSYCCCCQDALLV66Rr3/4Rf6ZM19ssfdkKB6PRxrWqy0H7dda9tm7RTI0mTYikJgCAZ94lz2n0wrfEU/mosRsQwS1DqTVE3+N9uKre4EEvGwmEQEhhyCAAAIIbBcgwOJWQAABBBBwpcCvf86WvzXImrtwsfh87guz6tWpJXs1byJtWu4hVatUcmUf0igE3CqQsukHSVk7Q1LWfyqe7GWua2Ygtab4qx4v/upniL/y4a5rHw1CAAEEECgbAQKssnHnqggggAACMRLw+Xwyb9FSmTNvocyeu0A2btoSoyuX7mXS0tKkReMGsmfzxtKiaWOpWKFc6V6AsyGAQJkIeLb+Iym6VlbKug8lZcvvWofEDNwD5VuJv9opGlwdK/7yrcvEkosigAACCLhbgADL3f1L6xBAAAEEdhLYorsX2ppZq9auk8VLVjjrZm3YuCmunDIy0qRR3brSqGFdqaMLstesUU1sfSubLkhBAAH3CngCWSLb5opn238aZv0mnk0/bg+14mltvxQNqFpKoNJB4q/QRqT8HuIvp9OXPenu7RhahgACCCAQFwIEWHHRDVQCAQQQQKAsBTKzspyRWZu3bJX1GzbKitVrZe26DbJGP+zv/igsDF+pQgWpXq2K1KxeRWpUq6YhVVWxr1WqWF5HV7HAcVneD1wbgfgSCIgna6lONVwpkr1CUrbN1oBrvn7M07W05uuArdIfVRpIqSCBjCb60VSkXFMNrPaWQFodkbTauZ89afFFRG0QQAABBJJCgAArKbqZRiKAAAIIRCpg4x58OT7JzsmRHP3I1j/b5xz7rNMTA/q/wkpqildSU+0jVdK2f7Y/p6elRlodjkMAAQTyCwSynd0NPf7M3F0OA/qx/c+e3U5HTJFAik5F1t0BxWOfy+nf9c/2NQIq7jIEEEAAgTgUIMCKw06hSggggAACCCCAAAIIIIAAAggggAACOwQIsLgbEEAAAQQQQAABBBBAAAEEEEAAAQTiWoAAK667h8ohgAACCCCAAAIIIIAAAggggAACCBBgcQ8ggAACCCCAAAIIIIAAAggggAACCMS1AAFWXHcPlUMAAQQQQAABBBBAAAEEEEAAAQQQIMDiHkAAAQQQQAABBBBAAAEEEEAAAQQQiGsBAqy47h4qhwACCCCAAAIIIIAAAggggAACCCBAgMU9gAACCCCAAAIIIIAAAggggAACCCAQ1wIEWHHdPVQOAQQQQAABBBBAAAEEEEAAAQQQQIAAi3sAAQQQQAABBBBAAAEEEEAAAQQQQCCuBQiw4rp7qBwCCCCQX2Dzlq1y7S13yZ03Xyt1atd0vrl85Wq5476H5YkH75a0tNSEI7v+tnvlmCMPk7PPODXh6k6F8wt88sUsef2tKfL4sDslIyMdHgSiLnD5dUOlbp1acut1VzrXysnJkSuuv02OPeow6d2tU9SvXxYXmL9wsdz/yJNyy7WXS+OGDcqiCqVyzcHX3irn9OgsRxx2cKmcj5MggAACCLhfgADL/X1MCxFAwEUCa9etl/bd+skbLz8jTRrlPrgsXrpMLhx8nUx+7UVJT08rVmsXLloiV910h7w15rlivT6aLzq9S1/p2P40ufTC86J5maQ996tvTJSJU6bLm688K16vN6oO4yZMlhHPvCAfTnlDKlQoX+xrnX/pNdL5rDPKLMTs0vdC6dHlLOnVtWOx68wL40PgmNM7SYO69WT8K884FcrOzpFOfS6Q9qedJJcN7F+sSmZlZUuvCy6VLme300Cla7GOKcsX/f7nP3Lh5dfKC08+LPu02rtUq2I/C6OffVwqV6pYquct6GTHtesiV116obq3L/a1Ro0eJ9NnfiQTx44q9jGl+cLX9T3ug0+/kFEjHirN03IuBBBAAIFiChBgFROKlyGAAALxIFBQgBVJvWbP+U/6X3K1fDlzciSHl+oxBFilyrnLyUY886KMm/C2fP7uRElNje4IvUgDrDO6niN9dCRGv55lEx4cecrZcm7vbnLJgHOj2xmcvdQFdg6wIrnAtsxMOfHM7noPdpLLL7ogklPE9JhoBlj2szD9rTFSvWrVqLcpkgDrgUefkrenvSezPpgS9foVdIGRo0bL9Pc/knfeGF0m1+eiCCCAQLILEGAl+x1A+xFAIO4ENm/ZIh9/9pWIR+TYIw+XqlUqh+pYUIDlDwTkv7nzZc8WzfK1Ze6ChfLDT79K7Zo15eAD2kjFirm/UQ/o62d+9JncOewRGf3MY85ImYb16xXbwY7/9MuvZfmKVXLQ/m1krz2a5zt20eKleq0Kzm/wP9J2VChfzpkiGCxLli2TL2d9L7V1CuTxRx8h7TS8KGgE1hdffycLFi2WA9rss8sogxUrV2k7RGrVrC5ffvO95Oioi+OPOaJYI4xstMX8hYukRbMm8sffs+XX3/+SvVo0lUMPPnAXAxup9vPvfzjn32/fVrJH8x3GZt6gfl0pV65c6Di/3y9z9OuNGtSX8truFWqk1dR61pDvfvhJtm7bpn16WChI+umX3+W/+QvkmCMO1SmhtXa5/saNm+Szr77Wc3jkxGOOUtcdo5qC17J+X71mrZjXXvrnfVu3DJ1n46bN8vATz2h/fyovPfWI1Nf65r2frO1/zf5XmjRu6DhnZGQU+z6wF/p8PrFpg2vWrHP8P/j0ywJHYJnJ73/9Yzef7LdPK2mu9sFi06FsNEm7U07QEVinOfexx6M3vxbrq+9/+kXmL1ikU6XqyZGHHVJgH38x61tZvHiZ7N92H2m19567tMF+bj6f9Y2kelOdelasUCH0mn//myf9LrpC2p96khOi7dG8aVgGvDi6AvZ+M+vb/8miJUtlf71HW+61R74LFhRgzZu/UKpVqyLV8oQwdq9+Mes7Wbl6tXOevO9bdm9eOPhaOf3kEzRE7SJ77PReWlgLs7KyxN7vWug9Y++1s+fMlbZtWkvrlnvlO2TOf/pe0aCupOh9PfPjz6Wxvj8c0Hbf0GuWLV8pX337vVTS92h7T9x5+q29h8zS97l5+nNw0AH7iS/Ht8sILGtzvbp19P1ox8+w/dyU0/ehuju9t/zxl77v/fGnNG3cSA4/5MDQz9s/+ouN8y6+Sh5/4C6pU6umNGvaOFTHdes3OP1g7zsHax3sWuGWf/79T374+VcdPdxQf5YPluPP6LrLCKwtW7c6louWLNPX1ZfDDz1YvCkpzqXW6/vhfQ89ru+J38grOkqsbp3aUqVypVA1/p49x3mfyUhPL7SOs7UOv+j7Xu06NeWgtvup+Y73guCJrJ323t92P30/yXO/2b/Nw0c8K1998z8Z8dDdUluNqlWtEi4Dr0cAAQQQKIEAAVYJ8DgUAQQQKG2BsW9MkmdefEVy9GHLio2Yuah/X+nXK3dkSkEB1qrVa+XsnufJV3l+I33THfc7IZM9/FnxelPk6CMOkwfuvFnm6AP7OfrAHiwtmjWVsaNGFKspK/Vavc8fJLYWlxULGg5s20aeGn5v6Pg+Ay6TGtWrazj0j2zdus35+vVXXuJMERuuYcpb78wI1cuCDAvCup59RmgK4dq166XvwMFOW4NlTw3JxugDS7Bcft2tYg9Uq1evkbX62YoZFWca4jff/yhX3Xi7E4r9YaHK9tJQw50JY553/mZu3c+7WBbrQ1TeYg+Xw9TQStdzBjr988bLI0Mv+fnXP+TSa27SEQyvOkHR4Gtv0QfmNbJe67h+w0bndfZw9fSj98uVN9wmmzRgspKiD2j9+/aQgef1CZ3rjYnvyJPPveSs6WMlVaf/DR50gfTsfJbz942bNslpnfrIcVqnz7Svg+XgA9rKkw/f4/zVptu8MOb10Pfan3qiDL3hauecvS+4zAkFgiVd63VBv55yXu/u+dpc2F+WLV8h/S6+Ml8b7OHdQrngFEJz7Nj7Alm5anXoNHbPnGH1uP4q52tn9ewvq9QoWD6d/pYzFfbb//0k1956t04Jyw59z8LWV555XBo2yA1c7d7vrVO/Nm3OdbRSWR9oRz5yXyhsfOW1CfL8y2NDP1PpaWly05DLncDMio0CyQ4ap3p1pNqkYrWfF0VfwH7+LrhsiGzYmPuzY8VC5BefGh6aLr1zgOXz+cW+1r1TB7lm8EXOMf9osDToyhucADlYLHiwaWj2c3WcBil5y3uTxuULRgpr6Y8//yaX6c/4EYce5IQ7wXLoQfs7IVAwiD3hzG5y4rFHy8wPPxH7hYOV4ffeJkcdfojcP/xJmfreB04wZMXCqwfvulUOO/iA0Pny/ozYOdtoSP3rH3/lm0J4SsdecuWgAXJWnrUEbTSVBXUW9ljZti1TLhg8RObOWxA6d/16dWTMc084oe5Rp3YMvTfXqF5Npr35ivO6d2a8Lw8+PjL0XmRfq1+vrvPvRvk8AX5hTvb12+59SD745IvQ+a1e/2k9rrlsYGgK4bsffCL3PvxEvuvYL0LGvfCU80uAx0e+oGvs7Rg13E2nHg65YpBs0X9nup97kaxZuy5UBXtPtfezAf16h742QO8l+6VFsNi/iycdd4zcdcu1zpeWLlshA9Qn7789FuKNfX6E8x79wiuvySj9CBZbY+0KfU+mIIAAAgjEToAAK3bWXAkBBBDYrUCm/jb/hPbdnN+I33/7TTrqJuCMnnlP/6N+vK5fZKOkCg6w1miA1T8UYM3VET19BgyWR+673XmwsrBi0dLl+pvm8s5oLCt/6n/E26gXCwvsgai4ayMdr/WzMnX8y04Q8+0PP8t1GjIM1rVm+urIBSsWYM3V0QD2cNO4YUMNu7Y4v6W2h6cTO3TX4Ggv/e31Pc5ohJEvjJHxk97JFz7ZaBgbaWAPTzaSa6WOtuqs67Kc06OLXHZRf+cagzXA+t+PvzgPiQfqSAZ7MLUHsOK0Ixhg2eip0SMfcxa+n6xTUh59epRjZiMDnIcZDWgqV6rkPKBZX0ye+p48PEIDOF03rIH2xdjxEzVgelk+nvpmaNTDORderkFJjrz+Um6oZQ+3NprgMV3U3EarmUG3cy92HsitLT30IdunD672cL142XL5YHJu2LR8xUrpogFZ984dnGltNh7pYf3Nvz1IBq8XDLBsNMNLIx9xRhe9NWWaPKFTBh9/4E59AD7QeVi0h743Jk5xjrNgyB7EbETIeZdcJVPeeMmZKpSlIdFf//zrjIyqom0uTrn7wcectWhGjXhYH5KbOQGdtc1GpeRdA2vu/Pk6uqyOOmY4D+kTJk/XOr4gFhLYw6mNjOnQ4zzp2a2jnNO9c2h0mn3dRuDZaDbrVxuN1knvAws7B190vlNFCyJtOtXUN0eLBVPm++U338kpJxzrfN9GoFjA1a9XNxlwXm8J+ANyz0OPyYc6Umz6hDHOfWk/H8dqiNW3Z2cZdH6/qE+zLI4tr8kVOE8DUvu5sDX/bKTML7/94SzQbj879n5gZdcAy6df65wvwLpa1/tbrWHnC0897NxLdp98+OnnGvac5pxj0+YtcqoGQL26nu2sm1XcqbYWYF065GZndOZj99/p/GzZLyAsfH7uiQed0YZWLMDKzMyS9ye/5rxv2i8A7N6z0UiXDblFBpzbW87R908bWXXxVTeIjaZ6f8rrznvPJA38LTy6Z+j1zkjWbfpe1+v8S50AP+8aWBZgXXHxADm7/Y7NMHYOsJ55cYyMHvem8wuHNq1bafCzVQZecb28oOs5VdHAPfizkPu+UE0dvM7PrNW/45nt5KpLBjjtsZGdi5culX1b7Rjtubt71v69sSCyU4d2TuBj70sW4P/2x99ynQZQwTWwbCqnvd/X03DMRl1ZG+29f7D2twWSFv49oIvXT9H3QZsSnZLi1Y/c0Zr/zZsv9evWdQJACzFtpNSUGTOd9z37mr3H2Yivt3WtSBtdZqH1Ev13sUKFcvr33NGvl1x9k/Nv13j9pYT922Mj43r0HySDLjhX30O6OPV+6vmXxYK2t8e9kO/6/MwigAACCMRGgAArNs5cBQEEEChS4J13P5CH9EHl0+kTQr+5X6ejkM7QRduvvXyQdO3YvlgBlk2jsPWtHrjrFjnuqMMLvG6ka2DZA5FNnTjkwP1D5+0/6GonwHnmsWHO1yzAqlK5cujvwRcG1235dIaOsNGwwYqN0DrprB75Aix7yLj/jpuc0QnBcpEGPGYxfnTuQs0WYK3RaXP2m/lwSzDAGqG7Nh6iIyWCxcI1G91R2OK8Nu3QHhyf14c9GwFhDzMn6Lo5115+sTPqIbiOTnC0mZ3XAiwLXoIjIOxrN9roOJ12Z/1so56szNGHLwu/Zr5toU4lmfru+zoSYYQT8uSdImMPkrbbmgU0wQDr4XuHytGHH+qcxx5ITz6rpzPyxB74rBS0BtZvOoXm4qtvlMnjXpRatWqES+i8/pSzezmjRO67/cbQ8Xc9+KjMmPnxbhdxt1FvA3S61qvPPxEaJVXcNbAu0dFt1atVlftuy73moKtuFLvfP9CH/YLCSyeYfOp5+Xjam6GfKXsgt4Bj5KPDdCpZa+c8rIEV0S0Q1YNsWqwFmxZW9tWpncFyid63s3UUaTDsLU6AZSHTiuWrnIXeLWTauUS6BlYwwLJRmBYkW7H3hZM66Hta765ywTm9nK/Zz639jN572w35Lm2h9Ceff6XrKb0cuj8Xamjbo/8lzqYLFt6273auZGZp4KYbIwSLTaG7QXdvDTfAat+9nxNcPaj/NhRWdl4DyxbFP+6MLjrN+3S58ZrLIupz20jCgp+p40dLzRrVQ07Wd0MGX7zbRdz7XXyFtN23tQZdlzjHFXcNrI8++1JuuesBx9ZGb23QgN3WWxyvYWjj7Rug5G3MZg0xLQS099czTz859C0LsGya6Ffv5478Yg2siG4BDkIAAQRKTYAAq9QoORECCCBQMoFHn3pOpr33kfMwnrfYw7ZNj7v4/HOKFWDZsTaKydb2CRYb1XWvPvRX3L4zXCQBlo1ysgczCwPK5Vkr6fb7Hpa/dV2R11982rmcBVgt99pTbr/x6nztmPnxZ3LPg7p+iQZYecvJZ/fUUTXtnel/NkrBHvYKKjZ6zEYGWLEAyxaXCk6VC0c+GGBZqJR3HRwbgeHVKYHv6vQ/KzaiyB6AfvzlVx2FkDvtx8rzOrKizfaRFecNuspx/nLm27q+zrcy9J6HHJ9gsQArxZPihH7B8ujTz8t4HaGRd1F1GwnQtd9AmfL6y7quSg0Z88Zb8vTzBS8SfK6OJrrkwnNDAdarOr0l77pNdr/YqK3gQ39BAVamjnQ4rXNfZ7SUFQt/OrQ72QlKizP6xEZH7TzKxc4z+rU35RkdVZd3BNa69RtlyM135Ju6Y6+1aUvBddsKCrAsCBj/9lR5YfRrTluD5cRjjwqFZra2lo3SsVFsVixIvVJHiXTS0SJWnn3pVXl57PgCb4+bdRphcLoVAVY4P0Gxea2tQWThwTANs48/5sjQRW+6834NfWY5Uz1thFBxAqyvdP2o64beE5qmV0lH/t2uU2mDa/OVNMCyzTCCI4Gsop36DHACeAuzrdh7Wv8+PXWacP7puUNuuctZv+7lkY/mQ7WpfE8+fK8zatPuTZsWO1PD7GD55fc/5WIN9cMJsOxn5JjTOjlTuYP1KqgnC1rE3abO2VTk4JT0Zk0a6lTqW3UNrdzQrqjylL6XvarvaV+8Nylf0GwjH6/Oswuhhcv2HmJT6W3kbrDkrXNhAdZCDZluvuM++VffE/KWYIBlX2vX5Rx9X8+dcm4jj48+4hC5d+gNzi8SbDffbv1yp5wWVIKLxhNgFdXbfB8BBBCIrgABVnR9OTsCCCBQbIERz77o7K6U9zft9sBgDx3nn9NTLtT1kYozhTB4QVs/5kNdc+SHn3+RH3VtJht58L6O8LGAIpIAK/ibeJsGY4sNB8stdz/orKky7oUnnS9ZgGULad+mD4h5i/1G/I77h2uANTHf10/UUKx7pzOdACsYjNgDVuOGDfK9LkPDieCUHAuwbOKITUUMtwQDLFvAfu89W4QOt9++l88oJ+/o9EgbNXVa5z5OMGQjKWpWqy7LdFqfrc+SN8CyNVz6XjjYCaPO7H6eM83zxaeHh84ZaYD1mu4aaFMBH73/DmeNnrylhS44X6NatRIFWMHz/TP7P10rbZZOBf1JpxDO0ZEOrXR60X1FktqD5tF6X9qoQAu9guUlfch9TtfdCgZYwXvGFt7uq9MDbfSUTQ8d/uSzRQZYl18/VKeM/SkW2LVpvbfz4GvTPO2hOe+oL7u2rQFmo2E+04XaLQy8ZEA/3VWwu7yo9bEdGIfplNydS6uWe4buYwKsIrs85i+wUS+2Dp2NWjrpuKND17eRRzYCKRiGFCfAsoMtwPn48y/l51/+cBb0t7X3Hrr71txpeRHuQhgcgbXzDp+27ttxRx0hQy7PDUQswDq/r64v1yd/gHW9tsXWkss7QtPe8+1ny0a02sgjJ8DSUZk2OjNYbK29QToSbdcA6wKdQpg7LdJK3imEdl4LxizcveHqSwvtz8J2IbQRSrYZxE967W++/8EJ+CfpNLp6upB6UcWmir+iwdTOTse266wB1o41sGykra3ReK46tdqrhU4j9Mr9jz6p0+oPCoVuBQVYwfdhGxnc+ax2zjToH375TV569Y3QCKxgHZfov4szP/5U/138zXl/sRFhb736vL6/r5DOfS7UdbN6yYH77Vhg346zsOvgA9s6pyDAKqq3+T4CCCAQXQECrOj6cnYEEECg2AI2gseml9lv2m2xaivBh7jgtIYdAdaOKSu2AHbeNbDsQcUWgU/ToCpY3tedr2wRXVv3x0KEf+fM0zWQrtSRQzsWxC1ORe0B6MarLws9JFngZNNdGjes76zzZKWwACs4BW+SLpwc3MHKFvc+u9f5+aYQ2tS0nroWTd4Fze06eaeIlUaAZSGIjeaxYoGMjS6zKYUP3zPU2U3MprnlHS1mXztXR/vkDbDsWJsCeeqJx8mU6TOdXR3zhmKRBljB6S87jxLbomvnBO+N4BTCokZgPfnsSzL2zUn5Hh7tHrGPvNOpnrPRSro+zuc2SqKAaVY73x9n9eovzZs0kScevCv0LVsPzXZDDAZYdk/fqgHnJzpdMlhsHaOLdepf3hFY7bv2k17dOzphlZXgw3Z/DW4v1k0MgsUWYbadx4IBli3wnpqapg+YO2pni7Lbrorm8pGudXXrPQ/KZF33xnYMCxYbgZZ3x0V7aLc1bi69sH9xfgx4TQwEglO+zu2tIw51RGGw2PRo+54twG7FAqz6derKm2Oedf5e0OhAW/8oOG05eB4LiWyxdXvfCgZYvfUetHWkiluCAdYzNh1Vd6yzYtOiT+vc25n62LPL2c7XCguwbLTiW1Om63p/uobb9unEP+omCLYRRPB9sveFl8myZSvlo3fGh+7zae99qGu5PZ4vwDqz+7nO1OKrdVH0YNl5Dawe5w1yRnja6K4dO31mha5tx9kx0ya84oTkwWI/Z2nbp30HjW301EjdjMJ2dCyqvDl5mjyi0yXfHK3TIvXfCiu2jtbp+ksCm4Jta2AFp5NfpfUPblRhr7M17A7cf79QgPXgY0/LpKnvSnBElL1mnL6/2VqKb+uU6GB594OPdafdR/MFWDv/O/Kjhly2BplNa7e3EJtGbmurXXxBv9B5bF2wvKNSR456RabN/NCZDklBAAEEEIi9AAFW7M25IgIIIFCggI1WOeHMrs7Io7tvvd55jf3Huq33Yg/gtqud/Qe4PThcqIv+2m/abW2PnQOsmR995iySfdsNV+mDfCNn4eoHHnvK+W3zuxPHOgt52wO8rd90963XObvxNdBFc4tTbGqM7fz3pC4CXFN3GnxPfyNvO93ZeYILZxcWYNl0NVsEvm6dWs4uWzb9xxYYt93m8u4gaAsuf/3dDzpF5SbZe489ZPXatWLThs445cTQLoOlEWCVL19eHh92h7Nel7Xhg0+/cEaRNW/axBkVYYsHW1BiW8bbw9VjI0c5U5d2DrCC02PK6YLLH0/NP10t0gDLrtdBd5a0sPGOm4Y4fW+LrNsD2Qyd4miLnxc3wHpbH/Ye0PvIRqvt0byJnrOaPKuLOX/02VfONE8Ldmxh6KH3PuyM9hr15MPFuRXkaX2QG/P6BGe9rSN1q3ubznfzXcOcMDAYYFkA21OngdkD8x4tmjnTgh56bKTM+u5/+QIs29HRdj27QcPR4HRIu1da6A5gD+tubfbwbA+btrtm3imE9nBr65H10t3AzGqFLgB9/qXXOKOvbBSW7UrWqc8FOmqrsdw8ZLCzMPMPP/4qw5/SBfF1umY1PcaKPbS30AXs77rlunzTMYsFwYuiJnDzncPkcx1t9aCOlLL1oD7Un1GbFmoLmp98/DHOdS14ttFVL+tGBvazu3OAZe+r9p501BGH6jpOpzk/S7ZBw8DLrwutd2RThI9v31Va68jR66+61LkHggHP7hoXDLBs5KWNFLMQ6vFnRsk33/2Yb423wgIsm35sobiNePZ33AAAIABJREFUMLtQNxmw3fRuvP0+5+dxmv6ywX4J8d3/fpYrbhgq3Tqe6WzqYO/3V95wu7Pget4RWLYe3M8aDtvILfuZnmEbLOjUv7y7EE7UBeFtncXLdSF1Wx9xqS6Qf/3Qe2WMhr2Ntu/saT8LtiNq+1NPctaKstfYjqU2NdcCfps+/r5OBx+hwfhbumurbYZRVLHRwD3Pv0SnXrd01rKy9wjbYdR+XoOLuFt7rC9t2qTtlGq/sLCdHe964NF80x5ff2uK/rsxSp597AEnqLbF8D/RNQXtFzQWJNq/n+t1kwy7d+yXDsEphLbT42NPvyCP3nebbipRy6mDjei0NfTs31cr9v5qwZeNHrYdVW2U2Q233aP2HUKj56bpWpUPqOETuoGI7VBo16cggAACCMROgAArdtZcCQEEEChSwB5AbN0lWxfFik1vsNFXtptgsNi6KbO+/V6O1DVWht9zm7OYeQfbhXD7IrP2gGNT9Wyqhz3MWbH/YLeF0fdpuVfoPP11/SZbu8oe3MeOyp3+V1Sx81lAYA8GViwMs8XCg7vC2df66mLkttPgLddescvp7MHHto239bTsAfG0k453pqN0PPN03ekp97fedo3LdYqg1d9G4tjrbOrgE7rouu0mZcUe4GwRLNuFMNwSnEJo09+mTJvp7EZl1zhFH4jv0iDOioV+Fpp9qlPTnHZqgGKB4QQdSWC77u2rU9qCxR5+jz6to/P9m64ZnK86tmOandt2BQwWmyo67s23Q2v42NftIdF2Hcy7yLE9HN8xbLg+5K12DrURQ300qBnYv49zThvBcFqn3vLai09JsyaNQ+e3RfAH6YiV3rqrn+OpD2q9dJTcoiVLpd0pJ2hodY2zO99QXbtstvZ/sNg5Hrjr5tBi1EW52pSiK3SaX3BbegsCTzruqNxpsO+8IRU0ILT+sxEOFj7ltiFd2p18gkzW0Wp2z9m9Z8UWeX7u5bFiIz1sZ0y7r2znMtupzNpp7bWRbbbGVa0aNZwAw8o7Mz6Q50ePFRvJFyz2s2JTL4PF+tt2TAz+TFm9bNe3Pt07hV4zdvwk3RHzFWcUho1Ao8SHgO0OeM3Nd8qvuuaTFQt02usC2xYy2S6mVr74Wkeu3n6/s5uo7Tjn1x3ojtVFx3to2HPlJRc6r7HRObb7ngWawXLU4QfL8HvtfSS32G5/tuC/vR+8p0G/7cpXVLGfUQupL9L1CZ/X+9dCEauj7chqaxYGi/2yYKAGVH2375yY97z2s/Dkcy/JJr3PrVhQ95i+X1goFixD1OArDXOsWEjWWXfzs51Fbe0sm55rZemyFWKbHNgOplYsgLFd/lrqz82LTz/ifM3qZ9OgbSpgju54aD9Xxx99hPMLiOAoo+AOrxYo206w9jP56FOj5N0PP3aCfCvly5fTNb16aFBc8HqFBbmNef0tJ1ALrrtn08Yn6c6uFmAFpz1aYGXrCFrQHXzft40pDtApfUN0pJYVez/rpusF2g6BXXQ9r+t0urmtnWhtt/cMKzZK9fSTj9c+fTf0nmqbgNgIZ1s/LLiWl/27aCH+QTrCy4qNxLv2lrud3SGDr7H3+pGP2P2Vu/GIjf6zHVzt+vYee8Wg4o/YK8iFryGAAAIIhCdAgBWeF69GAAEEoi5gDxk2ckUneTlhQkEjAew/6p3/UNeH8cKKTTdbuHiJ8xti+w/1gs5jv+nPzMyWqlWLfljLex0LDGxkVHMNPfJOxSoOjo2I+G/+At2mPbdehZW1+rC5WIMdGx1mD1OlVYIB1thRI5zt0xfoYtENdfSBjczYudg27tbWFjoio7BpdTaKwNa8+UQXbw/Xoqg22UOUjV6wwM9Gl9iotUjLBl3XK10f8m2kWLDYCAMLz+rUrqnGubuDhVtstJqNeNijWdNCF4Bfs2adrFm31tl1sLCRLdZWC1/zTvXzaRgxf+FCDXJrFNg/wbou0Tas176yEM4erncu9jNlPwt27zVr0qjAetr1LeSyUY2U+BKw94IVq9boiJsGUj7P/RuspdN3+n5k4ebuii3UvVmDoqbO+1ZuGJ632H2yZu16vQeK97MQDLDslwfBnyUbAWQj/cIpNvpo/sLFTtvq16tT4M/IGg1glul93lxH/djo0cKK855fpYqz8HthxcJne52tXxUchZj3tVYfa09wx0D7nn3N3ittsXprY0G7fhbVZvt3y8LzunVr55uimPc4CxDtNVY3W2y/sGL1y9Awz0LtYLH3YrtGUx15XNj7zFarg1pXr15V6tYueP2utevXO4FgA+2LalVzR2nuXDboe56FWgXdj0U58H0EEEAAgcgFCLAit+NIBBBAwDUC3+iUvQ91kfXCii3afoVOO4n3YtNj7AGosHKeTi2zkUhX3Xi7jgAaoSOAmpaoSTbC4Y5hj+iosRxds+aFEp0rng6+b/iI3VbHRh1UCvMhPZ7aR10QKEqgqJ+Bywb2l/902qyNwAqOfi3qnG78/tOjRosF/YUVW4i+Q7tT3Nh02oQAAgggUAYCBFhlgM4lEUAAgXgTsAXWg9MCC6qbTVuxNVPivXys6zr5/LnTJgsqtmiz7bZXGgFWcCc++w3827obV3GmHMW7X7B+H3zy+W6reqzeCzb6gYKAWwWK+hk4RtfU+vPvf5M+wPpSN22wEaKFFRtBa+ssUhBAAAEEECgNAQKs0lDkHAgggAACCSNgC9jbVBhbgDfvTo2RNGDuvAU6/bC+s2YTBQEEkkvA1l6yEZ3BjQeSq/W0FgEEEEAAgdgLEGDF3pwrIoAAAggggAACCCCAAAIIIIAAAgiEIUCAFQYWL0UAAQQQQAABBBBAAAEEEEAAAQQQiL0AAVbszbkiAggggAACCCCAAAIIIIAAAggggEAYAgRYYWDxUgQQQAABBBBAAAEEEEAAAQQQQACB2AsQYMXenCsigAACCCCAAAIIIIAAAggggAACCIQhQIAVBhYvRQABBBBAAAEEEEAAAQQQQAABBBCIvQABVuzNuSICCCCAAAIIIIAAAggggAACCCCAQBgCBFhhYPFSBBBAAAEEEEAAAQQQQAABBBBAAIHYCxBgxd6cKyKAAAIIuFBgy9ZtsmnzFqlTq4YLW0eTEEAgkQV8fr8sW7HKeX9KS01N5KZQdwQQQACBJBYgwErizqfpCCCAAAKlI+Dz+WX4s6+I3x+QTu1OkFZ7Ni+dE3MWBBBAoIQCgUBA3v/sa/nh17+kaaP60qvj6eLxeEp4Vg5HAAEEEEAg9gIEWLE354oIIIAAAi4TeH7sRFm9dr3TqtRUr1zQq5PUqFbFZa2kOQggkIgCf86eK5Pf+yRU9aMO2V+OO+KgRGwKdUYAAQQQSHIBAqwkvwFoPgIIIIBAyQQ+/OJb+e6n30UCeh6P839StXIlGdi3ixNmURBAAIGyEli7fqM8O2ZC7uVz356c0vPs06R5k4ZlVS2uiwACCCCAQEQCBFgRsXEQAggggAACIv/8N18mzfhYbIrOzmWPZo2le4dTYEIAAQTKRMDn88mIF9+QbZmZebMrpy7paWkyoE8nJ2ynIIAAAgggkCgCBFiJ0lPUEwEEEEAgrgQ2b9kqI195U3JyfPpwGNCBDbuuKXP8kQfLkQe3jat6UxkEEEgOgTETpsriZSu1sXmGXjlNz/17rRrVpH+Psxkpmhy3A61EAAEEXCFAgOWKbqQRCCCAAAKxFLDHv2c0vFq/YdMuj4Z565GS4pEeZ50mzRo3iGX1uBYCCCS5wKezvpdZ//u1SIV99mouZ59+QpGv4wUIIIAAAgjEgwABVjz0AnVAAAEEEEgogbemfSiz5y7YbZ2DYx4y0tPl4n5dpUL5cgnVRiqLAAKJKbBs5Wp5+Y0pTuV3HnsVbFHer3fUAKu1BlkUBBBAAAEE4l2AACvee4j6IYAAAgjElYBf17t66OnRBa57VVhFTzn2cDlk/33iqh1UBgEE3Cnw1MtvyMZNW4rduFSvV4YM6icez67ToIt9El6IAAIIIIBADAQIsGKAzCUQQAABBNwlsGbtelmlH8EycfqH+RrYpf3Job+Xy0iXRvXrSEpKirsQaA0CCMSlQHZ2jsxduCRUt7Xr1svHX30f+nvrvVrkG3HVpGFdKZeREZdtoVIIIIAAAgjkFSDA4n5AAAEEEECghALDnnwp3xluHHx+Cc/I4QgggEDpCCxZvlJeeXNq6GTHHHagHHPYAaVzcs6CAAIIIIBADAUIsGKIzaUQQAABBNwpQIDlzn6lVQi4QYAAyw29SBsQQAABBEyAAIv7AAEEEEAAgRIKEGCVEJDDEUAgagIEWFGj5cQIIIAAAjEWIMCKMTiXQwABBBBwnwABlvv6lBYh4BYBAiy39CTtQAABBBAgwOIeQAABBBBAoIQCBFglBORwBBCImgABVtRoOTECCCCAQIwFCLBiDM7lEEAAAQTcJ0CA5b4+pUUIuEWAAMstPUk7EEAAAQQIsLgHEEAAAQQQKKEAAVYJATkcAQSiJkCAFTVaTowAAgggEGMBAqwYg3M5BBBAAAH3CRBgua9PaRECbhEgwHJLT9IOBBBAAAECLO4BBBBAAAEESihAgFVCQA5HAIGoCRBgRY2WEyOAAAIIxFiAACvG4FwOAQQQQMB9AgRY7utTWoSAWwQIsNzSk7QDAQQQQIAAi3sAAQQQQACBEgoQYJUQkMMRQCBqAgRYUaPlxAgggAACMRYgwIoxOJdDAAEEEHCfAAGW+/qUFiHgFgECLLf0JO1AAAEEECDA4h5AAAEEEECghAIEWCUE5HAEEIiaAAFW1Gg5MQIIIIBAjAUIsGIMzuUQQAABBNwnQIDlvj6lRQi4RYAAyy09STsQQAABBAiwuAcQQAABBBAooQABVgkBORwBBKImQIAVNVpOjAACCCAQYwECrBiDczkEEEAAAfcJEGC5r09pEQJuESDAcktP0g4EEEAAAQIs7gEEEEAAAQRKKECAVUJADkcAgagJEGBFjZYTI4AAAgjEWIAAK8bgXA4BBBBAwH0CBFju61NahIBbBAiw3NKTtAMBBBBAgACLewABBBBAAIESChBglRCQwxFAIGoCBFhRo+XECCCAAAIxFiDAijE4l0MAAQQQcJ8AAZb7+pQWIeAWAQIst/Qk7UAAAQQQIMDiHkAAAQQQQKCEAgRYJQTkcAQQiJoAAVbUaDkxAggggECMBQiwYgzO5RBAAAEE3CdAgOW+PqVFCLhFgADLLT1JOxBAAAEECLC4BxBAAAEEECihAAFWCQE5HAEEoiZAgBU1Wk6MAAIIIBBjAQKsGINzOQQQQAAB9wkQYLmvT2kRAm4RIMByS0/SDgQQQAABAizuAQQQQAABBEooQIBVQkAORwCBqAkQYEWNlhMjgAACCMRYgAArxuBcDgEEEEDAfQIEWO7rU1qEgFsECLDc0pO0AwEEEECAAIt7AAEEEEAAgRIKEGCVEJDDEUAgagIEWFGj5cQIIIAAAjEWIMCKMTiXQwABBBBwnwABlvv6lBYh4BYBAiy39CTtQAABBBAgwOIeQAABBBBAoIQCBFglBORwBBCImgABVtRoOTECCCCAQIwFCLBiDM7lEEAAAQTcJ0CA5b4+pUUIuEWAAMstPUk7EEAAAQQIsLgHEEAAAQQQKKEAAVYJATkcAQSiJkCAFTVaTowAAgggEGMBAqwYg3M5BBBAAAH3CRBgua9PaRECbhEgwHJLT9IOBBBAAAECLO4BBBBAAAEESihAgFVCQA5HAIGoCRBgRY2WEyOAAAIIxFiAACvG4FwOAQQQQMB9AgRY7utTWoSAWwQIsNzSk7QDAQQQQIAAi3sAAQQQQACBEgoQYJUQkMMRQCBqAgRYUaPlxAgggAACMRYgwIoxOJdDAAEEEHCfAAGW+/qUFiHgFgECLLf0JO1AAAEEECDA4h5AAAEEEECghAIEWCUE5HAEEIiaAAFW1Gg5MQIIIIBAjAUIsGIMzuUQQAABBNwnQIDlvj6lRQi4RYAAyy09STsQQAABBAiwuAcQQAABBBAooQABVgkBORwBBKImQIAVNVpOjAACCCAQYwECrBiDczkEEEAAAfcJEGC5r09pEQJuESDAcktP0g4EEEAAAQIs7gEEEEAAAQRKKECAVUJADkcAgagJEGBFjZYTI4AAAgjEWIAAK8bgXA4BBBBAwH0CBFju61NahIBbBAiw3NKTtAMBBBBAgACLewABBBBAAIESChBglRCQwxFAIGoCBFhRo+XECCCAAAIxFiDAijE4l0MAAQQQcJ8AAZb7+pQWIeAWAQIst/Qk7UAAAQQQIMDiHkAAAQQQQKCEAgRYJQTkcAQQiJoAAVbUaDkxAggggECMBQiwYgzO5RBAAAEE3CdAgOW+PqVFCLhFgADLLT1JOxBAAAEECLC4BxBAAAEEECihAAFWCQE5HAEEoiZAgBU1Wk6MAAIIIBBjAQKsGINzOQQQQAAB9wkQYLmvT2kRAm4RIMByS0/SDgQQQAABAizuAQQQQAABBEooQIBVQkAORwCBqAksXbFKRo9/J3T+4444SI46ZP+oXY8TI4AAAgggEC0BAqxoyXJeBBBAAIGkEXj4mTGSk5PjtNfj8cgNl/VPmrbTUAQQiG+BDZs2y9Mvjw9VsnendtK0Uf34rjS1QwABBBBAoAABAixuCwQQQAABBEoo8MW3P8kX3/7onKVypYpyWf8eJTwjhyOAAAKlJ7By9VqxqYQ1q1eVRvXrlt6JORMCCCCAAAIxFCDAiiE2l0IAAQQQcK/AvIVLJDs7x3k4LF8+w70NpWUIIIAAAggggAACCJSBAAFWGaBzSQQQQAABBBBAAAEEEEAAAQQQQACB4gsQYBXfilcigAACCCCAAAIIIIAAAggggAACCJSBAAFWGaBzSQQQQAABBBBAAAEEEEAAAQQQQACB4gsQYBXfilcigAACCCCAAAIIIIAAAggggAACCJSBAAFWGaBzSQQQQACBxBPw+/2SkpISs4oHAgGxj6KuGet6xQyACyGAQNgCx7brLE8Nv1/a7tsq7GN3d4DPZ+9/HvF4PMU+72sTJssTz7wgn82YKGlpqQUeZ+9xR53aUe68aYicdvLxxT43L0QAAQQQSE4BAqzk7HdajQACCCAQhsD8hYuk1/mXyiP33S5HHnZwGEdG/tJHn3pexk96R754d5J4U70Fnmj12nXSofu5MvyeoXLUEYdGfjGORAABVwhEI8DasHGTnN65j1x35SDpclb7Yjt98sUsee3Nt2Xko/cXGsQTYBWbkxcigAACCKgAARa3AQIIIIAAAkUIlEWA9c6M9+XTL76Wh+65tdBRDwRY3LoIIJBXIJ4CrOL0DAFWcZR4DQIIIIBAUIAAi3sBAQQQQACBOAywitMpBFjFUeI1CMRWYPOWrTJ95ody6onHybsffiL/+/FnadaksfTofJbUrlXTqYwFN5OnvSd77dlCsrKyZMbMj6RevTrOaypVrOh8//sff5H3PvpEXyxymp7rkIP2zzeSyUZGvfPu+/LLb39KSz1Pr24dnZFSwSmEdo4Jk6fLvq33ln1a7hVC+OzLr6V8+XJy6EEHhL62bt16mfreB/Kznqtxo/rSo9NZUq9uHfH5fDJOR1E9PWq0nHjc0XLwAftJ5w7tipzabCdesGix/PDTr9JJXx8sG7XOk6fP1Dr/IXu2aC79enWVk87qwRTC2N6iXA0BBBBIWAECrITtOiqOAAIIILA7gf/99ItMf/9jsQemww85UNqdcoJUrFAhdIhNzzuwbRtZumyF85BYr05tuaBfL+c1q9esldd1/ZZ/586T1nvvKUcfeZhcOPjaXaYQ/vrHXzJVHyDXrF4nBx3UVs4+4zQ9vnzoGm9PfU8a1K/rjKCa/v5HUrliBTm3d3epVbNGkZ1nD3i//fWP9OnWKfTalatWy+tvTZHZ/82VVnvtKR3PPE269buIKYRFavICBGIn8M+//8l5g66SmjWqO2s/1ahWzfmZtSDq/cmvS0ZGuhMMHXN6Z6mr7zu2jp29/8ydv1AeG3aHBk4t5dpb75Yvv/5Omjdt7FTcvneMvg89dPetzt8zNfTqfcGlYu8JLZo1lW3bMiUrO1tWrFylU/aGOWtg5eTkyLHtukh3DaOuGTwwBDBA38tq63vQsDtvdr62YeNG6dRngOgKVxoqNZOVq1fL6tVr5ZVnH3fqd8UNQ+XX3/+SRg3qS+3aNeXR+++QjPT0IkEtoHvw8ZHy5cy3ndf6tJ3dzhkoK7TOezRv6rRh9Zp1snnzZgKsIjV5AQIIIICACRBgcR8ggAACCLhO4JkXx8jocW9KM334q1alivyuQVBDDZJeefaJ0GLCp3fuK7Vq1ZCc7BwnZLJRDGNHjZAa+tB5asdezgiIfVrtLRs2bJK169eLjVDIuwbWGxOnyGNPj5JWGnDVqV1Lfvz5V30wzZC3x70gXm/umlUde1/gjFQIBPz6INpE/vrnX7l36PVy0AFtizS3EQ/jxk+SL7Y//OXk+KRdlz7OQ1+bfVppvTbqw+sa2bhpEwFWkZq8AIHYCQQDrP3b7CNPP3Kf8x6wZOky6aphc/dOHTRMuihfgPXGyyPzBUILdeRST11z77KB50nfHl2cir8+YYo88ewoGfPcCCf8+eCTz2XoPQ/JnTfr4ucn5S5+fsf9j8h7OuLr2ccfDCvAsrDsq2++l/cmjZPKlSo6gdoTz74ol190vvNeFukaWDsHWFY3q+O9t90oJx13lFPnex56XKa99yEBVuxuT66EAAIIJLQAAVZCdx+VRwABBBAoSODIU86WE449Uu6//Sbn2z/9+rtccvVNcvVlA50pOlYswLLRERNfHSXp6Wmh07z7wcdy94OPy4iH7paD9t/P+fpdwx6VGfr1vAHWqR17O9e45dornNesXbdO2nc71xnFNfC8Ps7XLMDaunWbTBo7Sirq6Ktwys4Blk3jGaEPlaOefFj21WBNB3PIXQ88Iu++/wkBVjiwvBaBKAsEA6yXnn7ECbiD5ejTOjkjmia++nwowOpw+slyy3VX5qvRyBdekVdemyCfTp+g7025I5226LTEk8/uKf16dpVLNdga8exLMnHKdPlo6vjQGnlbt22Tk8/qKc889kBYAVbnvhdKo4b1ZcSDdxcoU1oBVjCs+mTam07Yb8XCMnNhF8Io35ScHgEEEHCJAAGWSzqSZiCAAAII5ArMnb9A+gwYLJ+/N0lSt4+Esq936HGutGndKjRtxgKss9ufqqMc+ueju+L6ofLvf/Nk+oQxoa//plMFB15xfSjAWrxkmXQ79yJ59fkROvqq9vbXBaRL3wE6mquejH7mMedrFmBZ2HTf7TeG3T07B1gXX3Wjs26MTcexER1Wlq9Y6Uz9YRfCsHk5AIGoCQQDrHEvPBWaAmgXO6NrPycsn/zai6EAq2eXs+WqSy/MV5c7h2kw/cEn8vm7EyU1NdX5nk0PPP6MrjoV+kS5/car5b7hI+Sb7390zpW32LTEpx+5P6wA60zdyfS4ow+XG666rECT0gqwbrrzfvnk81ny1fuTQ6Ebi7hH7TbkxAgggIArBQiwXNmtNAoBBBBIXgGbCjPklrtk1gdT8iHYmjSVK1WSJx++x/m6BVj9+3SX3t13rDFlX7fwa5OuyTLl9ZdCx9v6M30GXBYKsGw9mIuuvL5AZFus+bUXn3K+ZwGWrb9185DLw+6QnQOs8y6+Uv6ZMzdfu2ytrg49ziPACluXAxCInkAwwHr1+Sd0ul+z0IWOb9/VWQ9rkk4zDq6B1UsDrCt3CrAeemKkjq6aIZ/NeEtHieaODt2WmSknntldupzVXq67cpA8POJZZxrhu2+9Gjq/hUHH6GimkTuNwOp81hly/ZWXhF53/qXXSF2d9hxcA+vsXueLTXe8+9brCkQprQBr6L0PyQcff54vmGMEVvTuQ86MAAIIuFGAAMuNvUqbEEAAgSQWCI6W2jnA6n7exdKkYUMZft9tjo4TYPXtIb1156685SIdabVk2XKZOn506Mt/z54j/S+5OhRgBUd52RShnRdkt2mJVXXdLSsWYB1xyEFy05DBYffIzgGWPXTaGlp5Ry/YAs728MkIrLB5OQCBqAkEA6wLdSrxAJ1SHCw2tfnwQw+Ux+6/c7cBlu0SeMPt94mtjdWkUUPn8LnzdGTphYPlnluvl5NPOEbefHuaPPLks/KajvKytf6sTH33A7n34SdCa2D5/QGdntfRWcvvBZ16bCUzM0unOvfTHQj3DwVY5wy83NnMYubb40Lr9y3V98D69eo6x2zatFlO7dTbWbvL1vAqbtl5DazROi3yGZ0eOWHMc7omYT3nNN/+7ye58obbmEJYXFRehwACCCS5AAFWkt8ANB8BBBBwm0BwZIPtumW7b1mxnblsql0fHW01WBcmtlJYgPXCK6/J6NfelGlvvuKM2LIyVhdTf/K5l0IBlo0aOLFDdznj1JPkxqt3TLuxQKl2rZoh0tIMsB596nmxnRM/nPKGVNi+06E9IA579CkCLLfdxLQnoQWCAZY1wt4j9mm5l0yYPE0W6OLsb7z8jDTW9aZ2NwLLRlK163qOZOsGE907nqnT7UTe0vWubN0oGxlqU4iX63taZ31Pq60bUXQ9u72s0tGYU6bNdDZ5CC7ibtd/VDeamPD2VGmv9Tig7b7Oef78e7Ycf/QRoQAruEZgm31aSucOZ8iPv/wu09/7QL9/ixx71GHOhhan6MYWVSpXkva6ZtcFfXtp0JU7jXl3ZecAy3aEPVNHjFatUlm6arts3cAJGsTZ+ylrYBWlyfcRQAABBEyAAIv7AAEEEEDAdQJd+w2UZTqi4MTjjtYt5pvIxHdmOLv1TXn9ZefhyUphAZZtKW/fq16tqtjUm4WLlsjHn30pObrtfd5F3K+xaYo6XbGtTr3p0O4UXdvlK/n6ux9kYP/cqYlWSjPA2qijIM7Qh1p7iLSHvwULF8n7Oh3HHi4ZgeW6W5gGJbBAMMB6/MEC9MkVAAAgAElEQVS75JY7H3CmJFu57YarNdA60fmzhTYnnNlNenXtJJdeeO4urV2vu4xeN/RusenKVixceujuoVKtau7oTivf6eilm+4cJpu3bJE0XSvrmccfkEG6Vt7zIx6Slnu2cF6Tk5Pj7Pz34adfOMGXjTr9/oefnSmEd+WZMvjlN9/JTXcM09AsW1I0MbtaR1t10/eZYPn+x5+1PvfKNl0o/qN3xkv58uWK7CHbXfDBx0c6i9EHyw8//SLX3nqP2ILzHr2OrRd4rk6PfvCuW52wjIIAAggggMDuBAiwuD8QQAABBFwn4NOHwwcfe1qmTJ/ptK1Rg/piD5MNtk+Jsa/ZwsUDzu2ta8qcsUv7f9IRCIOvu9UZJVGpYkW5d+j1cuWNt+vOhPfIIQe2dV5vD6DPvTzW2S3MQiTbbt7WkDnx2Nzt4a30OG+QHHbwAXLtFYPCNh41epyMe3Oy7jL2RujYn37+TQbrIvNWr3RdG+e5Jx50pjY+Nfze0I6JYV+IAxBAoFQFggHWay8+rVMAG0hWVraz46m9R4RbbPF2K/bzXlCx9yF7jX0/uLlDQa9zgikNsHZXB+dcWtfUVG9o8fi857L3OZ/P73y/JCV4nUhNSnJtjkUAAQQQSGwBAqzE7j9qjwACCCCwGwF7UNJnrmJNd9n5NPawZsfbQ5+NFCis+PV1gWK8rrQ6qrj1Kq3rcR4EEAhPIG+A1axJo/AOTpBXH9++225rOunVUVKjRrUEaQ3VRAABBBBIFAECrETpKeqJAAIIIOAagaNOzb9w/M4NmzHhValaNXeqIwUBBBJLwAKsCy4bImNHjZCmjd0ZYCVWj1BbBBBAAAG3CBBguaUnaQcCCCCAAAII/J+98wCPoure+LstvRNC7yAgqNhFsYFY0U/sXexdP3v57Pq39967gmJBLCBYUew0pfcOCWmkb/+fOyEhCSk7s7vZMu/lmWc2ya2/M3uZeefcc0mABEiABEiABEiABEggTglQwIpTw3JYJEACJEACJEACJEACJEACJEACJEACJBAvBChgxYslOQ4SIAESIAESIAESIAESaIFAWXklymQ31rTUFGRt242VsEiABEiABEgglghQwIola7GvJEACJEACUUtg7YbNcMuW9V07dURyUmLU9pMdIwESMB+B0rJyvPTOx/UDP+/U/6BTxxzzgeCISYAESIAEYpoABayYNh87TwIkQAIkEA0EZv41Dz//MVvrSnpaKq4Yd0o0dIt9IAESIAGNwMq1G/DR5Gn1NI44ZDh2HzqIdEiABEiABEggpghQwIopc7GzJEACJEAC0Ujg0Rffhtfr07pmsVhw8xXjorGb7BMJkIBJCaxYsx4Tv5heP/rRB+2HPXcdbFIaHDYJkAAJkECsEqCAFauWY79JgARIgASihsBDz73ZqC+3XHle1PSNHSEBEiABCli8BkiABEiABOKBAAWseLAix0ACJEACJBBRAhSwIoqfjZMACbRBgAIWLxESIAESIIF4IEABKx6syDGQAAmQAAlElAAFrIjiZ+MkQAIUsHgNkAAJkAAJmIAABSwTGJlDJAESIAESCC8BCljh5cvaSYAEgiNAD6zg+LE0CZAACZBAdBCggBUddmAvSIAESIAEYpgABawYNh67TgImIEABywRG5hBJgARIwAQEKGCZwMgcIgmQAAmQQHgJUMAKL1/WTgIkEBwBCljB8WNpEiABEiCB6CBAASs67MBekAAJkAAJxDABClgxbDx2nQRMQIAClgmMzCGSAAmQgAkIUMAygZE5RBIgARIggfASoIAVXr6snQRIIDgCFLCC48fSJEACJEAC0UGAAlZ02IG9IAESIAESiGECFLBi2HjsOgmYgAAFLBMYmUMkARIgARMQoIBlAiNziCRAAiRAAuElQAErvHxZOwmQQHAEKGAFx4+lSYAESIAEooMABazosAN7QQIkQAIkEMMEKGDFsPHYdRIwAQEKWCYwModIAiRAAiYgQAHLBEbmEEmABEiABMJLgAJWePmydhIggeAIUMAKjh9LkwAJkAAJRAcBCljRYQf2ggRIgARIIIYJUMCKYeOx6yRgAgIUsExgZA6RBEiABExAgAKWCYzMIZIACZAACYSXAAWs8PJl7SRAAsERoIAVHD+WJgESIAESiA4CFLCiww7sBQmQAAmQQAwToIAVw8Zj10nABAQoYJnAyBwiCZAACZiAAAUsExiZQyQBEiABEggvAQpY4eXL2kmABIIjQAErOH4sTQIkQAIkEB0EKGBFhx3YCxIgARIggRgmQAErho3HrpOACQhQwDKBkTlEEiABEjABAQpYJjAyh0gCJEACJBBeAhSwwsuXtZMACQRHgAJWcPxYmgRIgARIIDoIUMCKDjuwFyRAAiRAAjFMgAJWDBuPXScBExCggGUCI3OIJEACJGACAhSwTGBkDpEESIAESCC8BChghZcvaycBEgiOAAWs4PixNAmQAAmQQHQQoIAVHXZgL0iABEiABGKYAAWsGDYeu04CJiBAAcsERuYQSYAESMAEBChgmcDIHCIJkAAJkEB4CVDACi9f1k4CJBAcAQpYwfFjaRIgARIggeggQAErOuzAXpAACZAACcQwAQpYMWw8dp0ETECAApYJjMwhkgAJkIAJCFDAMoGROUQSIAESIIHwEqCAFV6+rJ0ESCA4AhSwguPH0iRAAiRAAtFBgAJWdNiBvSABEiABEohhAhSwYth47DoJmIAABSwTGJlDJAESIAETEKCAZQIjc4gkQAIkQALhJUABK7x8WTsJkEBwBChgBcePpUmABEiABKKDAAWs6LADe0ECJEACJBDDBChgxbDx2HUSMAEBClgmMDKHSAIkQAImIEABywRG5hBJgARIgATCS4ACVnj5snYSIIHgCFDACo4fS5MACZAACUQHAQpY0WEH9oIESIAESCCGCVDAimHjseskYAICFLBMYGQOkQRIgARMQIAClgmMzCGSAAmQAAmElwAFrPDyZe0kQALBEaCAFRw/liYBEiABEogOAhSwosMO7AUJkAAJkEAME6CAFcPGY9dJwAQEKGCZwMgcIgmQAAmYgAAFLBMYmUMkARIgARIILwEKWOHly9pJgASCI0ABKzh+LE0CJEACJBAdBChgRYcd2AsSIAESIIEYJkABK4aNx66TgAkIUMAygZE5RBIgARIwAQEKWCYwModIAiRAAiQQXgIUsMLLl7WTAAkER4ACVnD8WJoESIAESCA6CFDAig47sBckQAIkQAIxTIACVgwbj10nARMQoIBlAiNziCRAAiRgAgIUsExgZA6RBEiABEggvAQoYIWXL2snARIIjgAFrOD4sTQJkAAJkEB0EKCAFR12YC9IgARIgARimAAFrBg2HrtOAiYgQAHLBEbmEEmABEjABAQoYJnAyBwiCZAACZBAeAlQwAovX9ZOAiQQHAEKWMHxY2kSIAESIIHoIEABKzrswF6QAAmQAAnEMAEKWDFsPHadBExAgAKWCYzMIZIACZCACQhQwDKBkTlEEiABEiCB8BKggBVevqydBEggOAIUsILjx9IkQAIkQALRQYACVnTYgb0gARIgARKIYQIUsGLYeOw6CZiAAAUsExiZQyQBEiABExCggGUCI3OIJEACJEAC4SVAASu8fFk7CZBAcAQoYAXHj6VJgARIgASigwAFrOiwA3tBAiRAAiQQwwQoYMWw8dh1EjABAQpYJjAyh0gCJEACJiBAAcsERuYQSYAESIAEwkuAAlZ4+bJ2EiCB4AhQwAqOH0uTAAmQAAlEBwEKWNFhB/aCBEiABEgghglQwIph47HrJGACAhSwTGBkDpEESIAETECAApYJjMwhkgAJkAAJhJcABazw8mXtJEACwRGggBUcP5YmARIgARKIDgIUsKLDDuwFCZAACZBADBOggBXDxmPXScAEBChgmcDIHCIJkAAJmIAABSwTGJlDJAESIAESCC8BCljh5cvaSYAEgiNAASs4fixNAiRAAiQQHQQoYEWHHdgLEiABEiCBGCZAASuGjceuk4AJCFDAMoGROUQSIAESMAEBClgmMDKHSAIkQAIkEFoCZeUVKCgqqa/04y+/bdTASWMOq/85KTERXTvlwmq1hrYTrI0ESIAEWiDg9Xqxat3G+r9uLijCL3/Oqf952NCB6N+7R/3PPbp2RmKCgzxJgARIgARIIKoJUMCKavOwcyRAAiRAAtFGwO1244lX3off7w+4a4cfPBx77DIo4PzMSAIkQALBEHjsxXfgEREr0GS323DDpecEmp35SIAESIAESCAiBChgRQQ7GyUBEiABEohlAsrjavnqda0OQclbFjkSxKvhkrNORGpKciwPmX0nARKIIQIbN2/BOx9/qfW4bi5q2v2Gvz/x6FEY0LdnDI2QXSUBEiABEjAjAQpYZrQ6x0wCJEACJBAUAfXg99LbE7FVlhK29HCoGrBaLTj52MPRp0fXoNpjYRIgARLQS2D6jN8x659FbRYbOrAfxow+qM18zEACJEACJEACkSZAASvSFmD7JEACJEACMUmgsqoaL74zER6PV0Qsv3hbKX+rxumg/fbA/nvtFpPjY6dJgARim4Ba5vz2xC+xuaBQBtJUaq/9uWOHbIw75VjYbLbYHix7TwIkQAIkYAoCFLBMYWYOkgRIgARIIBwElq1ci0+nfN9sPKy+vbrjlGNHh6NZ1kkCJEACARFwudx4/q2P4HS5dsivgrZfdOYJSEtNCaguZiIBEiABEiCBSBOggBVpC7B9EiABEiCBmCZQv0xHBXXXnLAsyExPkwfDsbDb7TE9NnaeBEgg9gkUFBXjjfGf1w6kgSPWmSccBbX7IBMJkAAJkAAJxAoBClixYin2kwRIgARIIGoJvPrepygq3ar1T+3mdf5p/0FOVmbU9pcdIwESMBeBuQuWYOoPv9YPmsubzWV/jpYESIAE4oUABax4sSTHQQIkQAIkEDECXtmu/vGX34XP58dxhx+MnXfqG7G+sGESIAESaEpAxcP66tufMX/JCvST5c0njTkMFsuOcftIjgRIgARIgASimQAFrGi2DvtGAiRAAiQQMwQqKqtQVLIVvbp3iZk+s6MkQALmIaA2nFi3cTO6dclDgsNhnoFzpCRAAiRAAnFDgAJW3JiSAyEBEiABEiABEiABEiABEiABEiABEiCB+CRAASs+7cpRkQAJkAAJkAAJkAAJkAAJkAAJkAAJkEDcEKCAFTem5EBIgARIgARIgARIgARIgARIgARIgARIID4JUMCKT7tyVCRAAiRAAiRAAiRAAiRAAiRAAiRAAiQQNwQoYMWNKTkQEiABEiABEiABEiABEiABEiABEiABEohPAhSw4tOuHBUJkAAJkAAJkAAJkAAJkAAJkAAJkAAJxA0BClhxY0oOhARIgARIgARIgARIgARIgARIgARIgATikwAFrPi0qzYqn9Mvhw++GjnXqLMc6ndy9vtaHrjFboE1SY5EK2zJtWdrkjosUH9jIgESIAFTEfD74Xe54Xc65XDJPOrSzv4a+dnlAuTvLSWLwwFLYsK2I7H+bJXfwWY1FUYOlgRIIIwEvG7AXQO/x6md4ZHP7m2f/d5WbvpkHnIkyf1dknaGQ+apus82Rxg7zKpJgARIQB8Bdbfl9HpR7fOgRp29Hu2o+9zy3ZhMbVYrkm12JFttSFJnm037OUnOdgvvx/RZIrK5KWBFln9QrSsxypXvhmuLB+4C+QKvcqJmvQuujW7UbJCHLXdrX2NjTdvSrEjs5kBStwQkdk9AUu8EJHS01x6deaNjjCpLkQAJRJqAr7IK3sJieItK4d1SBNfaDfBsKoBnsxwFRYDcKIU6WTMzYO+SB4cc9q5y7tYFtg7Z9Ueo22N9JEACMUxA3jz6t26Gv2IL/OVyFK2Gv3QDfKUb5bxRRKuq0A9OhCxLVldYs7ppZ0uH3rCk58nREZaMToDVHvo2WSMJkICpCVR6PNhUU4n8mmpsdFZiWcVWrK0sx7qqCqyrroSnNS8Mg+SyRbjvmZKGXinp6JGahv6pmeiUmIzOSSnawRRdBChgRZc9WuyNr8qnCVRVK12oXFgjRzVq1qo3/9EzAIsNSBmYhLQhyXJORHLfRCT1FM8Dem1Fj5HYExIgAfi2lsMtApV7zXo4l6zQDu+W4qgiY0lKRMKAvkgc3A+O3j2Q0Ks77J3z5IGRXrBRZSh2hgTCQcAjHp7Fa+ArXAnf5iXwbVoIf8FyaSmKbvogXvm5fWHtujOsnQfCKp+VwAV7YjiIsE4SIIE4JLDV7cLSilIsK9+KuVsLMa+0UBOpoiklisfWLpk52D2rIwanZ2EnOZTQZbPwfixSdqKAFSnybbUr9yjl/1Rjy+elqFpcA6d4VcViUuJVUp8EZO6Rgg5HZyKplyybYSIBEiCBdiTgd4t7+ex/UfndTLhWrIa3uLQdWw9dU2opYkKfnkjaa1ekHjJc89RiIgESiAcCEt6hYAV8/34F74Z/NfGq1VgPUTtkEbVyeoioNQS2XcZowhZE6GIiARIgAUXAKyEXfi3ajIkbVmDB1mLxtAqD52g7oE4QUWuQCFkH5nbB8V37oFtyaju0yibqCFDAiqJrwe/1Y+uvlSj+vhxlf1bCW9lKoKoo6reeriR2cSBjXxGzjshE6mCJtcBEAiRAAmEg4He7UTnjD1TPnAXn/EWypNoThlYiW6VDvLKUmJU28gBZgijLeZhIgARih4Asg/Gt/xfexdPhW/Un/JWyVDnOkiU5C9Y++8A2aBSsPfcQLYtxZuLMxBwOCbRJwO3zYWr+WkzdvE4Tr5y+0IdkaLMTYc7QNzUDB4mYNbZbXwxIywxza6yeAlYUXAOufFnr+24RSmdUwFMWf1/qlhAn9UhAzuHp6HxGDiw2vqGLgkuRXSCBmCfgXrkGWyd+hZq//5FgxvEnWjVrIHFjT+jXC2lHHIJUEbO4zDDmL2MOIJ4JuKvh/uM9+Jb8AH9ZfjyPtNHYLGkdYNvpUNj3PRNIyjDNuDlQEjArgRWVW/HSyoX4oWADqiTQulnSQPHMOqlbP5zWoz+XGYbJ6BSwwgQ2kGo9pV6sfjQfZX9UyoNWNMU1CKT3octjTbai43EZ6H6pxHehjhU6sKyJBExEQMW0KnnhHTiXrmx1V8B4R2LLyULGyccg7chD432oHB8JxBgB2Xhn2mMiXH0vOwRKDFOzJtnZ0DbgIDgOv0F2YmVYCbNeBhx3/BJYW12Buxb8ib9KtsDXyi7N8UugdmQ5CYkY12sQLuwzON6H2u7jo4DV7shrG8z/sAQb3yiU7djNK1w1RW/PtqH/vd2QuguXFkbosmSzJBCTBIqfewuVP/4qwRXib9m1UYOoJYV591wPW26O0SpYjgRIIEQEfCt/g2vKA4ArNuO9hAhD42ocyUgYfR2sA0eGpXpWSgIk0P4EHl4yBx+sXQZ3GHYKbP/RhKbFbkmpeHnPg6GWGTKFhgAFrNBwDLgW5Wm16KI1sqOgid++tUZLwiPkjc1Cj6vEG4uJBEiABFoh4JXdBPOvvxfeohJyaoaAxW5Hzn8vQMoBe5MPCZBAhAi4Jt0uMa5+l9b5wrI5E1g6D0Li6c9HyDpslgRIIBQEyj1unPjbVKyPsh0EQzG2UNRhl1APNw3cHWf13CkU1Zm+DgpY7XgJqCDtc8csh6+aNzFtYc8emY6+d3ZpKxv/TgIkYFICHhGtNl92a1wGZw+1SbMvPUuLj8VEAiTQvgSc718Gf8HS9m00BluzpOUi8aIPY7Dn7DIJkECp24lDf5ocl8HZQ23dK/oNwRX9dgl1taarjwJWO5p8/hmr4NzobscWY7upHpd3RN4p3CY+tq3I3pNAGAh4vNhwwQ3wlZWHofL4rLLLs/fB3p0vBeLTuhxVNBJwf/MIvAu/icauRWWfrL32QsIJD0dl39gpEiCB5gl4JcbVYTMmI99ZTUQBEnhtz0Owf4fOAeZmtuYIUMBqp+vCW+7F3GNXtFNr8dGMCu4+bHI/WByM7B4fFuUoSCA0BCp//A3FT78emspMUos1Ix3d3npCNsrgfGoSk3OYESTgd9fA+eLxEpePLy0DNoPVhsTLP5d7vuSAizAjCZBAZAn8XVKAc/6SjSmYAiaQ6UjAL4eM5Q6FARPbMSMFrCDg6Sm66v7NKP62TE8R5hUCAx7phox9UsmCBEiABOoJFNz6IJyL+UJA7yXRfcILsCRy1y+93JifBPQS8M77HO7vn9FbzPT57fudA/vwc03PgQBIIFYIXDTrR8ws2hwr3Y2afk47cAy6J6dFTX9irSMUsNrJYvOOWwFPmbedWoufZnpd3wm5x2bGz4A4EhIggaAJrD/1cvhd3AhDL8hu7z8Lawq9G/RyY34S0EvA8+2T8Pz7pd5ips9v67UnHCc8YnoOBEACsUJgr+8+RpXXEyvdjZp+fjr8CAxKZ5gcowahgGWUnM5yy27YgLK/K3WWYvZ+93VF1oFUqHklkAAJbCew+Zq74F67gUh0Eug+/nlYkhJ1lmJ2EiABvQQ8f42H55fX9BYzfX77sLGwH3ql6TkQAAnECoFTfp+G+WXFsdLdqOnn1yOOQe+U9KjpT6x1hAJWO1msfHY1ll63rp1ai49mLDZg6IS+SOhoj48BcRQkQAIhIbD1g0kom0jvBj0wLQ4HlIAFm1VPMeYlARIwQMBftAbOdy8AJMAxU4AEJD5fwhkvwJrHbeYDJMZsJBBxAuPXLcd9i/6OeD9iqQMJVitmSgysVLsjlrodVX2lgNWO5pg7Zjm8Fb52bDG2m8o9JhO9buwU24Ng70mABEJOwFtUgk1X/A9+J5cRBgo35+rzkXro/oFmZz4SIIEgCbgmXgff+nlB1mKe4pacXkg89w3zDJgjJYE4IFDmcWHkT5O5jFCHLa/faTdc0HuwjhLM2pQABax2vCbchR78c9LKdmwxdptK6pOAwS/1gjWRO2bFrhXZcxIIH4Hqv+ah8IFnw9dAHNWcvO/uyL3pMkDe+jGRAAm0DwG/qwquN8+Bv6qkfRqM5VbsiUi8+CPZZIIhI2LZjOy7OQnMKS3EmX9+a87B6xz1vjl5eHWPQ2Dn/ZhOco2zU8AKCp/+wtUrnFh85Vr4qulW3hK91CFJ6P9gN9gzZA0hEwmQAAm0QKD699kofPwVwMMAoi1dJCnidZVz2TmyNT2XYvOLRALtTcBfUQTnhKuA8vz2bjpm2rMkZyDhzJdgSafHfcwYjR0lgSYEfpOdCC+f8zOcPm5Y1tLFMapjdzyy635ItvF+LNgvEAWsYAkaKO8p9WL1g5ux9Q8GdW+ET5ytupzVAV3GdYCKf8VEAiRAAm0RcK/biKKHX4R7w6a2sprr7zabCFdnI3XkAYDElmEiARKIEAFZYuOZ8RI88z6PUAeit1nb4NFwjL5eYvMxFkz0Wok9I4HACKyvrsR182YyqHsTXFa5B7t54O44s8cAqM9MwROggBU8w4BqWHz5Wgx6oWd9Xr+Ewtr6awVWP7IZ3jLGxVJLBvve2QXJfbbvkOUq8KByQTWyD+UuDQFdZMxEAiYhUPLye8i+5Kzt86l4YFVOm4HStz6C301vrKS9hyHnkjNh67B9i2bXijVwdOvMXQhN8h3hMCNLwPPb27DtcWKjJXG+/MVwT74b/ootke1cNLSekoOEY26Htftu23vjccL9/TNwHH5jNPSQfSABEgiAwH9FsHpqN3lRti155AH3i01rcP+iWaj28n5sH1kyeP+QfdE9ObWe0fKKrZqQ1Tc1IwDCzNIcAQpY7XRdzB61DI4ONuz8ai/YMre7F/ldfpT+Xom1T+bDU2I+t8uUnRLR+38iXPVKaGSJ4u/KseaxfHS7KBd5J2S1k5XYDAmQQCwQWDf2QiQM6Iu8e69vJMj4q6pR8f2vKH3zQ8BnvhcDKtZV1vmnwZ7XoZEZlbBX/sW36Pbu07CmJMeCidlHEohpAu6pD8G76g8kjn0Qls6Dto9FdiXUhKxvHoG/eG1Mj9FQ5zM6I0EEKmu3XSQmX4N74WLZtfGja2HN7o6EU58xVDULkQAJtD+BnadNwE5pWXhvn1FIa7CrXpWIV19vXosHF882pZA1vEMn3DV4b/RMaRzX75VVC/H8ivn4YJ/DMCQjp/0NFictUsBqJ0MqAcvv9cvSOAu6iijT+bTtb8ZVF5RHlqfYgw1vFqFoylZ5+GqnjkWgGYsEZu92QS46HJmxQ5wrnwh6y2/dgPJZVVrPelydRwErAjZikyQQzQSUgKWSJSkRuTdfgaRhOzfqrt/rha+4FEXiqeWc9W80DyXovlkz05F9welI2nOXHcQpX3klCm59UJZXbtba6fb+sxSwgibOCkigbQKagLVourZ81zrkKCQcdl2Tpbx+Ce6+Fd65k+D5ewLgdbddaazmsNph230s7HudCkuyvJBssoTG/Y2wWqgCQPth7TqEAlas2pn9NiUBJWCplCRhC+4fui+O7rR9tZH6vVdE+y3Oajy0ZA6m5a+La0apEtvqlkF7YHRed2Q4GjtmVHjcGPf391hYVrupx8T9DqeAFcTVQAErCHh6itYJWHVlHB3sGPBIdyT3a3yBq78roctX48fmCSXY/G6RnmaiNq8j145ul3ZE9ohU2VlQdsJqZgnw5gnF2Ph6kSwB2h7gngJW1JqUHSOBiBGoE7Dq59Ne3cUb6wZYM3bcwUoTs7aWY+sHk1D53S8R63MoG7b36oqcC85AwsB+sCQ0EztGbhiLn3sLlT/+1sgTjQJWKK3AukigZQL1AlZdFtllL+G4e2HttdeOheT7Ck8NPAunwTPzTcBZHvtoHUmwDz8X9l3GAPIZlh13QPWt+BmuKQ8B7pr68VLAin3TcwTmIlAnYNWNundKOl7b61B0TUrZAYRH5roKiQn43HLxQFq3LC5A9ZLx3iyi1X7ZeZqI1zSpJ9qHF8/B++uWamJeXaKAFZz5KWAFxy/g0k0FrLqCVvFG6t6dRPkAACAASURBVHtXV2TuJ2tjW9nh3J3vQcHkUhSKd5ZXgsBr34Fo3MhQhCn1ci2pbwLyjs1Gzuh0eePf8sD8Pr/EActH8dSyZllSwAr4EmNGEjANgaYCVt3ALelp6PzgLbB3ld2sWgmU6V65FuXf/Iiqn/+E3+msnUsb3FhEDUg1BjkSh+yE9MMPRvLwPSTYccs7XPgqq7DlgefgWri02SFQwIoay7IjcU5gBwGrfpKywHHgJVp8rOZEnXos1WXwLpgC9z9fAGVqB0OZpKJxjlJvI9U8ldERjqFjYBt6NJDSStgHWW7g/ms8vL++Vbv0oEmigBXnXwwOL+4INBWw6gaYLssJlZA1NCNbZomWA5evqCjDhPXL8OXGNSgXT1S/zHNR+nirxa3aNbMDTu3eH0d07oHEBsugmxpWLaFUAe1nFDa/wRAFrOC+ChSwguMXcOmWBKyGFSgRq/sVHZGQ5xAvpbZ3KXAXe7VA8GV/VaJifg18Th/8HvniS8w85cUVlhlAOU/JMkiLXR3QlgCm7ZGCrL1TkXXQjt4POwCS+xVvjQ8Vs6ux6iEJYF/RetwvClgBX2LMSAKmIdCSgNUQQNpRI5F52nGyZCURFkfbO1ypZXY1s/5BzdyFcK1YLR4R8qJAvLf8coacw5KsVplPRZCy27SzrUMWEocNQcqwoXJuvCyy2fYlzpevugZVM/5E6RsfSl9bX4ZEASssVmSlJLADgRYFrAY5rbl94Bh1LSwd+8ocoLyU2rjvk4c737IZ8KyZBf/6uSK+y07WPrnhU9vWq3M4BC7VJ1kCqMWrkrMlIRmWbrvCLp5k1v4jgIQdvSwaw5B7UfGw8heuhmv64/AXrWr1aqGAxS8TCcQWgZYErIajOL5Lb1y7027asrrWRJ+6Mmo3w58KN2Dmls34p6wILrnXUcHhPeL04JVzOAQuJU7ZxVPUrs5yb5brSMT+uV0wokMXHNSxS5tG8cn8Wymi1XcF63HPgr/h9Ld+30gBq02krWaggBUcv4BLByJgNazMnm1Dp7FZyB4lcaIk6LstrRX3rBZ64SnywCk7+bny3XDK4d6sfnbLz55Gy/SaFrelWpHQ2a4JaQmdHEjsLOc89bPEMUhv+e1/c91QL9i8ZV44N7tR+MVWFE0vgwpcH2iigBUoKeYjAfMQCETAajSfikdWxrGjkbjHUNhkmaElSR4W9SS5efIWlcJTWATvlmK4CwrhKyyGRz57t8gy71YeHNWyRnvHDrDm5khw9Vz5nAOb/OyQnyExvPQkJab5yivgEbGt7MvpqPljrp7ijIGlixYzk4BxAoEIWI1qFyHILrGybEOOBNJzZfdC2X25LUGrafeqt8JfXiBHPnxlBZrnlk8++9Vnd3XLgxHxzJKRB2u6eK5mdNr2OQ8W9XNr3lQt1OivkSWQlTI3LvwG3n+/EqGtImCQFLACRsWMJBAVBAIRsBp2tIvsxnduz4EYmdcN2SJopTYI/B7IgJSHVr6zBptqKuWowsbqCmyU86ZqOeR3apliSylL2uualIousrxR9aNrihyJ8ll+1tsPJaiVul1YW1WB99cuxVQJWB/40y1jYAVi69byUMAKlmCA5fUKWE2rtWWIGnxUJrL2T5UHHweUwGVrZWlegN0KbTYVxkHEKneJCGXr3Sj5vhwlP5eLWGa8GQpYxtmxJAnEKwG9AtYO82nnjkgbeQCSdh0su15lys6wGfLAuGM8wojy84poVlYu8bvK4Fq9XrysfkfNvIXiaaHnFqnxCOiBFVGLsnETEdAtYDVlIzGzbINGwjbwYFjSlJAky3CSRNSKtiTilL+qBP6KLfAtFe+whRK4XuJ5GU0UsIySYzkSiAwBvQJW0152EQHp+G59MEK8nTomJqFDQhKSJRh6NCXlXVXidqJIhLPllWX4atMaWRq4sVFMK739pQeWXmKN81PACo5fwKWDFbCaa8gmy/dSBybKIV/2/hIwU4la4qllT6s9K0+qUCblDemt9MqyP3mwKvfCI2e3eHRVLnWicnENqpc5tSWMoUwUsEJJk3WRQHwQCFbAanY+7ZCNhH69kdC/FxwSFN6aLhtOpKbUH2rHw1Am5U3ll5hVvspK+CrUuQqezVvgWrkGrmWr4V6/USbc0G5HSwErlBZkXSTQMoGgBazmqhZPKWunnWDtPBDWjv2BtA5AovIoTRcBXkI4JEgsVb1eW60ZUXkyuCo1Dyp/jXhRqXOlbLSzZTl8m5fAVyBBmF21O0aHKlHAChVJ1kMC7UMgWAGruV7miog1NCMHQzJzMCg9G8pzSsXUUksQ1ZESYoFLeVOVu90okwDzZeJVVSbhGDbIMsYFZcWYv7UYSytKgxKrmhsjBazgrk8KWMHxC7h0OASsNhuX0AWJXWX5nywBVLGqrEkiaiXJls7aoX7e9ll2BfRViyglh8+pdkCs/exXn+XskqWILlkC6C4KUxyYVgZCAatNKzMDCZiOQDgErLYgqjha9k65sOXJckAlbInHliVR4muJsKW8t9Shfge5yfJLXCqfBIf3O11akHh/Te3ZV+OEVy09LCjSlgK2d6KA1d7E2Z5ZCYRFwAoApiU9D8jsDIvy2FJxtSSOi0XtAmiX2FXyWf0MR3Ltzn8qNpXylhLPAr9aYuiRDS3U7yrFo0pbeqiCx7dvooDVvrzZGgkESyAcAlZbfVKxqnqoJYByKEFLeWzVHrZGZxVvq0LEqGqJY1otcQJrJEZVlbw8rJazOvJl6eEGWXZY7JK5r50TBazggFPACo5fwKUjImAF3LvozUgBK3ptw56RQKQIRELAitRYQ9kuBaxQ0mRdJNAygUgJWLFuEwpYsW5B9t9sBCIhYMUDYwpYwVmRAlZw/AIuTQErYFSNMlLAMsaNpUggnglQwDJmXQpYxrixFAnoJUABSy+x2vwUsIxxYykSiBQBCljGyFPAMsatrhQFrOD4BVyaAlbAqChgGUPFUiRgGgIUsIyZmgKWMW4sRQJ6CVDA0kuMApYxYixFApElQAHLGH8KWMa4UcAKjpvu0hSwdCPTCtADyxg3liKBeCZAAcuYdSlgGePGUiSglwAFLL3EKGAZI8ZSJBBZAhSwjPGngGWMGwWs4LjpLk0BSzcyCljGkLEUCcQ9AQpYxkxMAcsYN5YiAb0EKGDpJUYByxgxliKByBKggGWMPwUsY9woYAXHTXdpCli6kVHAMoaMpUgg7glQwDJmYgpYxrixFAnoJUABSy8xCljGiLEUCUSWAAUsY/wpYBnjRgErOG66S1PA0o2MApYxZCxFAnFPgAKWMRNTwDLGjaVIQC8BClh6iVHAMkaMpUggsgQoYBnjTwHLGDcKWMFx012aApZuZBSwjCFjKRKIewIUsIyZmAKWMW4sRQJ6CVDA0kuMApYxYixFApElQAHLGH8KWMa4UcAKjpvu0hSwdCOjgGUMGUuRQNwToIBlzMQUsIxxYykS0EuAApZeYhSwjBFjKRKILAEKWMb4U8Ayxo0CVnDcdJemgKUbWdgErJl/zcNfc+fjmgvPgMViMdYxlgoZAafLhdffmYDDRx6E/n17h6ze1ipatmIVfpjxKy4a1/o18MJr7+DYo0ajR7cu7dKveGpkwZIV+On3WTjrxGOQkZYa0qFRwDKGM9QCltfnwxfTfkJFZRXOFDtzNtVnlxWrVmPGzD9x3lmn6CtoMLff78drb49H9+5dcNRhh7ZYy/yFSzDj1z9w2QVnx/X/kYrH829+hBH7DsOwIQMNUm2+GAUsYzitXYcg4dRnjBVuodSiZaswWeapqy84DclJSSGt24yVffTpl8jNzcHIg/bXhq++Ry++/i4O2Hcv7LbLzu2ChHOZPswr1qzH1B9+xSnHjUbHnGx9hdvITQHLGE4KWMa41ZWylFZU+4OrgqUDIUABKxBKO+bpcXUe8k7IMla4SSmPx4u3PpyMwpJS7S8Xn3UicrIyQlI3KzFOoFjscczJ5+Cmay7D2GOPMl6RjpKTv56Gx559Cd9N/ggOh73FksMPOw533HQNjj58lI7amVUReP/Tr7FuY74G45RjR6Nvr+4hA0MByxjKUApYSrR666MvNPFKJfVCIDkp0VjHTFrqo0lf4tU338f0z8e3CwGv14dDx5yMYbsMwTOP3Ntim6+8/QHefHcCZk6bBKvV2i59i0Qj+YVFeHPCZK3pvj2748RjRsJms4WkKxSwjGEMpYClBPYp383E/CXLtc6cLP8P9Qvh/0PGRhj7pU4773J06ZyHJx+8WxuM1+vFiCPG4sxTTsCVF49rlwFyLtOHWQm4C5eu1AqNOexADBnYL2QvJyhg6bNFXW4KWMa41ZWigBUcv4BLU8AKGFWjjKESsEq2luON8Z/BLSJWXaKAZcwmoS4VCQEr0DFQwAqU1I75GgpY6q977TYYo0bsG5KbJgpYxuwSKgFr7YbNGD9pirx5394PClj6bdLeAlagPTSjgKXYZGak4WzxJExLTQkUVYv5KGAZQxgqAauqugYTPv8GBYXF9R2hgGXMJk1LRYOAFehIzDKXtcWjoYCl8u4yqD+OGnlASF5QUMBqi37zf6eAZYxbXSkKWMHxC7g0BayAUTXKGAoBa+nKNZg09Uf45G2cSn75Z5F/FLCM2aSu1IZNm1EtN4l5HTsgIz29UWUVlZVw2B2w2+3YsGkTEhIS0DmvY32eouISFJWUICsjQ8vTkgfWpvwCVImHh3JXz5S8DVNVVbX2Y5J4fah8avlSl86dAhJIPB4P1A1uRnpaozqVmKb6psbTKS8XFLCMXyP1ApYSObatLeuQnYmzTxqDpMQE4xVLSQpYxvAFK2CpZRt/zl2AH2b+tUMHzCJgVcq8k1+wRfPc7N61S6P5Rv0fU15egczMDFTKvJW/pRBdOuUhOXn7sqV16zfC5XajR/eumPTVN816YNXUOLU5zWazoluXzjt4BW3dWqa1ofJt3JyPjjI/pqc1nstaukLKKyq0ObfhUiqf2HXDxk1wudwyps54e8In5vLAajBHKbuePGY0enbrbOxLtq0UBSxj+EIhYG3M34IPJ0+D0+lqdM9HAavWJlvLylBYVIKUlGTk5XbYYX5R87x27yVzXUf5e2ZG4/s7PQJWa3OZ+tqVlZVr9at7xoICmS/lHq7hfNnaVcS5LPDvWL2A1WCuy0hPxXmnHBcw75Zao4AVuB0a5qSAZYxbXSkKWMHxC7g0BayAUTXKGIyApW7K1YPWX/LApVKdcCUftAfqg4fviVT5D5ypeQIqPlhudpY8gOU2ylBSuhVX33g7lq9ao/1eLTG59PyzcPZpJ9Xn+8/p52PozgOxdNkKrN+4Wfv9w/fchoMO2A9vj5+IlyReQl069YTj8OGnkxstIVQPgTfecT/mzV9Yn++Cc07HhXLUlzvvMqQkJ8Mq/Vy4ZJn2a+W+rtzY20rffPcT7n34SW2JTF16Z/zHePnN9+qFzssuPBcvvvb2DksI3W4PVq5dD6c87DG1TOD3Wf+guLSs8XdPfkpwOHD68UfucF3pYUkBSw+t7XmDEbDUcpzPpnwv3/t1jW26bT497KB9NdvGQ7LbbejTo9sOSyK/+uY7PPr0i/Ldr30wzuuYi5efegidRaRSabHMd+dddi0ukfnw5Tfe036XLg8Jn773uqbhXnTNTVi1eq32e8XqpLFjMPmraY2WEP7y25+4+6EnNAFMa0MeIJ9+5D70liVuKrmk7YOPPgnXX3UJHn/2Ze13aunmxHdeQYc2YpuoB9P9R/8H++61O5566B6tbFl5Oa6+6U4skb5rdYnYdvCI4Zg6/YcdlhAWFpdiszxkqv9b4yGVyf8zv/w5t+6WYPs9ggzukP33wr67Dw3ohUhzLChgGbtCghGw1GU5Z/5iTPvpN63xpvd8e+02RL5PoY3/Y2yU4S+lxO/eIpI3vcd9/Z3xeOO9D+vvc5S34S3XXYlRB4/QOlVdU4Nrbr4T/y5YrP2s6jnvzFNx/tmn1X8XAhWwfpa57J5W5jL1wnCMhI+4+7YbcNcDj2nt5cg952cfvN7m/yXNzmUihl0tfQ9kLiuSuWxTHM1lbV1RcxcskZcdW+q/F+qDepGv7vPPGHskesiLC6OJApYxchSwjHGrK0UBKzh+AZemgBUwqkYZjQpYNU4nJn75rXj/FGybsOudQNRdjfZDgxcRxjpnklJnnnC0/OfWqX60p59/Bdau34B7brsefXv3wieff4VPv5iC5x7/P+y52y5avuNOOw9bJL7IDfKQte9ee+DXP//GcRIMXdnl6JPOweCBA3Dt5RehsqoKDz7+rOap0DAG1vX/uxdz5s3HfXfchEED+mkPU8+9+hZefPIhid9SGyT0lHGXYZ3046Jzz8DokQdj7j/zccB+e2s3QG2lb779Efc+8lS9gKW8Ik47/3LsvutQXCqBi9Wbxzvlhkp5OjSNgTXxi2+xYk3tQzyTTgLqCUNumJToecQhw7HbzjvprKA2OwUsQ9hgVMAqr6jEmxI/UHkt7jBxxulEmiPeghefuV0MXyXf+bMuugoHDt8H4848WfNguPP/HhMxx4cfv/pYM8jipctx3uXXobts+nDPrddrDwfKk2HkQQfgf/c+jO9nzMR1V16M/SXY8W9/ztIEqLTU1HoBS3l2nXjWRZrQf9mF58j8WI175QFQeVlNnzRevL4c9QJWuniPPnLv/7Tyi5Yuw7FHjm7zoqh/6NtTBKyHawWsx555CZ9M/hqXi2B/4P774s9Zc/D0i69rD7gNY2CpWGfPvflhm23EUoY6gaPhJdzw88B+vXDs6IM0jzW9iQKWXmK1+Y0KWCoO0xQJUj1/cW28q0bzlEnv+VJEjL76gu0v/dSmEWdddDX+e/mFGDvmSG1u+mLKtzjkwOEYOrh2E4NL/3sLlq1chQfuvAUD+vXGZ19+Ixs/fIAH7roFhx5YG7Q9EAFrs3jBnXR2g7msUuayhxvPZcUiIh1zyjnoKl5X9995kzbnbNyUj9GHHtTmxdPcXPaozGWfNpzL/pa57KXm5rJqmcsmtNlG3GfYdj+m/p8aOWJv7C0Cr5FEAcsINYACljFudaUoYAXHL+DSc45eDl9V7RI2psAJ9LwuDx2Pa1uQaFrjz3/MhtptsOl9TMNfxOlzV+BwA8w5asQ+2HtY7X9s6u3cYcedhgfvvhUHycOOSurGUQUG3nngTnhJvBFUUgKWWvry4pMPNmpF3Qi93iQ48CLxnjr/iuvrBSyniFyjpI3brr9KgqePrC8/8thTtIe1yRPe1H6nBCwVhOejt18KcCTbszUVsNTOXK+/O16rW7nMq1RYXIxjTxm3g4D12IvvwCNjZjJGoO6hUXm5XH+JsV3O1p98KfyyDJRJHwGjAtbr4ydhiwg2rc2n+noS/bmV58GNl51b39FHnn4Bk+RhTglJqdtiJK1euw5K0P/yo7c176c6Aev+O24Wj4YDGg1SzYn9+vSqD3ys/njJf2/GylVr6wWsj+VlwDMiHn0z6YP6JX5qSfOxp56LT957TVuOWOeBdfUl5+P0k4/XBbK5h74xp5yrecs+dPdt9XVdeNUNWLBoaSMBq6CoWOJIfq6rvWjP3JyA1fQaH3vUoRgoD/J6k3v6Y/DOn6K3mOnzW3sMQ8JJj+vmsCm/EG9P/KK2XNObO5MKWEqYuPmKcfUsfxXR/Prb7sG7rz6D/n12vKbVRkcHHjkWV196AU4/6T/15S6Q+7OsrEw8/n93ar8LRMD6eJLMZSIetTaX1QlYLzz+AHbfbagumwc1l0lctDcmxNdcpgteg8x1c6B6qXjjZecY8jgd9u1HcG0L0WK0H2Ys98nwIzA43RweoeGwLwWscFBtps4Vt29E6S8V7dRa/DTT/6FuyNwvVfeA1PKuT776FirY8A73Mya9mdENcVuBsySobfcutUtkFomHwfniYVD3wFZXp3rgUW/oJ7zxgvYr9bA2fJ89cau4pjdMN955P3759U/89m3tzk8qFcqD0bGnjqsXsJQ31CnjLsVeu++GnAZLYmaKO7qKHTNjyidaOSVg5chNVZ1opmd8TQWs+8Qb6+tp3+OXbz5rFA+iuRhYn3z1HZbJQyeTfgJ1zxXqZuloCSA6VAKJGkn5198Hl8S2Y9JHoPuEF2AxEH+sUjyv3hARS3kEmcUDq0NOFi46Y2w94Otuuxer166V5YCvNYKu5oi65dF1AtZ4mQfrlvzVZVbC/0XjzoBaMl2X3n7/I7z30Wf1AtZTL7wmHg9TxCOisfg1/fufNG+rEeL9VSdgvf7cY9h5kD4PxqYPfXW7h1087kycd9ap9f1SItr4Tz5vJGAp2z/7Rnx5LTQrYDUQP3beqS+OOvSAVneqbekb6J31MdwzXtT3BWVu2Pc+DfYRF+kmoZY4fzvjD20JoZaacasz20tLtXzwqvNPq2epYkadfM4lch/l0TzbVew8tSPpf445QvOKdsv91UFHnVh779XAk12FclBxTD96q/Z6DkTAeuqFV2Uum4pDRtR6bdWl6T/MqJ/L6gSspvddgRifc1kglFrPU/d9UELn6IP2wx67DDJU6dl/fYdZJbXLE5kCJ/DNiDHokRJY7MrAazVPTgpY7WTrmrUuLDhndTu1Fh/NWBwW7PZZP9jSjG3jrf6Dm/H7bPwmsXhq72dqg7fX3dgcJhN2eipjYLV8tViQnZkuMSNy6rPMX7gEF119I76cKB4H2dvfHFwibuelEhvrw203OErAUkttbrxGvKQaJPUQ+JssJ2wsYNV6GNQtIVyzbr12g3T4yIPqY8vUVWGXLc4vkoctlZSAlSsC1wtPPKD7gm8qYKl4WFOaifnSnIDlFs+fdRvztZs9ppYJzBAvyKLirY2/e/JTQoIDZ514NPI6bL+u9HIsl2WcpXH2MK2Xgd78FomT1P3952SNzraI+jorUMs7PpetuJcsr/1/rOl8evSoEUgU28ZDUvNMty6dGm02cO2td8v3fhM+frs27lRdUnPE/4nH1UjxuKoTsD6WeFTdmsQUGXXsqdqywJP+c0x92fcmfKrFBJz++Xjtd08+/4q2pOdkiY3VNI2RJYI9ZGlinYD1zstPyxKfPrpwN33oU5tZHHjkCdqy6XNPP7m+rudfeUuEtU93iIGldvPdIi8cVD3xkEolZs4PM/9uNgbWYQfuiz13HWzII0H7flQWwfmqiAeyxJQpQAIWKxIv+ACW9O0bvgRYsnZOksvy38XL8PV3vzQ7Rw3fazd07mj8/x09fYl0XiVIde/ceAMJ1Sf1wlCJSHPmzsfi5Su0UA+7Dh0sLwIf1u5pDhYB64hRh2ib2DRMOVlZOPXEWvE9EAHriedewZdTW5/LlIA1RpYQ/trghWag3DiXBUqqNt9f8xZKPNr8xt8L+UmJV+ecPAZdmthbT+3T8tfhv/Nm6ili+rxJVht+H3kCEuTMZIwABSxj3AyVmnf8CnhKufQoUHhdzs5B1wsa/ycaaNmG+Vat3aDFw1IPYNobh22vHbgLoX6apRIT6qgTz8L4159H71496is47D+nS5ysLnjzxSe037UkYD0mMV9UzKyGAtbadRtwqgRkrxOw1Jv+w447FfdKYM/RImK1lEIpYKk4CRM+/hzTZOlOw928uAuh/mukrkTdLoT1Qof8IbdDtmxTf7QIHcHtQuiTeBobL7oRfhWTiSkgAnn334TEIfo8dppWrB4a5sxf0iBI8vb5NN53Ibz7wcfx3U8zJd7VxHovzToBSHme9pIg660JWEefdLYW2+qWa6+ox3rn/Y/it79m1wtYH0ychJfeeBfffj5BE3qbS6EUsFT9I0VYO2LUQbj5v9v7pcS636VfDWNgBXSRxVimfHl4f3OCeAM3cM1RwfVPO/4IdO1kTERpiMA1+Xb4VtQGFGdqm4DR+FdNay6QJWIffDZFYm66Gt3zcRfCHW3w6lsfSFD3CfhZvM+VAqgE7RuvvgwnHHdUiwYLRMB6XzxLX5FNcaa3MpeFUsAy+1zW1rerbhfChvdjmRlp2i6EaifvYFKNhNQ4+KdJKPfwpW6gHB/ddTiO6dwr0OzM1wwBCljteFl4JQbWXImFxdQ2gfQ9UzDg0e6QF3IhSeUVVXj5vU+gHjjqEgUsY2jVcj8Vp2rqp+9rbufKo0p5VilvqxOOrb3paUnAqvOuOu7ow7XlheqB+OKrb8L8RUsaBXG/4MobsEJ2Ofz4nZdF9Kh9Y6ryjTvzFC0AskqhFLBmz/sXV1z/P4n7cLzEfzhfq//MC6/EStkxrGkQd2PUzFeqTsCqG/l+ewyVnT/3MuzR0JSga8Vq5N9wv/nAGhhxxinHIvM0eXsub1tDkdRuRu9+8lUjT5x4F7CUoKOEnWsuuxCnbfNEGHvmBeLBUKwtPVapNQFLLbNetGS55r2anZmJctk2/ojjz5BdwlLqBazlEjz57IuvwZGHHYI7b75W+64sWboC90jw47defEoTtUItYN185/9pAeXfeeVpWfbYQ/PQOOGsC8Ubw2MeAWvbl0J5HJ990hjZ3TYpFF8TCRDpgfOtc+Avq/V8YGqFQEIKki6T75FVf8D85mpV4tX4SVNlg5ii+j+bXcBSYrkKcn7f/26sFy1uvfch/DjjV+27ruab404bpy0Vnzz+TaSlpWr3zDff9QDGHDEKh8pmFCqpQPAlpaX4auI72s/q5fABhx+Pvfcchmcevlf73bIVq3DOJa3PZaEWsG6Suez3BnOZ8hY90SRzWVtzS52AVZdvmLzMOvzg4do9fCjSmqpyHPXLV6GoKu7rOLV7P9w5OHT3wnEPrIUBUsBqZ8t7yr2Yf9oqeCvpVt4S+uyR6ehzW2dY7KF52Kprx+v14a0Pv8AWCc6tEgUsYxe/ClysbmBUUp40VdXVEsB9AF6TmCzqBkillgQs9bezL74ay1euluU5idqNTzfx3Fq1Zm0jAWuz7I5z+gVXakJZSnKybFvvlBsp2WXo43e1YKIqhVLAUvVdecPturw04wAAIABJREFUmDX3n/p+9e3TUx5IV1DAMnaZoKGAdebYo2T5k/Ftmlvqgnv9JuRffy/8EvOOqXkCWReegfSjDw2ZeFXXSrWKiyU7E6odClWKdwFLjVHtTDr9+xlagHW1lFg93L36zCMSBL02dkhrAlaB7LR6ksSfUWVSJDZNtTwkHjn6UMyY+Ue9gKXqeOWt9/GmbHOvdhxUGx3U1DhlOfXBImj9V3vYCLWAtX7DJplrr4BP3qIniXCj7LrvXrubywNLuA/o3RNj5XsSqge6+m+j1wXn+5fBX7SaU1QLBCzpeUgc9zZgD84zt2n16v7imx9/w7yFS7U/mV3Amj33X/z31ru0Fw9qDvP5/NpO0E8+dDf2k92iVSoukZ0BT64N5q2EXKfLJWJXEt5+8Ul0lY15VHrmpTcw/uNJSJR4it9N/lDzSL302lsx798F6N+3N9595RktX7Nz2SiZy26qnctCLWCZeS5ra3JpKGAdf+QhGNRf3/LztupXf99YXYljf52CahHumZoncGnfIbiy31CJ5BDa51sz8qaAFQGrq5AIa58sQOEXpRFoPYqblBcB/f+vKzKHhzeo3S9/zcWiZasaBeiNYipR2TUlJi1ZthzqhmHfvfdAZkZ6I88addOjblAczWw/rm6eCgoK8eeceRgyaAD69Oqp3SSpvOpGqC6pAMMrRdhaumyltsVzj+5dGz1cqAc55VGilnzoTerGVgWEVyJaXVL9UsLZLLnJU7tyKW+EGhHQVP0hf6jR2+EYzK9ikUz5fiauPO+00Hk0NMPBL54iBbc/AtfSlTFIKXxdtjjs6PTEXXB07xK2RtR3ZtLUH7T6xx61fcfQsDUYBRVXiOfUX7PmIku8qJRw5RDODecQNZcpYb9OzG/YZSVezft3IYrFe+FgWU6o5js1l6oHwYZJvRSYM2++JpLtLQGVU2TXw4a3u2peaqmNthCplwJWibvRsN9qV9V/5i+Sh9cSbfMNNS+qthvOj23VG4t/VzGTHn7+TYwZfRCGDuwXxiH44Z0zCe4fJQYdUyMCjkMuh233E+R34XugW7R8Fab/9DsuOfvEoJevx7r51IvcTfn5+HfBYln23E0Epz473EOpey/1UnGJcFP3aD27d9vhHqhKhG61qYXafVol9X9BWXmlxL0sQt/e25dGBTKXGZ1nOJcFfjUuX70On379HS4680Qttm24kkcecK+Y8zN+LtwUriZisl6HLCd6b99R2CWjdpdzpuAJUMAKnmFANcw+fBl2n9IfFtv2/6RdBR4suXIt1NnUSZBk7psKteNgw1S90onyedXIG5tlajwcvD4Caqvo1tJew3bRdtRhil0CBXc8irx7rpflJtvd352LlqHw/mfgUzvlmTkJk4yxRyLzLPVQuD3V/P0PEnYeAKt4/zDFH4ENGzdjzfoNLQ7MKjfQ++29e/wNPEpH5P7mYdgPuACWtIZxPP1wvnOheGOpHVTjIxC+MfyynU5ubySe/rx4XTV4ieQsh3vS7Ug49Wlj1bJUXBBQ4SPyxWO1paS8x3bfdUhcjDUeBjFm5lf4fP+jYWvgVbSovBQX/v0DStzOeBii4TEoT6uTuvfF3YP3blTHX8UFSLU7sHPG9s2wDDdi0oIUsNrJ8LNHLdMCJA5+tReS+zUOmFezxoWV921CzWoJOOkxz02NNdmKrP1T0eeOxh4Cfq94wrxfjI1vFKHH1XnIO4ECVjtdpnHRzG0S06G1pIIoZ6SH7w1UXECM8kGsG3shrOL11/mx22Hr2PiNVs2cBSh+7k14S2QHxDjZLS0Qc1jFSyft6JHIPOP4RtnV8srCh59Hzez56Pb+sxSwAoEZg3l+mvk7vvnuxxZ7rpYk3nOriL5M7ULAPfUheBdNR8Ixd8I6QDYjabhkxF0D1+d3wLdpPuART2KzJFkiaO0yBI5j7oAluTYUQF3yrf4Trs9uRagCuZsFaTyO87MvpuAv8dBvKXXs0AHXXnFRPA49Jse087QJSBMx5uP9jkDPlMYraGaXbMGt8//AxppKeE10P6Z4HN+1D24bVLs0ty65ZPXHXQv/xOcbV2PifodjSIY5dkUNx4VNASscVJupUwlYSphRKXdMJnpc0RFKwGmalHBT+PVWuPI9cSlm2VJlm+TuCeh2fgdkiNdV0+Tc6Maym9bDub42pg0FrHa6QNkMCcQQASVg1aWsi85A2uEHS8y8HbcjLnltPKr/mAOvbNctAT9iaISBddUquwg5evdA9riT4ZCYbU2Ta/lqbLn7Cfgqq7Q/UcAKjCtzkUCwBOoELFWPpccwJIy5C5akjB2q9S6YCs+sifBv3SxiVhzuqioeVpbMLrDveQpsQ47YYfz+6jK4J/8Pvo0Ltb9RwAr2ymN5EmhfAkrAqktX9t8FF/YehARZpt40PbFsHr7evBb5NVVxKWZlOhLQNzUDNwwcht0zG3re1pJYqrzSZv+IQmftPE8BK7jrlAJWcPwCLt1QwNL+k06youd/85B1UBpsKc3sAiFaV+HUMi1OVs06N7wS/D0Wk9pF0NHRgdTBSeh0cjZShzS/u49zkxub3i1C0ddljYZJASsWrc4+k0B4CTQUsFRLtpws5Fw5Dom7DG5WyPLXuFA+5XtU//In3JsK4Jf4HbGYlEhny8tF4tCByDj+SNi75O04DHnL6V63EUq8c/67uNHfKWDFotXZ51gk0FDAquu/fcRFsA09UryPmvMq98O38nd45k6Cv3Al/JUlUiw2PfItqTmwdOgL++7Hw9p3eLPm81eVwPvPZHh+f7eRpywFrFi82tlnMxNoKGApDjmORNw9ZG8cmNsFic0IWSpO1vi1yzF502qo3QsrPLG5CY9dvGq7Jqdij6yOOK/XIAxIb+xVqlioGXxVZTkeXzoXP2xpvMSfAlZw3xoKWMHxC7h0UwGrrqDFYUHn03LQ4fB0JPZoOS6Pp9iLrX9VomxWJZxr3XDmu+EpiS5RS4lVCZ0cSOjsQMqARGTsk4L03ST4rIyx2SQOEeX/VmPTW0Uon1PrIdA0UcAK+BJjRhIwDYGmAlb9fCq7JmWdcxKS9xmmiVotJe/mAlTJkjrngiXwiqDlKSiq91KKFoiWBIe2PNKe1wEJO/VD8u5DkDBAdg5qYdtrv+xWV/PPIpS+9yk8ImA1lyhgRYt12Y94J9CcgFU7Zgvs4olkHTYW1jwVOL6F+yOXLLlZMxu+NX9pMbP8ZZvhryja9kgUJfTkAc6SmiseVp1EsOoDW6+9YJUDjuZfVKol3b6CZfDM+QS+xd81u8SbAlaU2JbdIIEACTQVsOqKJcsmJcoj64hOPdE1KaXF2jaKR9YvWzbhj5J8EbQqsKG6Alvd0bW02iH3XV2TUtFNBKtdZNnfASLODcvKhRKxmksunxd/SJyrZ5b/gwVl6mXEjokCVoAXWAvZKGAFxy/g0i0JWA0rSNkpER2OyhTRJxnJvSVOVjOOWQ3ze8t9qFxSg+rlckj8LNcW2da71Au3CFveUlmCGIYVM8pzzJ4tOxhl2WDPsiOxqx3JfROR0i8JKYMax/ZqDo7PKdv2LqpG2R9VKPisFL6a1jtJASvgS4wZScA0BFoSsBoCSBo2FCkH74vEwf1h79SxTTbewmK4Vq2Da/VaeNZv1pYd+srKZS4tg092VwpHPC0VUN0qOwLZMjNgzcrQPKocvbsjQZYFOmSHqLaSXwLW1yxajurfZ6Pyh18B2T2qtUQBqy2i/DsJhIZAywLW9vot6Xmw7ToG1p57wNqxv7iStrGjrs8jcbMWwr9lJXzKS6t8CyCeTP6qUvEqlWXS3jB4MthkR80U8SxIzpZzFiwZSqzqLf3tB2ungRKEvY0NUeRBTolWvrWylFs8rvzlBa0CpoAVmuuPtZBAexFoScBq2P7e2R3xH4kJtYece6e0HYN2iyyzW1RWjMUVpVhZUYZ8ZzVKXDUodDlRKoHhfWGIp5Uq829OgjyHJyZpXmQqntfA9Cw5sjFIzm2lKq8Hc0oKNU+rietXwN3GQzgFrLaItv53CljB8Qu4dCACVsPKVKyojL3Eg2nPVKQNFUGrr/5d05TA5SkTUWurnLd65bMc285o5TnHmiRvCDNlqUqGiFRydmz77BDhqkVvqhZIKMGqSkS2in9EtPq7EhXza3TF9qKAFfAlxowkYBoCgQhYDWFYszPFg2moLDEchMRBImh1blvQagRT4mf5KqpEyKqQ5dwVImxtO6vPbYhbmkiVniZB51PlLGKVxK2yqZ9FsGoU2DkA6/kllpVz6Uo4Fy5D9Zz5cK9Qu5kFnihgBc6KOUkgGAKBCFiN6hchyNZtN82DydJtiHhn7SQvMXeMI9Nqn1xVImRthb+mTM4SjmHbZ6jPrYlbEnDYkqREKpmTJLi6JTld+1kLtO7QuWvpNi8r/8b54j02C971cwEJWh9oooAVKCnmI4HoIBCIgNWwp1kiDo0QD6bhOZ0wLDsXfQIQtBqW98vCvK1utyZklYqgVaKJWq7an+Xsa2XpdarNjmxpP1N2Is8WT9FsOav+dEhIarSLYiBkKz0e/LO1CLNKt2Bm4Sbts55F3xSwAqHcch4KWMHxC7i0XgGracVKVFJCVspO4uk0MBGpA5O0pXpRlcSZqnqlU/MKq1rmRNVidRbBKoiVjhSwosrC7AwJRAUBvQLWDvOpeD0lDuqHhD69kNBfHeJRIF5Q0ZT8Lhfc4hHmlEDs6uwS4cq9flNQnmAUsKLJwuxLPBPQLWA1hSEPWtbOg8TLaSdYRMxS3k6WnB03aog0Q3/JOvjyl8CvvKzyl4qH2KKgPMEoYEXaomyfBPQR0CtgNa09U8R7JWTtLJ5OQzJzMFSW6OUl6hTO9XVZd27lTbW4rFSWAxZjUXmJJlYtq9galCcYBSzdZmhUgAJWcPwCLh2sgNVcQ2o5X0KeXTscHWU5X5fa+FPqnChn9btQJp9bggPL7ojOTS453HBtlqPAU3tITC5XoUduXELZInchDC1N1kYC8UEgWAGr2fk0NRm2XIk5lZst8bPkEC8tFX9KLT+0S+B0tdQvlMknMau8W4rgyd8iR2FtHC5ZxuiRQy1n9JZulZ0T9bzPa7t3FLDaZsQcJBAKAkELWM1OUuIpld5RlvHlwZKmzp0AOayyy58lQw75m26vrdYGK95U/vL82vhbpXKUy6E+lxdqSwG15YAhXrZIASsUVx/rIIH2IxCsgNVcT9PEK7RLYgo6J6doYlbP5DQtYHq3FDmS0tBRlvmFMtVI+IWNNZVYX12pxeDaIOdNEptLO+TzFlm+GOplixSwgrMgBazg+AVcOhwCViCN2zOssKXZYE20yu5csmJFAqpb7A0P+Z3Noi3r84tApbyl1NknP0P9Tg5vlSxBrJAlNHJu70QPrPYmzvZIIPoJhEPAanPUNiusqbIMMFU2ppAA62pHQItdJlUJVKo+Q/0sn9XPEPd2v8erHZC4CPWfxeXcJ3GrfLIU0O9s/yClFLDatDIzkEBICIRFwAqkZ4mpsCSK2C7LYyzixQXrtqPus5wtVofESJV4WTI3yc1e7VH3Wc1XsuTP76wA1NHOiQJWOwNncyQQJIFwCFhtdckqwdOV51aGQxw2ZI6zWy1wyE5idgm23ugs+VwSAkJ5UKnDoz7LoXZCVGe1A2KZHNVq/mvnRAErOOAUsILjF3DpSAlYAXcwSjNSwIpSw7BbJBBBAhERsCI43lA1TQErVCRZDwm0TiBiAlaMG4YCVowbkN03HYFICFjxAJkCVnBWpIAVHL+AS1PAChhVo4wUsIxxYykSiGcCFLCMWZcCljFuLEUCeglQwNJLrDY/BSxj3FiKBCJFgAKWMfIUsIxxqytFASs4fgGXpoAVMCoKWMZQsRQJmIYABSxjpqaAZYwbS5GAXgIUsPQSo4BljBhLkUBkCVDAMsafApYxbhSwguOmuzQFLN3ItAL0wDLGjaVIIJ4JUMAyZl0KWMa4sRQJ6CVAAUsvMQpYxoixFAlElgAFLGP8KWAZ40YBKzhuuktTwNKNjAKWMWQsRQJxT4ACljETU8Ayxo2lSEAvAQpYeolRwDJGjKVIILIEKGAZ408Byxg3CljBcdNdmgKWbmQUsIwhYykSiHsCFLCMmZgCljFuLEUCeglQwNJLjAKWMWIsRQKRJUAByxh/CljGuFHACo6b7tIUsHQjo4BlDBlLkUDcE6CAZczEFLCMcWMpEtBLgAKWXmIUsIwRYykSiCwBCljG+FPAMsaNAlZw3HSXpoClGxkFLGPIWIoE4p4ABSxjJqaAZYwbS5GAXgIUsPQSo4BljBhLkUBkCVDAMsafApYxbhSwguOmuzQFLN3IKGAZQ8ZSJBD3BChgGTMxBSxj3FiKBPQSoICllxgFLGPEWIoEIkuAApYx/hSwjHGjgBUcN92lKWDpRkYByxgyliKBuCdAAcuYiSlgGePGUiSglwAFLL3EKGAZI8ZSJBBZAhSwjPGngGWMGwWs4LjpLk0BSzcyCljGkLEUCcQ9AQpYxkxMAcsYN5YiAb0EKGDpJUYByxgxliKByBKggGWMPwUsY9woYAXHTXdpCli6kVHAMoaMpUgg7glQwDJmYgpYxrixFAnoJUABSy8xCljGiLEUCUSWAAUsY/wpYBnjRgErOG66S1PA0o2MApYxZCxFAnFPgAKWMRNTwDLGjaVIQC8BClh6iVHAMkaMpUggsgQoYBnjTwHLGDcKWMFx012aApZuZBSwjCFjKRKIewIUsIyZmAKWMW4sRQJ6CVDA0kuMApYxYixFApElQAHLGH8KWMa4UcAKjpvu0hSwdCOjgGUMGUuRQNwToIBlzMQUsIxxYykS0EuAApZeYhSwjBFjKRKILAEKWMb4U8Ayxo0CVnDcdJeee9wKeMu8usuZvUDPGzqh45hMs2Pg+EmABBoQWH/a5fA7XWSikwAFLJ3AmJ0EDBJwf/skvP9+abC0eYtZe+2FhBMeNi8AjpwEYozAXt99jCqvJ8Z6Hfnufjr8SAxKz4p8R2K0B5bSimp/jPY9prq9+v5NKPq2PKb6HA2dHfBod2TsnRINXWEfSIAEooRAwS0PwrlkRZT0Jna60X3CC7AkJsROh9lTEohRAt65n8P9wzMx2vvIdds+/FzY9zsnch1gyyRAAroIXDjrB/xalK+rDDMD0w88Ft2SU4nCIAEKWAbB6S3mq/ZhzlHL9RYzdX5rogXDvu4Pi81iag4cPAmQQGMClT/9juKnXiMWHQSsaSno9i4fqHUgY1YSMEzA73XB+dwYwEfP+4AhWqxIvOpruedzBFyEGUmABCJLYHbJFpz113eR7USMtZ5md+CPQ0+AxcLnW6Omo4BllJyBcvPPWgXnereBkuYs0vPqPHQ8ge6V5rQ+R00CrRDweLHhohvhKy0jpgAJdHnxAdg75wWYm9lIgASCJeCe/ii886cGW41pylv77Y+E4+4zzXg5UBKIBwJevx+HzZiMfGd1PAynXcbw9t4jsXc278eCgU0BKxh6Osv6vX78M3YlPIyF1Sa5DkdnoPdNndvMxwwkQALmJOApLMbmq+6Av8ZpTgCBjlre8OVcfT5SDxkeaAnmIwESCBEB14Sr4Nu0MES1xW81lqzuSDzv7fgdIEdGAnFMoMTlxOG/fIlKD500WjOz8re6fqfdcH7vwXF8NbTP0ChgtQ/n+lb8Hj8WX74OVUtr2rnl2GhOLRfsfGY2up6fGxsdZi9JgAQiRsBXVoH8m+6HJ78wYn2I5oYtCQ50uOkyJO+5azR3k30jgbgm4PryHviW/SxjZMjZ5gxt7b0PEsY+GNfXAAdHAvFOoELEq1P/mI5VlfSMb87WCVYr7t55bxzftU+8XwrtMj4KWO2CecdGCj4uxYZXt8Dn5A1NHZ2EPDv63d8VKTslRcgqbJYESCDmCMgUWvzyu6j89hfAy3gzdfZz9OmJjndcA1s2d3GNuWuaHY47Ar6Vv8M15QHAVRl3YzM8oMRUJBxxC9TSQSYSIIHYJ6CeaJ9YOg/vrF0Ct88X+wMK0Qj6pWbghT0OQo/ktBDVyGooYEXwGvBs9WLdUwUo+bkCyjPLrMmWbkWnU7LR5ewOZkXAcZMACQRJwL1+E0pf/QA1/y4WRwfzzqf2Th2Rcfp/kHrwfkESZXESIIHQEvDD/f2z8C6QuFgeEy99diTBtvPhcBx8OcCA7aG9xFgbCUQBgfXVlfi/RbPwS9EmqBhZZk2dklJwSd/BOK37ALMiCNu4KWCFDW3gFbsLPdg8vhjF35XDU2oeD4LkfonIlVhXeSdmBw6LOUmABEigFQLu1etQNukbVM38Wx4SPeZgZbUgcdAApB11KFJG7G2OMXOUJBCrBGSHQs+fE+BdNA3+rZtidRS6+23J7ALb4NGw73kykJCiuzwLkAAJxBYBtZzwjdWLMWXzWlR5zXE/puJc7ZrZAaf26M/lgmG8XClghRGukaq3/laBkh8rUPpLBbyV8ed+mdQrAVkj0pAzMh1KwGIiARIggXARqPzpd1T/Nhs1s/+B3x1/N08JA/ogeb89kHrgPrB1pAdruK4j1ksC4SLg2/AvvEt/hG/5TPgrtoSrmYjVa0nLhbX/CNh2OgTWbrtErB9smARIILIEpoqINa1gPX4o2ACnL/6cNQanZ+GwvB44uksv9ErhUsFwX20UsMJN2Gj94nFZsaAaZX9WiaBVjpq1LqM1RbScxWFB+m7JyDowDRl7pyKxqyOi/WHjJEAC5iOgxCvngiWo+fsfVP0+G96ikpiEYElORPLuuyBpn2FIHjYE1sz0mBwHO00CJLAjAf+WlfCt+QveZTPgy18qS6Fj8CWm7HpqzdsJVhGsbL33giW3L01NAiRAAvUEfLKk8K+SAswo3ITp+euglhvGYkq22TA8pzNG5XXHAbmdkZeYHIvDiNk+U8CKEdP5qnyoXufShKzK+TUon1eFmjUiakXR0mKL3YK0XZJEsEpB8gB50OqZgISuCbDYYgQyu0kCJGAKAr7yCrjXb4ZnwyY4Fy5DzYKl8BZE106G1tQUJA4egMQhO8HRuzvsXTvD3jEHkAdEJhIggTgn4HHBV7oe/uJ18G9eDO968SLNXyKDjqabPiusnUSs6r4rLJ0Hw5rdA5bs7oxrFeeXJodHAqEkUCZz3aqKcqyU5YazSrfg75ItWFtVHsomgq4rxWbHHlkdsXdOHgaJp1Xv1HR0S0qFlfdjQbM1WgEFLKPkoqCc3+WHS+JnuYvlKPCgaoUTzvUuVIuw5VzvDktgeHuGDYkiTCX1cMghIlW/BDiybXDk2OHItUcBFXaBBEiABPQT8FVVw1eyFd7SMk3Mcq1eD8+mfBG6NsGTL+JWGHbUseVkiTDVCY5uIk517wpHD4kRk5WhHdbMDP2DYAkSIIH4JSAeWf7yLfBXlchyw0L4C1fCX7IOPiVylawH3NWhH7sjBZac7tvEqR7iXdUPSMmBJVUdsmzZyjeUoYfOGknA3ARUvKwtzmoUOmuwsaYKi8tLNFFrpQhd66or4AmDd2puQpImTPWRHQP7pGRgQHomOsjvchPlkDNTdBGggBVd9ghpb5TA5as/5MbHWfuz3yWfW3mJZ7GJC3iiBZYEOSfIGzb5bJXPlkQrLNaQdpGVkQAJkED0E5AJUy1D9LvkxYDbVXuuO9zuVvtvsdtlLnXA4pBDneuPBHpTRb/l2UMSiB0CKkiy1ykvL8U7f9vhl4Dx2md/KzFnxE3eYpf5SB222rPFLjFK1c9WvpiMnQuAPSWB+CegHl9dEkPL6ZVDnbXPvvrPrRGwy0Nsks2KBBHeE9UhywDVWS0HlKfc+IcXRyOkgBVHxuRQSIAESIAESIAESIAESIAESIAESIAESCAeCVDAikerckwkQAIkQAIkQAIkQAIkQAIkQAIkQAIkEEcEKGDFkTE5FBIgARIgARIgARIgARIgARIgARIgARKIRwIUsOLRqhwTCZAACZAACZAACZAACZAACZAACZAACcQRAQpYcWRMDoUESIAESIAESIAESIAESIAESIAESIAE4pEABax4tCrHRAIkQAIkQAIkQAIkQAIkQAIkQAIkQAJxRIACVhwZk0MhARIgARIgARIgARIgARIgARIgARIggXgkQAErHq3KMZEACZAACZAACZAACZAACZAACZAACZBAHBGggBVHxuRQSIAESIAESIAESIAESIAESIAESIAESCAeCVDAikerckwkQAIkQAIkQAIkQAIkQAIkQAIkQAIkEEcEokLA+uzLqZgy7Qe88szD9Wiff/VtFGwpxD23XR9zuFevW48HHn0W999xI/I65sZc/5vr8NsfTMSiJcvx0D23xuR4/nffw/B4vHj4nttisv/sNAlEM4GfZv6OTz//Gk8/cm99N59+8XUsXrYcLzz+ACwWSzR3f4e+VdfU4Jqb78LDd9+G7OzMqO270+nEVTfeiasuGYddhgyO2n6yYySgh8APP/+GyV9Pw5MP3lVf7JW3PsDqNevwwF0366kqKvJWVFbiutvuxctPPdRuc+FDTz6PlavWNrqvjgoYIejE/MVL8MwLb8Tl2EKAh1WYmEBJ6VbcfNcDePS+25GZka6R+PGX3/DBR5Pw6P3/k99lRD2dTyZ/jWnfz8Dzj90Pu92u9feuBx5HeUUFnnhg+/8J0TgQn8+PS6+9BQ/edSs65GRFYxfjpk9RIWA9/eJrmPDJZPz27eR6sPc+/BQ2bNyEl5/eLmq1Rf29Dz+RL+rveO3ZR9vKGta//7twMS6++iZMePNF9OrRLaxttVflT73wGub8swBvv/RkezUZ0naOP+MC1NQ4MfXT9wKud3N+gUxEt2LCGy8gKSkx4HKhyrhg0RLc89CT+Ojtl0JVJeshgbAQmDjpK7zw6lv44auJ9fXfcf+jmDd/IT4f/0bAD22vvPU+pn77Aya+/TJsNltY+hpIpeqBc/R/TsfH776Cbl06B1IkInmqqqsx6thT5WbpFhxkq+W2AAAgAElEQVRy4P4B9+GBx5/FilVr8PpzjwVcJpQZb7z9fk0YvO36q0JZLeuKEwIfTJyEt97/CNMmfVA/oodFkFmyfCXeeP7xgEf5+LMvI3/LFjxy7+0BlwlHxqKSEow5+Vz8Ov3zgOfCYPtxw+33YcHipZjy8btaVaVbyzDusmtx7eUX4uARw4OtPqLlf/r1d9xy5wONnhkC6dDZF1+NEcP3wSXnnRVI9pDm8Xq9OOmcSzDq4ANw5cXnhbRuVkYCdQTyC7ZAPe98/sEbyMurdaD4etr3ePaVN/HBa88iOyswUeW7H3+GciSZ8NaLSHA42hWwet788NPJ+PHrj5GYkKC1fcJZF2kC1vRJ49u1L3ob8/l8OODw4+W57WX06NYl4OKPPv0i5v67EO+LjSKRbr37QTgSHLj3thsi0byhNqNWwDIymudefgPTfvgZkye8aaR4yMrEo4AVMjgRqsiIgLV23Qacet5l+O6LD5GSnNzuPf979jxc9797MWPKJ+3eNhskAT0EmhOw9JSvy/vIUy9AeeT+PPXT+jdvRuoJtky8C1jX3Xo3lq1ajS8mvBUsKkPlx136X+TmdsBj999hqDwLxTeB5gQsIyP+3z0PYaO8iHrzhSeMFA9ZmUgIWE07X1QsItop5+L2m67BMYePCtnYIlGRUQHriLFn4OADh+O269pfOFcrAA48ciyOHH3I/7N3JnA6V10cP8a+L9nXUhKpZEnlpeyRfcsesoUsISlEJCFUyp5d9l0IJaloUUn7QvZ9XwfjPb877uOZ8czMM2ae/Xfe10dm/su93/v/3/+5v3vuufJa3xd9gY33DAECrgSs26n28tXrBFGcmJRMldK7E/ihKGC9NGCoCRJZv9w3Al27rr0lpQZqvD/qjdt5XHxyjtcErD915mz7Tz9L7pw5dQaktISFhTkq7CoC64R+bM9fvHSLgvnDTzvl1z//knvvLigliz/guA4GHFAwv9VB/9g3B0uOHNkc4ZPukL2o9/p085dyOTxcyj9eRrLekSXKaf/8u1sK5M8rly+Hy+pPNkqRe++JsmTjq23fyS4Nb3+k5ENySY9xFYEFZfaTTz+Xc+cuSFllkCtH9ij3QHg8nPpkScNkzcZNkidnDr3ew+4UX44eOyYXtA4F8uWVbd/9IHBWalSt6DgXsz9Y5nPk2HEpo9e8q0A+x+92/bdHMmbMIFmclPnr16/LX3/vkhzZlWPG9HLi5Ck5f+HiLe2BOm/7brvhVfnJco5rXrlyRXbt3it33ZlfkiePDAGF7d6zT5+B7JLihqqOnyESIE2qVJIrVw5zDNpiy9Zv5PSZs1LiwWJS8K4CbjFwPgjl/WzzV+beT1WpII2f7XRLBBbKuP3Hn+Wf3f9JzuzZ5fFHSzk6atR/ky5jeOX14Rr2/5akS5dGCt55sxwQt378+RddlnhVHixWVO4peOctZTx0+Khs/fZ7Sa3iF57V6M8UTvjjr3/ke30v8ubOJf979OZ7gfsjjBbvxtT33pYMGdJJzmjPS7yh8AQSSACB3/7827wvufU9rRAt2seVgOXcJznf9rsfdmjf8q/cre9M8Qfu174gcnbv9JkzMnz0+ybcHZFB+bUvS5c2jdslxnI69OEXNdIS5cuc6ebSP9Of/bNLcmmfiv/GcXhnixUp7Lg++vC/tS8q/fCDki9vbpcRWOgzPvviKzlz9pyU0+9EjmhLxPGdy6Y/S62OwMbPt5jfl3r4Icc9Dh46Itu+/0H7mRRSukRxDTHP7Hb97IH4ju789Q+5T79BxYoWdhmBdViX3/+gx6Gc995T0HC2dlz7RjhLBw4ekneGvy558uSUtGkiOeM7gX4N/VLWO+7QOj6idUkVpYzgh+/sP//+J4XuuUse0v7PuY+3B3+mjA8fOSaPlH5YChbIf5OB9ovdXxqgEViZpFeXDnJngbxRvgfxBsITApKA/fbBz8G75OwTuhKwjh0/qb7VZf1WRo2I/F77pF810qhwobvNd9ZGbsIHem3YKMF5mFXOq+90mtRRn+XYwJ2/cEE+177o8uUrGrH0qGTR59XZ/vzrX8mfP49cvXJVNmi0QqG775L7nfqTrd9u1yV82p+ULC5ZdCmJqwgs+JvwU+C/ltXvf3Sf8G/1O+9UX+2y9mmu/M7Yyn/s2Ak5efq0KZd5Z7//Ubq//Jq0bdFEKlcoF8UHvKa+6aebtsgp7YOfKPvoLakvjI+oS4/SpEktm7/cZnzr0iUeMm2GPuNL7TvPax3Q76aK1l+gjPh27NBoXPg5JYs/GO+Idi2++mNfySGNLnlS2+LPf3e5jMDCM7VTI9eT67KjEvos4H7W4F+3e6GPPKw+ZfvWzUy/aO2C+rbf/fCT7NVVHwXy5pHHypSSpE5jlOh9Gq7tfL79PfpblFPD7DTS6n/ar96c+Pz9z3+kTeee8mjpEtK53bOmXWgkcDsE/tPxB/qXLBrFXKFcWZ3suxmt7krAQl+2/8BhfWajPnM///K7/PzLb2ZsW1L9HitUYSw566OFMl1Tx2D8k1cjiaL3f7GVG33v1998Z96D0ur/YBwZ3RAdukMjjgro9//xR0pF+XV8BKwr2v9u2vKViTBFH5pbvyfR++l8uhIK4+/1n202vsiDxW6mWwBLBAtgDIw+zS67jE+7bNUxMMbLJR4qJkUKF3IZgXX0+AnjP5/SPvleffcffugBxy1O6LLPfrrs8y/t1yaMHi65c+dQ3zet+T365p+U0x+ajiNL5sxax1KO3zmXEf0XynDP3XfKQ/Cro0XN4TobtY8/c6OPh59qDX5aD/02pFS/FOJ+Af2upfSyaBkf3vZYjwtYcPife6G3AWsNDTNVw8Dzq0MBcyVgIWfRfyp2zJ4cGU53VT+STdt0ln36gbGGgU+Xdq2lcf1aMlmXnnw4e77jd62aNpTnn2vlFhM81ENGjBW8CLCkKiA1qV9Huna8Geb7RI2G8nS1SrJ05RpzDHK6zPvwfTNYafZcF4FYYa2UdgQYpDkvIYSy2qPvQAlXHjB8+CEwvdq7m+O8p+o3l4cevF++2vqtydcEm64zh4V1oBKX9Xh5kPkAZ9UBEQYvsCKF79Fw+9Hyn+bkatu5lwpcFx1lf0SdqjFvDjL1aNull/ytL86m1YscTuQBHWg1aNHOzFxioITwfQxasKTGWnetD34G5wiGgc5kXb55twpOCPWsWreZPNuskXRq29L8/szZs1K9QQupV6u69H6hk/kZTn28Sm15vl0radWkoezQzrRbnwFGSLSGgeiHWo6cLjpBV1xWrlkvb2kkBxwrGAZn1/V/yZMldywhhADVqlN3I0haw8v7vubruf++e2Xf/gPSSEUva2ivLz9ZZuqKUFYsL3S28mXLaH6tVx0/wvO0RsN2I8lEPi+4LvjAULZOPV4WLBO0x+C9wHJB1Pc37dzbqiJuDYPg90YOcVVd/owEPE4AfcTvOnFw41U37xT65pw6UQBzJWD11CgfOAZfrFvqKN/TjVoZMdwa+vDWzRtLm+bPyAdTZsiseTejDdFvoP9wx/DOj3x3vKMPx/tWpWJ5GdwvMofi2XPntT9qagYvGEjhYw6DcwZn5pnWz8ueffsdt8KA+ouvtkVZQvi1itEIs7Z9Bu5RVe/xmt7DZvh6rHJteVBzUWFAjW8WbGDfnlJdRfRxE6fJR4uXG0fKGpytxbMnu1NFc8xz2g6//vGX43j0zb/r4NB5CeFrb74t6zV/hO2XcTD6TvTdGNz30aVFW/QbY617p7bSpGFdszzreV0yffHGdwK/R/6JSbqMH04ZDN/z2k3aGifMGvrNbnqN+rVqmB9h0N2xR1/BoNAahLbJ70b2fc9pvwY+1saNHGqcZ1poEMDzj+fDfPtufPzQn8zXpSpW0HUlYA0ePlqfm7/McdYatuqgA7NDjn/DaW/+TH3p0Lq5vK7Hr9mwyfG7YQP7SoXyZd2CjCU3iD7A8w7D979hnaelZ5f2jvPxrkOkgBiOdw39wfgxb0pRfVeat39B9u474Di2aoXyujpgc5QlhBjMvPjKYIevg3vUqlFFXu7RxXHeE9UbSE39GfILwiL9zg9U3I87NUXX3v3l+x93mGV21h+zF0ZEOSLLYRh8vfwa+rXLjvs+WqqEjBk+yPzbLomBvw4BKTw8kgkGej07t5c3dDmy5ZRM+5fxmufLTgzgXHw7ICxZQ5/SuG4teaGTe8vokNOnebuugr+tYQkkxEWbdgT+Yj1dNuV8DFg1bVhH8wO2NafVadLGTOBas+euRltrHWx/jd/jeZw37QPHpCP8+6ZtOxsB1VqG9OnVnxuh45jItpizcKlMmDrLTGrC0Ne+oP3iM/Vqmefj8Sp1HOfiPz7WpZ3OkyxRfsl/kEAMBJDfCr6J/b5DdJr4zgiHOOVKwFqu+QSHjx4X5Zlr2aG7GfdZw/OK5a2DVez/9PMvBWNwa7WrV5F+bi73x9K/99TXseMvXAP+B/ptG7jQoGV7nUA77Lh+pkwZdKw7VoWuSFHFXQHrhx07TR+K9DAwvPMVyj8uQ/u/5FiqjX66iva/mGSI7KdFx1Lqc6iQjlQKq9ZucLDE+QU16GLWpHfdXurdot0LJgjCGlI5QMR2XkKI+6zW+0TYD54enD1rVlk0e5IR25FuA+Wz1kEF9jY60bB7j4ru6i8heMQa+k+M3aEzwFAn+NXOfR84t2vVRFrqmBoW3XfFz8qqaDhq2EDz+47d+5qxtzXkT8NSa383jwtYC5aulDHvT5YxmngNTio+AI10HXiGdOlk/syJxvF3KWC9rgKWCi9WwIJwNEIjrFbOn26cHHwkMAuNwQdePDTiexM+lA066710zhTjcLiTOBgzXxBa8MF9d8QQSRKWRCZ9OFvmLlpmci1Yxx0CFj7S+OjjgUOUUPr06cSGWQ54qYe+JOXkiparWdsuRkRyFrCwJhZRT7hmmJb3M+0gBurs4HsjhkqpEpEPYjUVsM7qDA6WQGZSNdjew52HCOopIq/GqtOBFxNiHAaHZpCl9QOzmRPHmgEJhC4IXoP6vSjVKj1pnBw4O8gPZRP8oWw/quhml2NGF7DWrv9MBr81xuQbu+/eQqY96qvghRfU5lxAx3LixCmZfiNv1sx5i2T8lJmmbT7Xtc0oy29//KmzYi+ZJUP4OXIU4KNuxTU4Jpi9e1gVZXfaE/evUqeJUajnTh1nVGgkAxw68h1TN5sDC44VIr/QJnh+ICw2UYEUkQqvvdzTIMesY7Pnupo8HHD47MwuNhdA22NtNvojPAMYPGMgatX/J/V5GTrgJTMjgHshmgzLCAoVjJwBmbNgiYybNN1EmkCgvKJOIZxx+POr9BlHXdGefQYMkc9WLTT/dp6hdueZ4DEkkBgE7OQAnCSI4nhWK9V+xjj36I9h7ghYiJ59QSNvNiyfZ2Z60Ff+889uKViwwI136boKz+/r+/SJiukLjbPjzjuPgVfVes1NVOzY4YP1PdGB5JRZMm/Jclkxf4ZkuyOzQ8BCP4h+GRFQcHrSpUsrMz/SfmnqTBn1xkCNeC1uIiogdmFAY3NgoX+opv3oQw8Ulbdef1Vn55OaXF1vjHpX5mg/YyOM4CzBoVyufTiiPfC9w2AIfQAGoy/17CI1q1XWfiNCnZILxulA1Kw7tuXrb7Q/GGrEogY6mI64FiFN2j5vopycBaxjOtOHvj+t9oH4vv6qm2+010kk5CLDpiL4VkJcRP+3bO5Ux7cSP8c3Fzm/0DejfTBwhGBnvwOfa45JCAkfL55l2gzH/K6C2n06aLczfnBOwTAyd0YKMxnQRAd//fv00EmgioZFG83Fg2jjEcrS3W+1O4x4jP8TsO8bkvFiYgZ+FZb4X7umkUwrF5hn1h0BCwMPvH9rl8wxYgqugwhKfGMRkYBkuq9qBPVBnWzCd9bd5wzvJJbaYTZ+uG7iAJ8QA6plurTZ+RuPdx39B94N+IR4143fob4jfNHXX+1jooUwGQnfCBECNgcW+izkriuqfuc4nZgK0/5k9boNRjTDJBpm8mHoM/COfbpqgUbmJ9XoUvU71Xd2x7qoT7f9hoCF4+G31Gna1uSdq6FLCDFRC6vRsKVGKuWW90YNMT7O9zr5Cn9y+vgxJqrNCljojxfqBBsiMSDoIL0Cfge/+WGdeIUPWKFmY4Gws27pHHPtnZoPtr3mg/1IRTfkg0Wfiqi0XBqFj+PcsZHvfCBLVq414iD8dPiEiGYDb+e8uXu070KkR3L1+dCXTfhwlvpZS2XjivkaBZ9Kn68IrWsLKa8RZi9rP2z9ObQFJlUwGY2oK/hq4PSCTmBDtIQ1fraj/vycrF400xyDPvH7n3ZI2TKlze/xjDXUfq9po3rSUcVT2Mh3JwgmVuDrgh3KDb+wWuUnZID2hb7M8egOdx7jfwQ+2fi5YIIK7/BTlZ80fUsjfTbRZ23RiUL4S+4IWH9o9Gjr53vcGE9n0ffyqhGUsus3Ge8K3h/0dxhzb1gxz4x/3PHFrJ/TUgNI2rVqaq6DaK5DR444xj6Tps+WGXMXyYqPppk8mOfPX5D6+u7cc9ed5h2HuSNgoV+ET4ZISGwehPfpUx3/I9n7pHdHyANF7zPXQj8Nf3PN4tlR+ukjR4/re95G3hiAiY3HTf8AjqhnVvUZ3bH5S1ZqWSebsR5WbqF/Q5lQNmcBC9fF9wcrCnD9PzWgB9GY0DcQ8AFOZgmhRr+v0++Z/VZhPLhr9x4TAYdvDPpYRJEiih7jRBiCSHrpWPsTzQ1m/WqscCikq9Ts6obqDVqagKF39VsD3xUBNj37vSYzxo+VewsVNP14e70ulhC+p/25u99Kdxh58hiPC1i1mrSWvOoQjx8z3FGPhUtXyej3J5kPfzZ9YdwRsODQvKc5rqwT7grK7eTA2vlbZML1TR8vdjjgeJieqNFAWjdrLG1bNjG3goDV/tlm0kJn95wNM9b44EEssbZKHZE3Rr7rELDwsa/X/LkoH1sIH+Wr19OZ+YqORLYQsKroMrze3W5G/rjb+FbA2rxmSZTlHHhx4KCMGjrQhB5aQ53T6rK4McMGmR9V1dwAjz9SUkWtXuYlKfdUfTNI6v1CR/P76AJWl16v6hKS3bL2hqOCY8ABUWQ2ZxSWLL6sswWrFs6QOzT0EfeEoDNl5keyWKMBMJhq2b6bmdWz637rNW+nP7/DREbcjmH2HyLYm4P6qfN4M1EpGMChjS2JO1RwOCJ2EwB3c2Bh0Afxa4o6yYiygoFfn+6dpHb1qi6r0bbzi0YAGKFKtzU4O1DqP8ezqANQ5sC6nSeA5yQ2gWc1X9G1iGsye9LN5JI/6swXBkjWaXJHwMKSsv76jmEwZhNzRi/r7eTAQgTtwDdGmRk+OxuO68JxeUoF+tdUqLcRWA1q17ilf8WOMTs1lB6RYtZJs+K1FbAQat+h+0uOiFRbbgx0IHrZSFoTgVW0iEx02lEXx0Isq1CzkYlYQMTw7Vj/ISPMskTnxKaIaq2m4l1cSdxxb4h7WO4HczcHFpxlOM124L1yzScy6t2Jsl6dWleJXU+e1O9No5b6rLxrlohaK1+9vkkfgKgGGHNg3c4TEBzntNFvX3oVfiB8WIN4M1R9pi3rlhlhxR0B66NFy+XdCVN1gDU/ylItZ0q3kwML0YmIUlykE6x5nJagIX9SvZpPSacbkf141xvVrSkvdu0QpWF693/drB5YOPNmtPqWr/WaOhll3yNEcMPXWaaJlm3UAS4CIa+iRolBpIZBwOrYpqU0a1w33o0fXcBylQMLy+0wcJk58Z0oS9pQN0w4IzrSClhYRglBz1oHnbVHZBUEGmsTp82Wj9RXRx8FQ4RE5xdfkWnjNZK/UNwrCVxVsqlOCEPwct59DBMOEEKdBazo5379zfcmOmOJTixi6TjM3RxY8CGRGqLPDV8c/Twml/HtcmXLV69V8fEDM9npLDBi3DCwbw8TqcccWPF+hHlCNAJIaYKlqHimrUHgaKYTTVghAuHBHQHLBi1gAtJVahNc+3ZyYGESobz2WU01otv2YdEbEX0LJu2sL4DfI7UOhCcr9rojYCF6DFFkNore3gfpYorcV8gRfY/7YRzWr1fXKEXZqxNrONZGyN/Ow4b+5RsNNHD2HTGhWLdZ2ziTuGMSGNFuSB0DczcHFkRFBPTA94Zot0Hzfg/SSUWMu1351dZ3tWKZrSe4lNZ0Qu++Ndj8iDmwoj0B9sOHGY+3Bt/88NkPix1wuCNgYQCAEOAzujQNhoFG3aermcGIjUy5HQFr1dr18va4SSbKxdmwTAxrd+1Djw8RlFrk73I2qN9Zs2RxKMf4HSINOvd6xSFg4QFH7gFXBtUWM/owCFitnmlgQuDjaxCwIHhs0U7M2azK7Op6d+q6Z8yMwfoPGamDoy+MQ7B3/0EVZJ6PMtCMLmDBCcXSFVdmZ+4gaGHJINoIyy8r6ezczEnv6KzoW2bddoc2zc0gE/kAWjZpYC71pTp6fV97w7HEB0si+2t0GwaJ7swAIH8LREUse3HeVr6uOiDITWYFLIiUiKDATOlJnRm1dn+Re1XAityZKyYBC47ggDd0hzW9F0QxaxC+bA6MzloGqOnWsKxgpCYstuvI4RBhRtSV4VnErocUsOL7FvB4TxBo2LKDybUEcdsaZs0qa6TjSo1wwmyVOwIWzq3wdCPHMgxESdSpUU166K5Ydqvk2xGw5urSDYSsR1+SgSUbyHOFwZkVsLCsHMvLnQ07c2F2/KOp7zt+bI+3Apb9ZrniC9Ea4jUM/Rn6uv59ut9y6KA3RxtHzYb+F9aZQyzTcXdXoBf69DczZ847mSGKq3LtJlEErHPaNlgusFknEDATaG2Czm4iNwLMlYCFcmHwPlKXXyNfg7PZe+I7/FSD5o5llIh2aFyvplmuD2cKA1rwdGXI77NEo6NhFLA88aYGxjVr66TmY6VLRRlQIPdHKx2MWKfcHQELzyv8C/gZMPgHdWpUlV6ansDmhLkdAWvVuo06AfnOLRtJYIla4Xvvdog4eNeRCqFBncils9YQcYQITyxTsYbcd4jCsu+RnWhz1WKYeMMEHAwCFkSjx8qUjHfjuiNg2UlGVxfHKgBELVg/Pnq/Bp9z3/5DGqU60XE6ouKQi/bzGxvPYDIU3I6pz2TbCMuUXu3d3e08WE9rNFwFZeI8sWsnLZwFrH26lPQVXeKNZ8nZnKPmXAlYEJamz11ghDebZgPn19fJDitg/a5RrO269TZRGjAIsC927WiiYGAmV5BGfLmyZ5s2VtGzBQWseD/BPCE6ASz1Qr7JcdESbaMvWjRrskZP53BLwMJ1IZZD7LLvJZa+YVWOnZi6HQEL1/pAdy6crStMrJ+DVS4Y4+bLE5kyCGWNyZbMnmLEancErB07fzNL0V0ZIkcxDrX3696pnaZJuPW+EKDg21lD+gcEFbibBwuTnwgSma9R/dZc7UKIfmXkOxPMBKRdbo3jnZfquRKwwBA5U998e9wt40X7rcT9Kmo0r10CDl8aaXq6aQQp/hs5W1/RzUxcGVYkrFoww/yKAlY0QnbdN/KJYKmANTsbhXw/eKjdEbDsucib8JU+cFhehTwadoCC39+OgLVWcyQMHzPO5H9yNrzcSCz3Uo/nzY8hYA0b+HKUKCb8HLNDGTR8faKu+7eGkL5uulTGLiG0osq4UTcdGnssEuUitBpmBCxds9q8cT2XD1tsP4QzgdBv53wzOP6orvmvrcJfL42kck7cjt8hhNsmksSAtIoum8GsI6IZEFJtBxs4NrqAhTwmx0+cECydjG7FNc+MTYDZ/SVdY2vy0ZQzndInS+eaPDdYlrRSI7NqaGhj9Fk0LNdBfgNw+/qb7XLw0GH5YPSbJkw9LsM6XnTyiPgrrst9rEEwQti3FbDeGT9Vk6SvliYN6mi4/gPmozB11jzN7xAeq4Blo8ww+ITQGBlOf8TMHjsLWLgvEqKu0+cLu1J+892PJrINkWYY6GGZTZ5cuTTHT9TBNM57+EFsTpCEAlZcjc3fe4UARPrC99xtwqSt2ZwqGOBgoOOugIXzf9NcWl+qUIJ+En04lhFhyTDsdgQs5FxA37J64cwoiUaRW69I4XvN8iGHgKVieasbYrmtS9suGqGl/d/C6RNuqZ8VsPC9QR+L2XREjjrbHTqBgckAWKSAVVkFrJu5DZ2PPaXOznrNdYA8XNs0qTJm9WOLInA+txtyDuo5dqYVv4suYMGJqfVMa9O3P9u8kUkKjYH9i/0Ga8TL67EKWB/p0idsm42JISQxxiB8muaVRJJsZ9EMkj2WBsHx+0adK8wII2rk9Vd767LE3dJCo2oH6E5n0RO3IrmzjVClgOWVV9cvb1JPZ6dL6jvvLPJiMgyTYvERsGzlkAz4663faX/yo+zU/8YyZzsJdTsC1tr1mzQ9wugokY64F3yIB+6/z+RXse86BA4IHc6GQQ0mVT/QpYDW9u47KI1bd3S8R0gcjEnC0ZqDxHlDGxyP98YmH4eAhdyajz5SIt5t6Y6A9eW2b6X3q0OMH+ccCYabWf8wIQKWLTQiWiGWQYDHwBObW8D/d2dSEv4rIvf79ujsYLBGU1i8riksbN+JyPn6GtGG9BmIssWmN4guQ06quAQsLMlBrhmsuIBfF6YRgIiEf7R0SYeAZW+M3EA7fvnVCP3Ivda3Z2ftL5+S2fOXaN85XTfFGCxJnRJq4zxsQpQ5Y0YKWPF+gnlCdALPvxgpbI/X8ZA1O862K5rcicByfi836Xv5g37jMd7KkS2bRo5GCtK3K2DhXPhbyOkEP2er+k7we+wEI3wkjDu7P/9ctOol0cTmxSRM/RV3BCykEGrfrY+8onmksTGYsyHZuR3v4n7dn1cBq4Fr4QyBBBs3bzGJ0r/9/icjYru7CzaiSw/rBmqLnaJtowtYyBmISRssw0S+V2yChH6vl+4wj2+JzTXlSsBC7jJMKNasXlnKPVbGiP7w077U7539Vtp6w5fGZhr4DvQ5Z5MAACAASURBVP6maR0eLVVSgyb6yxeaegLXfk1zsWbT1U3OlkHT6hS6ESlPActFf4NQXDTWjAljHR8rhBlPn7PAzO5g8AMxYZ4mt3V25BGl45wDCwnhoucBgqoIddGeN27SNJPvyObrcKf7w84kTTUJu3O4+Dl9+SAm4QVrrAkYYTEJWC8NfMPsboXz7Zr2WRra/IGGOFsBC7tiVdQlHDYhui0XZv2dQ/48IWBhVxTMOnVs08K8PI5760Aneo6Zp+q30GiyTJqQbo/mgXrRMbuEc6ILWKg3BqGfaUi1swOGGXq8ZNbgaCD/VHEVn4porqyuHVobkQi5EhCZh4T1drYO50Cdxqy+sz3dsJU0blBLnm0ad0JnRI8hX8HLL3Y1s7EwRElhaSOcSghY6PCRkwzbKb+poqS1vlon5Kmyzi+SsDZu3cmxJBLH/a4RBh11KRGW+VnDzmNYZuUsYKHTsuuPcZxdRjpD85BhB00MhhHJNe2DMVF2EMFzbp8jCJI9XxkkWBZKIwFfEUBEAZwimy8J5cCHdZTm+MCHHrZw+Wp5X/tf54kAV0ncsXQaSTStQcjGtews0AjNd7JU852460DgOpjQQA4ACFVFbyzhtcugMRnQtUObWAUsbEbxjQpDzsuvkevp5UHDHDmwbMQERBokBLWGROXYmctabAIW8hI679Zny7jp44X6HYh7m+rhyA+2ap3JIZb2xu6MNkrULiFE/4T8UkhCandGRV7ACjoB4yxggdef+t2yOcxQ/i69XzUzj5iosYZ+HgljrYAVOauaJEob4jnAQHjpnKkmwTOWKw7QCDTs/moNkxLOSw4RpYXZv7c17xgttAh01ecMAxz4QzZ6furMeZpaYK5DnIWTPm32ArMky1r0JO52ht9ZBMHABwMn25/Aj9yvu23a2Xh3SCPyGbn6sOGKTUYOvwZpCLCxhF0CjHfdlYCFVATfae4pmxsL97S5YO17hDx1EJqHa6QVEpJbi+4/JaaAhZ29Ec2E5c41n6psbmk3q0GEBFYDWEP+VeTCgSVEwEIbIWrJeZc0iOKTtN9Hbh27+2ls7YIk8GjjyZrXxj4veBYw+Wx9/6War2fyjLnysU5iWMNutth0I7qABb/TLvlGfp5KtRpLT10G2liXg1pDSggsobQRWNF9ddSrvKaJQGTciNf76zO3RRMxj7hlKSaiYe1OusiPU65aPZMDa9DLN6OZ3XkmeQwJgADGUhBPVyLv3o1xks2NafsWK2At0+9xjhub7LhK4o732jmvLsbOyMH36Y3NHVaoX/amRnJjjOdqZ9GYWiT6tx7PPd6VWZM1rYDu5F5Rx37I57TOqW9HWTD2sXUaq7uvz1+8wviTyOsEw6ooTJyu11xPMLsEEMnlkWTeVd+Fn8UmYEUfb9oIcpsGJ66nrp9qEEjY7pzWAcEK3V8e6FhCuEs1Bmz0ho3IkKcVhv4DY+Ch/fs4BCyMP7HD9Hr176whQgzH2gle/Hzw8DFm9ZCzgBXdr8aGSOgf8Q2y41jkeC2rE5MxccJScozl33/7jbiq7Te/93gOrC++UvVv4FCzbAM7MR3QaBrsePKIJsgEUJj9uE/UZV+YocUAPrqAhZDuf3UWB0pqTp1VPq8OEGa6MmgybZtrAIoxlgNirTwSo7mzwwc+TBB4oNgO0YcphUbiYBYaM0WYIbJJuWMSsKy6WVdzI0DsOqECSJ/+Q02yTeck7ljvCud+rEYaYIbtX921AMvQkJsKyUJhnhCwcF3MMP359z8aQdHXRApAccZyls667KOGLnextmTFGpOMHJ3L5hsDU/u76AIWBkrYEQvh7ogiQhJSJHb/eP2nRmm3durUGXWaWhknCA5IsRuJ9Wo1bq1h5SekiwpaLRpHLpk0yfw0V1gdndGqpqHZaFvM9L+quV8id424ue1obG8QkqFj6+xRN5bsIZHnx59sjJLEvWHLjpowPcJcF1sdYweuXhqlgCUCVsBCez35dEPppc4NtjzF7hRIdIjoqaED+kip4g8ZtR5O82Yd5FkB65ff/5Dne/TT5+klM/uWXGfk4GChQ96oHwNEp2HnIjzjyDOGvBoYzMKxw0wlnhs4bFb0GqLJYO/XJVzRt9j2m16EBQlqAjY/QafnWppt0hHViU0fMIuG5XmwDZqHaoBGbo4Y8qp5LzD4iS5gDXlrrNl5rL9GMWXTyNMLFy8IPto5c+Qw4gpshor/E1T8R8QucpC4E8qNvgU740EYg5CD7X8hqiAaE7kNU2o+udgisDDgxaCzWaO6UltF75PaZz2v3xaYjcCCE4GJDvSdEHgwi4YZeOzUM0434iiqS49hMQlYiMLE7qpIHoxj4aghcmye5vFxNwILglMbTbyKxMEddSCNb0wXnQGEw2gFLESrwtFDvkaEkaNfwe68SMjqvITwPRUbl6z4WB2jwepU5jebUmBTDuyMht1OseHFAR34v6BlRpSXdY6NIKD17qORydk0hx8cyt6aLwgbeaAMMAie6LcxKIbDekRnKBEBhihgO3A2Ez/a5w7RqD4IbXb77qB+kVg5Q2DtRo1wUv+jTYtnpFrFJ0x/0kvzRt1VoIAKTaPNMTZfHpbKIKIKz0d0AWuQ5mfD4ABLy7DLFcQCRChgEwKI2TB8m5Fb8m2NdEJSW3zr4zIkB0fUD6JmEHGJiai335tkIm8Q5WmX/MYkYK3TnHEo2zP1a0vdmtU0+uCMmYiCOGXfIwzWcA8MoN7Q3RHhE2IyFe8g+j5EEsESU8Cy0Zrw2dpp/wAfGYZJ5n910hLLWZBDEANgCHjjRw8zEZsJEbBmL1gsS1esNVESaBdMXoINlihjcOVOBNbUWR/JlBkfSef2z8oTKj7BB0OfA4a270ROnx59X9NE9EP1OcqvW8WfNc8LovOcBSwk51f53aRzuE99PfSPFVXAwu60iAjEkpstW7+RYaPei7KEEEtVK2seq9oanYpxBRLRIy0IdqWE3w/BD4JkRp2QH6jRbPgbURBvjHpHE9rPjdwJW78h8Cdz6fcOS7WQfJob88T1NvL3zgSQUw75h+voc4il+9hYoLdG8mBiDAEhMJvrrr3uZIcUDZgoii5gTVGxd+WaDTLolV5myR76of6vjzDjGRuBZSfx+ms0dRnNlRRTrizn8plIxk49pbumhcDKFkRxY0k27mcj5Ld+u934hugfa6nwhHdwpi7BPaFRWjaJ+8yPFurGOrOMRlBG08fgvcSqpp80ogs5r7D7Mt4n9F371E+BT5Y3d045qH0DxtX4d6kb4+qYBCxoE9gtHgLYverL4l1Enm2M5SDaRQ+kcPUk2iXY2OwBS8mxQge7y8NsEnf0dXU0AquFpgdCbjAIetjEC+NB5yWEEPVnz1+sOamGyF3qk8H3NcuxNULuff0OZtJ+B6t9EImP/s0KWOhPkRT+1d4vmI1xMI5GxFU+7cvHvBmZuqiF7oqLbyXGxFj1hrzT4AmfEH42DNywcdsw9eOQUN9OYPjzG+hxAQsP2ViNsFqmScfgaMOwOwAcCpvsEC8PwrOxltSKPtgFD8npMJMMQ7ggZqDx4XDOITJJZ8nszC7Ox2wNGhnLRJ7X5SLuGMSk3io6wfmHZVLH5SVNwO285TI+PG9pLoIypaOGcuMjiiV3iARDuTB4aqrL0rCmfr4uSUHmf9hpTbaLpW1I7gnDC1mjakUzoLEfcewUADEIy9riawhHRMSOTZ7pfD4iyrr1HaAf1MicVXhREZL9uiaQc46Wwu/sNvAQE50NO6pg+QpEPWtIojlNI+ku6UAKhuV0cAIe02TwzoZBEJYIrNGdq2yuG0TLQVhyXpqCSKk5Goo9Z9FSOX0jL5UrTnGxwbOCrWYhJsLgAB89dsLsGLhqwXTzMwzCIIBiJhQGYQ+OBZw857rbNdJghqU7KGN/HbSivWFwbuvWrC4LdDBqd62E8AXnCR2h3VIZORO6aCSIjQrDuVDJId5iaSMMwiwiEiCUwZC/BiIhIvywzAoDSxoJ+IIABoJLVn5sdjeFYaLhA/342b4X7xGWFUPgwUcS/QscK0wE2D4Jg6SB+pHE7nfWIIIh5wAGoDAITYhmRF8cPWo0tnojChIRuYi2gEGQwQYUVXWADMNus1XqNDXRWK6WaGP2HKIy3m8IzH26PW++N4gqynljFhOTLxg44bsEw0RLtUpPmE04bNQk+k84l+jXnQ0DnLc0FBz9BgZxpoy6m1j359uaJYfu2hidoFmswtM1Fe3w3cDE0Ax1/jDoxVJ9GBwhLNNG34NywUlcr7m3kG/rAU0wH8n5nFn+Dme3m24z31TFOyNYqVNjt7fGUsn7NJcEZnxtsn4MyuD0wRmyhlnFERqqjlyQMPShWDqOwaM1fBPQt9lvHZYrvDTgDVMO9Gvo32ihQwA56xZr1CYmEGGInIRgYqO58b7i+US/guf20VIlzHP3qz5/NlcdlkwMG/3eDZ8wkh1EAYhe+N7CEDmJCEukRIBQhKWu7hhm4tGf4J2HYaUAorohoDieaX3XnSO97c/hB2KCEMI4xB8MhF7q/rzZMdHZ30FfCREEwhUMg9AauqlPHz3W9ieYOEV/aic53Sm7PQY7TW/7bnsUgRw5P+epr4Kohk91x0cY8qT2enWwYQWDr4OJCrtkHHXApjTYPdU5ETIGoegrkMvWGmb939Q2sRHq8LOQYBhthevAIJJBQLK+cVx1gj/1opYP4jrYplExCH4ydrS2Aha+S137vGqWJ8KwXKd6lSe1r1wTpQ9frYNp9MMYc9hzMaBG/w8BFP0TdqJGvwRRyyboX7hslVk1gufIMqqsGy4NVgHAGsQFCLPYgRwG3xqD1udubASFn2GiZ8iId8xY6OOFs8wubDQSiA8B5PxExKrN14bxAlKmYMIfhjEpfDH0YdYXublja+RO8/CTBmnSdHyj7XgawsZbOgF5V/585jqYIGvXtY8JtoAPAT8nLoNvM0Z9RaROwfnmXdRJgw66MycEK2sIiMBmZ8g/B8OSafTP6L9hGMu36tjNBCJYARplbtHuBfPuYCwGi953od9Ejj3kTUYgBgw+GSbP7I6itgwQm9Anb/32e4dfC7FvoO5C/0iJ4nFV1fH7ITrpsFYnLdC/wXeEWI9vlbNwDh8NQjz6KZTxKe2bvvhymxGyH9NURTD8DnkS8c3DBCQ2kMM3ApHx+3RlEQwiIvQTRJdilQKuhX4bCfDRTtbAEeKYTXeB62Asa31v9PHYWAIrCqzheemmfhs2BnL2J90G4YMDPS5g2Tph9gkhf3hAbCLr6PXFxyGm39ljT+ox+EBANcaL6MqQVyS5CgvxmdXFSwxnBVvE51PRKb5b3OKFw0OSX/NZpdZcHzEZlM/TmhsJH/HYjvPEs4DlcRByMBNmHbyE3gcd0H9796rzlcJthySue6It9h04aCLW0BaudruK6xroTHarWIhODNdwZThmjy4TRMcf23OHDvPc2fOSRZdXWkN+q+Paud6pCQptvq/o9wCb3comdcpUjnXP0Y/BbC9CPNHJ59Z2cVpd5TgUg1+o9onVZnGx4+9JwBUBCK2YYUPOp5i2GcZW8dhK3nnJSPRrnTp92kQXIrwdUQ6uDEufMQCI77uPPhxOFHa5cWd23/ne6MMParnu0cgE5+W/0cuHfh71RF8fn28MroM+Dd9BDCDRD8e3jLgGBvd79h6QfPlyS3pl7cogIiFxNDg4L1u8tS3OmMGera/te7G0PXquL+dz8a1G5AxE95ii5BBhi2PgGOOZiG64F5jj/Ph+b/mGBj4BpFbYu2+/8Qnxx5XZ5yO2SBU8i+hPEBUJocmV4X1F9JU7s+r2fIdPqAOLfLqNeXyfUeMT6vN/p76DdhmMq7Ih4gmDKbwn3pj1hl9y9tzZWzaPQFnhXxfQybz49mtxPY2YmEDfjE15YmrruK5xVIW2k/rtKKhRnTF9XzD4Q/8YV/+PqAhEkFrDZCGexeyaA8gu+XNVHghy6FuRtxaT1a76NEwEYMMgcEymA8zohiXd4Hy7HOLixN8HPwEIsMijh0mw6LnrbO3xnIYlCYu1T4FQi80PsmnkDt7NmHyJJHqdNDeWFLtDF5NnGNcgH1xezfWLvHLRDZMXe3QH93Rah5hWl0Tv/9Eno7+P/u7Az0AEF/rQ+JQTZbLaRDqd9MBE6u34ZPi+IA9fQR0PuuoXcB8IjhD84TfG5tee0m9BGvi+6oPBUGeIdxjLRs8r6swUrLADIiZcY/oOwnfFcQjYiKmc+D3GmjbYxJ329tUxXhOwfFFBzEJjwBWTISl4zadurp31RRnduSfU3NgMyS2jJwJ157qBdgyWASKhcEyGLa/b6rIEGgmQQHAQGPXeRF2ecTHGypTWmTK7E1Qg1ziuPr6xzl4iwTCNBEjg9glgmT4mx2IypDjAkn5/NgxmPtQNZ2Iz5HgKhOVpcfV7iJyAwE4jARLwLYGPNN3B39F2+HQuEYQZd/IU+7YW7t89rr4JyzMfLBYZ0U7zDYGgFrB+1F0FTp6KDPl1Zchvhe02/d3scrWYyonkm/GdHfT3OrsqH5YJ2SVCrn6PmXysu6aRAAkEBwFsFGGXnruqEULP7U6qgVzjuPp4hI27k4MikBmw7CTgaQJIkotop5gMM9xFCxfydDESdH0s8YhtIg8XR56r24kkSFDBbuPkuPq9/+lS9PhEzd1GEXgKCZCAGwSQUxQpB2IyRP1g2W2wWFx9EzYls+klgqXOgVaPoBawAq0xWF4SIAESIAESIAESIAESIAESIAESIAESIIFbCVDA4lNBAiRAAiRAAiRAAiRAAiRAAiRAAiRAAiTg1wQoYPl187BwJEACJEACJEACJEACJEACJEACJEACJEACFLD4DJAACZAACZAACZAACZAACZAACZAACZAACfg1AQpYft08LBwJkAAJkAAJkAAJkAAJkAAJkAAJkAAJkAAFLD4DJEACJEACJEACJEACJEACJEACJEACJEACfk2AApZfNw8LRwIkQAIkQAIkQAIkQAIkQAIkQAIkQAIkQAGLzwAJkAAJkAAJkAAJkAAJkAAJkAAJkAAJkIBfE6CA5dfNw8KRAAmQAAmQAAmQAAmQAAmQAAmQAAmQAAlQwOIzQAIkQAIkQAKJQOD8hYty9tx5yZk9ayJcjZcgARIgARIgARIgARKIL4GLly7LiVOnJU/O7PE9lccHAAEKWAHQSCwiCZAACZCAfxO4du2avD1xlkREXJc61Z6QIoUK+neBWToSIAESIAESIAESCDICERERMnbKXAkPvyJPPfm4FC9WOMhqyOpQwOIzQAIkQAIkQAIJJDB59hI5rrN9sGTJkkqbZ+rIHZkzJvCqPJ0ESIAESIAESIAESMBdAnOWfCx7Dxw2hydJkkT9sdqSPWsWd0/ncQFAgAJWADQSi0gCJEACJOC/BNZv3irf7/hN5Pp19ZaMyyQZ0qeTDs3rqZiVzH8LzpKRAAmQAAmQAAmQQJAQ2PLtj7Jl2w9aG/XH9P+qYEnKlCmka+tnJHly+mNB0sxCAStYWpL1IAESIAES8DqB3//ZLcvXblLtCp5SVCtYIK80rlXF62XiDUmABEiABEiABEgglAjs2rNfFq7aoKkcIm6pdi7NTfps41qhhCOo60oBK6ibl5UjARIgARLwFAEkbR8/c6FcvXpNJ/qua9yVCb+KYuUfLSGPl3rIU0XgdUmABEiABEiABEggpAlcvHRJJs5aLJcuh7vwx0wolpR8sIhUKf9oSHMKlspTwAqWlmQ9SIAESIAEvEYA7tCEGQvl9NlzkVHqMdw5LCyJNKpVVe7Kl9trZeONSIAESIAESIAESCBUCHw4b5kcOXYyVn8M+bBqVy3PTXaC4KGggBUEjcgqkAAJkAAJeJcAwtT/2b031ptaYStFiuTSqWVDSZM6lXcLybuRAAmQAAmQAAmQQBATWPPpl/LTr3+65Y8l17ykHVrUl/Tp0gYxkeCvGgWs4G9j1pAESIAESCARCURovquRH8xwmfcqpttULldGSj1UNBFLwUuRAAmQAAmQAAmQQOgSQP7RkeNnusx7FRMV+GLwyWiBS4ACVuC2HUtOAiRAAiTgIwKnTp+VYydPOe6+SCOynK1hzcqOf6ZKlVLy5MhmtnOmkQAJkAAJkAAJkAAJJA6BM2fPy5HjJxwXW6sRWec0R6k1Z38sRfLkkjdXdgkLC0ucm/MqPiFAAcsn2HlTEiABEiCBYCIwfNy0KNV5uWubYKoe60ICJEACJEACJEACfk9gwqxFgklGa/TH/L7J4l1ACljxRsYTSIAESIAESCAqAQpYfCJIgARIgARIgARIwLcEKGD5lr837k4ByxuUeQ8SIAESIIGgJkABK6ibl5UjARIgARIgARIIAAIUsAKgkRJYRApYCQTI00mABEiABEiAAhafARIgARIgARIgARLwLQEKWL7l7427U8DyBmXegwRIgARIIKgJUMAK6uZl5UiABEiABEiABAKAAAWsAGikBBaRAlYCAfJ0EiABEiABEqCAxWeABEiABEiABEiABHxLgAKWb/l74+4UsLxBmfcgARIgARIIagIUsIK6eVk5EiABEiABEiCBACBAASsAGimBRaSAlUCAPJ0ESIAESIAEKGDxGSABEiABEiABEiAB3xKggOVb/t64OwUsb1DmPUiABEiABIKaAAWsoG5eVo4ESIAESIAESCAACFDACoBGSmARKWAlECBPJwESIAESIAEKWHwGSIAESIAESIAESMC3BChg+Za/N+5OAcsblHkPEiABEiCBoCZAASuom5eVIwESIAESIAESCAACFLACoJESWEQKWAkEyNNJgARIgARIgAIWnwESIAESIAESIAES8C0BCli+5e+Nu1PA8gZl3oMESIAESCCoCVDACurmZeVIgARIgARIgAQCgAAFrABopAQWkQJWAgHydBIgARIgARKggMVngARIgARIgARIgAR8S4AClm/5e+PuFLC8QZn3IAESIAESCGoCFLCCunlZORIgARIgARIggQAgQAErABopgUWkgJVAgDydBEiABEiABChg8RkgARIgARIgARIgAd8SoIDlW/7euDsFLG9Q5j1IgARIgASCmgAFrKBuXlaOBEiABEiABEggAAhQwAqARkpgESlgJRAgTycBEiABEiABClh8BkiABEiABEiABEjAtwQoYPmWvzfuTgHLG5R5DxIgARIggaAmQAErqJuXlSMBEiABEiABEggAAhSwAqCRElhEClgJBMjTSYAESIAESIACFp8BEiABEiABEiABEvAtAQpYvuXvjbtTwPIGZd6DBEiABEggqAlQwArq5mXlSIAESIAESIAEAoAABawAaKQEFpECVgIB8nQSIAESIAESoIDFZ4AESIAESIAESIAEfEuAApZv+Xvj7hSwvEGZ9yABEiABEghqAhSwgrp5WTkSIAESIAESIIEAIEABKwAaKYFFpICVQIA8nQRIgARIgAQoYPEZIAESIAESIAESIAHfEqCA5Vv+3rg7BSxvUOY9SIAESIAEgpoABaygbl5WjgRIgARIgARIIAAIUMAKgEZKYBEpYCUQIE8nARIgARIgAQpYfAZIgARIgARIgARIwLcEKGD5lr837k4ByxuUeQ8SIAESIIGgJkABK6ibl5UjARIgARIgARIIAAIUsAKgkRJYRApYCQTI00mABEiABEiAAhafARIgARIgARIgARLwLQEKWL7l7427U8DyBmXegwRIgARIIKgJUMAK6uZl5UiABEiABEiABAKAAAWsAGikBBaRAlYCAfJ0EiABEiABEqCAxWeABEiABEiABEiABHxLgAKWb/l74+4UsLxBmfcgARIgARIIagIUsIK6eVk5EiABEiABEiCBACBAASsAGimBRaSAlUCAPJ0ESIAESIAEKGDxGSABEiABEiABEiAB3xKggOVb/t64OwUsb1DmPUiABEiABIKaAAWsoG5eVo4ESIAESIAESCAACFDACoBGSmARKWAlECBPJwESIAESIAEKWHwGSIAESIAESIAESMC3BChg+Za/N+5OAcsblHkPEiABEiCBoCZAASuom5eVIwESIAESIAESCAACFLACoJESWEQKWAkEyNNJgARIgARIgAIWnwESIAESIAESIAES8C0BCli+5e+Nu1PA8gZl3oMESIAESCCoCVDACurmZeVIgARIgARIgAQCgAAFrABopAQWkQJWAgHydBIgARIgARKggMVngARIgARIgARIgAR8S4AClm/5e+PuFLC8QZn3IAESIAESCGoCFLCCunlZORIgARIgARIggQAgQAErABopgUWkgJVAgDydBEiABEiABChg8RkgARIgARIgARIgAd8SoIDlW/7euDsFLG9Q5j1IgARIgASCmgAFrKBuXlaOBEiABEiABEggAAhQwAqARkpgESlgJRAgTycBEiABEiABClh8BkiABEiABEiABEjAtwQoYPmWvzfuTgHLG5R5DxIgARIggaAmQAErqJuXlSMBEiABEiABEggAAhSwAqCRElhEClgJBMjTSYAESIAESIACFp8BEiABEiABEiABEvAtAQpYvuXvjbtTwPIGZd6DBEiABEggqAlQwArq5mXlSIAESIAESIAEAoAABawAaKQEFpECVgIB8nQSIAESIAESoIDFZ4AESIAESIAESIAEfEuAApZv+Xvj7hSwvEGZ9yABEiABEghqAhSwgrp5WTkSIAESIAESIIEAIEABKwAaKYFFpICVQIA8nQRIgARIgAQoYPEZIAESIAESIAESIAHfEqCA5Vv+3rg7BSxvUOY9SIAESIAEgpoABaygbl5WjgRIgARIgARIIAAIUMAKgEZKYBEpYCUQIE8nARIgARIggVETZsnVq1cNiCRJkkjfLq0JhQRIgARIgARIgARIwIsEpsxdKsdOnHLc8eWubbx4d97KGwQoYHmDMu9BAiRAAiQQ1AS+/PYn+WLbdlPHDOnSSufWjYO6vqwc3RYjewAAIABJREFUCZAACZAACZAACfgbge07fpdPNn9tipU8WTLp1amlvxWR5UkgAQpYCQTI00mABEiABEgABPbsPyRXNAorT45skipVSkIhARIgARIgARIgARLwMoG9Bw5LeHi45FJ/LE3qVF6+O2/naQIUsDxNmNcnARIgARIgARIgARIgARIgARIgARIgARJIEAEKWAnCx5NJgARIgARIgARIgARIgARIgARIgARIgAQ8TYAClqcJ8/okQAIkQAIkQAIkQAIkQAIkQAIkQAIkQAIJIkABK0H4eDIJkAAJkAAJkAAJkAAJkAAJkAAJkAAJkICnCVDA8jRhXp8ESIAESIAEvEzg6rVrEpYkiYSFhcV454jr1yUiIkKSJU3q5dLxdiRAAiRAAiRAAv5KAL6B8Q90F79AsGtaVlGfJmmA+jPXb/hjon5bUvXbIvlfV/70z1w9fxSwAuGtZBlJgARIgAQ8QgBOw5mzZyV9uvQq9iTxyD18cdFKtZtIvZrVpGuHNjHefvLMubJi9Seycv50XxSR9yQBEiABEiABEvBDAu+MnyrzFi+XL9YuDQgRpe9rw+T7H3+WDcs/8kOasRfpqu5eXbdpWzl+8pSUeLCYvD96mEybs0AmTZstX29YEXD18UaBKWB5gzLvQQIkQAIk4JcE9h84JA1bdZClc6ZIzhzZ/bKMt1Oo14a9Lf97tJRUqfgEBazbAchzSIAESIAESCBECaxZ/6l8vmWrvPnay5Iklkhuf8ETyALWa2++LZ9+/qUMeKm73HtPQbkzfz75/MutsuaTz2T44H7+gtivykEBy6+ag4UhARIgARLwJoFgFbDcYcgILHco8RgSIAESIAESIAF/JhDIAtZT9VvoysEksmbxLH9G7Fdlo4DlV83BwpAACZAACVgChw4fkUXLV8uff++SPHlySpN6taVA/rzm13v27pcNm76Q5s/Ul5QpUpifXb16TWZ+tFBa6M9S2J9pLqgNn30hX279VtMjXJcHixWRiuXLStY7ssjFS5dk/JSZsnDZKnmmfm3JlDGDtG7e2FwLx373ww5Zu+EzOXX6rJQsXkxqPlVZMqRP72gghNffd28hswRx0xdfSbp0aaVapSelaOFCsvXb72XzV9vk/IWLUrFcWXnif48aB8Xa5fBwWbVmg2z97ntJlzadVK9SQR4pWdzx+//27pONm7bI09Uqycc6E/r7n/9I5Sf/J5WeLGdyW8Vl8xevkPuLFpZiRQo7Dv3m+x9kpd7z0qXLUrVSedmt9+ASwrhI8vckQAIkQAIkEFwEZsxdaHwmZ4Nr0axRPUmVKqX89PMvsuOX36VlkwbmEOSYmqHL2po1rifz1ffZ/tNOyZ0zhzSqV1MK3lkgXnD+27NPlqxcI7v173sKFpDG6n/lyJbVcY1/d++R5ZreYPeePXrt/FK/dg3Jlye34/fID7VZI5Q++XSzyRVVq3oVWbHmE11CuDPKEkL4OktXrdWf75DMGTNKDfWnHn7wfrfLevlyuMyev0QqPlHW+HTffP+jZM96hzSsW1MK3X2X4zpLV61Rf/KyPFD0Pvn4k08lXP27Jg1q6zEF5Zr6oF98/Y1GWG2RK1euyv8ee0SqVCjn8FEXLFkh70yYav7donED9XHzqK9XTv7462/5dvsO48/Clmk9kB+rTo2qDl9ykfqu8CWbN448JpSMAlYotTbrSgIkQAIBQuDY8RNSv3k7SZ06lTxwfxHZt/+AHDpyVKa+N0ruLninildbZMDQEZq/aYaKUZlNrc6fvyCV6zSRdUvnOISmAUNHqvOwTZ4o+5g6a1fl1z/+UofnmiyZPUXO6fED3xhpnJIypUpImjSpZNjAl8215ixYKuMmTTOh3BC7dv72u9yRObNMnzBWBac05piajZ+VlClTqoNyVYWse+SX3/5UseuM1FZnas36z6S4OkqHtcxwxl7o2FYdw7oO+o1bd5Jjx45L6RIPy+kzZ+Snnb8aR6VL+9bmGDhmrw0bJdnUWSqQL69xiK5cuSKT3xvpVpLS6g1aSiN1stq2fMZcb62WZ/BbYyRH9mzqMN4pv/3+l6TW+sJBYw6sAHkpWEwSIAESIAESSAQCHXv0lSvhVxxX2n/wkJw9d974A3dkySwTPpwls+ctli2fLDPHQAyqULOR3FkgnxGN8uTKafyWayqCLZgxQbI7CVCxFQ+iVdO2nc09ChcqKP/s2mMmE2eMH2PSOPyw4xfp3neAZMyQwSyn+/X3SL9qiaZ5yHUjzcPCpatk9PuTJLeWIV/uXOrX/am3TCLYmMY5B1a1+s0lQgWkksUfkmMnTqiP9of6Ym2MSOeOnTx1Wmo0bCk51W/Chjj58uaW39SHPKecZk58x/iisHrqqx45eswIfyUfelCFt71Ss3pladWkobw19gNZtXaDPFSsqPqLKWS75ukqopOc744YYnKLDR3xjpmkRLL8smVKmTq3afGMzFdh6wOdYP3840XmHp9v+Vr6DR4uY4YPkjIlHzacOr/YT/89WB4t9bA71QmqYyhgBVVzsjIkQAIkEBwEOnR/SX759Q/ZtGaxJNcPO2ax5i5cZhyPpEnD3BKwMNtVvnp9af9sc4eQA8cLzlCWzJkMKFdLCCEWPVGjoTyuzsTbbww0x/2iTlSHbi9JVxWYmt4QoiBgXbp8WdYunmMckXB1Bis83dA4InM/fN84eIjk6tLrFRWx9sraJbPNtT5et1GGjHxHFs6cKHnV+YJNmfmRzFJncf2yuWYmzgpYPTu319nJWvFu1OgCFpww7Ghjy3Du/Hmp1bi1iRqjgBVvvDyBBEiABEiABIKCwFEVX+q1aGcinV7s0sHUKSYBC5FHEG9gR44elzpN20gVjRh6vX8ft1jUeqa1mYxbvXCmmYy7pOIVIsMb1KlhRKI2z/eUEyoczZ/2gQpCqYxYBn8st4pX81Uog19XqfYzcrdGZn34wWgTjXTw0GFp0b6bydVlBSxEyCMR/eqFM9Tfi5zkfPu9iUYsWrt4tiRPnjzO8loB6+67CsisSe+ae2FlAO5VvmwZGdi3p7kGBCz8fMOKeZI2TeQEJ2zf/oPS6NmO0v355zQiq4752bbvfpAXXxksU3QyEkIWrHz1BmZi9ONFN5cQRhewcNwrKmBt0dUEK+ZNE3Aso1H7o274qHFWJsgOoIAVZA3K6pAACZBAMBCA4FL0vkIyamikgBTd3InAgugFxwARTD27tDPRVIhocjZXAtbZc+ekat1mskgFpjw3BCac01odq8yZMsqYNweZS0DAgsj1Sq8XHJds2aGbXLx4SRbNmuT42XQN1Z+os5mfrlogqdUhg6CF8Pu1S+c6lgMeP3HSzEq+o7Nyj5R4yCFgLZg+wcz6xdeiC1hPPt1IOrRuFmXmceiIsbJNo88oYMWXLo8nARIgARIggcAnYHbAa/ac5NLlgJPfHeGoUEwC1jSNlLqv0N2O45q0ed5Eos/Q6HR37LHKtY1Y1fuFTi4Px6QjJu7q1aru+P3wMe9rOodNsmn1QkF0PsSbF7t2MFHm1rr27i+///WPQ8Cqp3U6rMLcOvWzrP31zy7jf00ZN0ruv+/eOItrBaxunZ6Tpg0jBShYr1dfl7/+2a1C0ofm31bAir5j4NfffG/EqqVzpkraG5H7OL6xiloN6jwt7Vo1Nee7K2CFq/BXp0kbuaJthgnTz3WCN+6EEnFWMyAPoIAVkM3GQpMACZBAcBOoWrepVK9a0TgyrswdAQvnbf/pZ3UgXtelcpfNZdJrxFHdmk9J53bPmn+7ErAOHDwsDVq2l81rl5joL2vd+w6Us2fPmVk/GASsqrrLX7dObR3HIKT7+IlTMn/6eMfP7EzgxhXzdZlianm2Uw/N6/Wvy3oNevlFqVb5SYeAtWrBDBNqH1+LLmCVf6q+DNEZ0if+95jjUnBQV2s0GAWs+NLl8SRAAiRAAiQQ+AQ69XjZLHlb9tGHkkqFKGsxCVhrNHoJ+UKtdVO/CBFcH334gVswIGDFtIwPEe0VdLJtxJD+Uk5zRVmbu3CpRoTNls0q2Bw8dETqa7TY0AEvSaUn/uc45qUBb8j2HTdzYFVRHxJL/VzZ6GGvyWOPlIyzvFbAGvxKL+PrWcMuz5u/2iqfrVpofgQBCykhvli3NMo113+2WdNUjHJ5H+SyevnFruZ37gpYOHbitFkyfc5C6d1VRbC6T8dZh2A9gAJWsLYs60UCJEACAUwAu7I8+kgJgaDjyqyAtVydLpt7AbmkcJ5zDiyce1UjsRBijqWDazTBJpJ6TtKZRiTcdCVg4bjqDVqYHWEyaeJPa8gZkTQsqXwwepj50e0KWFiK+POvvwvEKefE7rhmhvTpzBJEu4QwsQQshOD3eqGD5ueq6qgPwuk3aV4FClgB/KKw6CRAAiRAAiRwGwTeGT9FN7FZLYs1Yhz5MZ0tJgHLOfUBjn+uSy+5rJFBs3WJnTsGAevZZo2kU9uWtxyOlAtlq9Y1S/Oe0ok8a+9PmSELlqw0+aCQa6pO07bySu9uUks31rHWs98g9av+cERgPd2olUCAgg8V3TJmSO9WLlErYPXt2UXqPl3NcZl+g940+b/skj8IWMc1MgyTns6GzYN69x+iOVcnmyg1Z8NkphUM3RWwEN0PvzN58mQmh+sXer/oPqQ7bRAMx1DACoZWZB1IgARIIMgIYIbtxMnTOsO1wPGB3n/goGNJHyKruvR6Vd5563XH7n3LVq+Vt8Z8EEXA+k93KyyQL4+DzlGdJautIdgjXn9Vyj1eRvMWHNXZs+eMg4EQehgSilas2VhDxus6oqtOnDxljmtUt5Z07dDaHHe7AtaHs+fL5OlzjHCEBPEwOG7/7PrPJFiHJbaAVa1eM8moYtyCG5FhWDaAMHyIZRSwguzlYXVIgARIgARIIBYC2FWvZ7/BMm7UUE1y/uAtR8YkYGFHvjcG9HX4SpVrN5FSDz9ofDF3DAJW3jy5ZOGMiY7DIUrZicgGLTuYHQMnvzfC4ftV0c15YOuXz3P4Z8hB9dbgV83P4c/UVlELy+psDqy3x02URSrO2ch3HId8WkhW77yjYWxltgLWI6WKyzvDI+tnl1wiF5hNJxGTgIUli606dpcemgPrmRs5sHCNf/7d7UgAj3+7K2B11uWPv+oGPB9r/jBMsiK9xOzJ77mDPeiOoYAVdE3KCpEACZBA4BPYqbvFtH+hj9lSuGGdmrqF8Xb5att3xmEp9/gjZutgCDDXNTF500Z1NFT8gixavsok+LQRWH9oPoQ2nV80ua+wHDF3zuyCraOxCw6SYCIMHsIRnIfs2e6QKhoi3qlNCwOvx8uD5LsffpJHS5fQRJv3yNKVa1VQOyWLIXTd2AnndgUsbF2NJZLYEhnbJWfLmlnWaX4HLD1cu2SO2akmsQUs5JBYvnqdFNWkoWCxZPnHskuXDUBAo4AV+O8La0ACJEACJEAC7hCI9HvqmyTpTzqlFUA+pR5d2kua1KljTOKO65fWPJ3I/4lE45gEnDj2LXmwWBF3bq1L77ZJ34Fv6M7Nd2uUVQWNAt8qOzSaCfm3impeKptyobDm2apepaImeF9ndip8VwWy0pq0HDbs7ffMzn4PP1RMc4YWl5X635jgTJs2rUPAgtBUTlMnpNOfVav0pNl1ef3Gz+XCxYuySgWgFPFI4o4op+IP3K/LDkvIijXrTXL2UUMHSNlHS5vyxCRggfNzXXvL3ypklVJmJYs/IJ9u/srsZDj1/beliO5e7a6AtXTlGhn57niZPn6s2alwn9a3UauOMqBPd6lRrZJb7IPpIApYwdSarAsJkAAJBBGBH37eKV179TezZtitZlC/F43gYw25qp7r2sssDcRSvwlj3pSmz3WRdSoCpdeleLBduvtfz1dek8NHjpl/59YoK8w42mgr/Azi0ZCRY3WnwwixSTiv6T3HTZxmnCkYjh+r2xfnz3szmguRXLVrVNFEnM0cZeqtyT3363LFj6a+7/jZkhVrBLOBG1fOd4SMnz5zVjrqTouIEIPdc/edMmH0cEeiz01ffGW2TIaghXD3+BoSfWL3wuaN65tT4UgNe3ucOn3rzb9Lq9OHWdMl6hQtmzs1vpfn8SRAAiRAAiRAAgFIAL5OuafqGb8gutm0BR/Omiez5y8xm8/ALl3S/FQ1GwnSNjRr11XO6xI2+GX9NI/T0/EQUHBH+Devvv6WuX+qVCll5JABxh+xtk6FpjdGvWt2K4R49I76XqVLPuz4PZKYI7cUrgOro8v7zp49Kzt++T3KhNyJU6ekrS5xPKwiG+yhB4rKmGGDJHXqVG61mo3AQh1nzV9shCuUp0+3TiaXql2+10w34Dlx6oxjl2fni2OydZjWBZOSMGwEhGg1RHBZQ87S1KlT6kqAKY6fwW/8YOoMFeTmmaTtiEJrpjtgd2gdOckKG/vBFOPDITdYqBkFrFBrcdaXBEiABAKMgHWyYlrrj9/HlQcgrmsAiavruHNeQnB6+vrRy+bt+yWEDc8lARIgARIgARLwPQErYGGCMINOqiXUlzDSGQQ0FYRc7aQXqa3F7tu5WwZ3j4tO2QpYNmH87V7H+pf4Oy5f1fctHRgloIAVGO3EUpIACZAACZCANHq2kxzQHA4xGWZCX+n1AkmRAAmQAAmQAAmQQKIQiC5gRb/ot9t/0tQLr8V6ry8/WZYoZUmMi3Tt/ar8sOOXGC/VoFZ1adOyidRo2PKWHQ8T4/68RsIIUMBKGD+eTQIkQAIkQAIkQAIkQAIkQAIkQAJBSeDyZeQdfVYWzZpsdksOBTut6SkaPqt5pl7qIeV10x+a/xCggOU/bcGSkAAJkAAJkAAJkAAJkAAJkAAJkAAJkAAJuCBAAYuPBQmQAAmQAAmQAAmQAAmQAAmQAAmQAAmQgF8ToIDl183DwpEACZAACQQKgd17D0j4lauSL3cOSa0769BIgARIgARIgARIgAS8S+C//YfMzol5c2WXtGlSe/fmvJvHCVDA8jhi3oAESIAESCDYCWz55kfZ8s0Ppprp06WVLq0bB3uVWT8SIAESIAESIAES8CsC3/30m2z4YqspU/JkyaRXp5Z+VT4WJuEEKGAlnCGvQAIkQAIkEOIERo6fIdeuRRgK2Ca5b5fWIU6E1ScBEiABEiABEiAB7xKYPGeJHD952nHTl7u28W4BeDePE6CA5XHEvAEJkAAJkECwExg+blqUKtJhCvYWZ/1IgARIgARIgAT8jcCEWYvk1OmzFLD8rWESsTwUsBIRJi9FAiRAAiQQmgQoYIVmu7PWJEACJEACJEAC/kOAApb/tIWnSkIBy1NkeV0SIAESIIGQIUABK2SamhUlARIgARIgARLwUwIUsPy0YRKxWBSwEhEmL0UCJEACJBCaBChghWa7s9YkQAIkQAIkQAL+Q4AClv+0hadKQgHLU2R5XRIgARIggZAhQAErZJqaFSUBEiABEiABEvBTAhSw/LRhErFYFLASESYvRQIkQAIkEJoEKGCFZruz1iRAAiRAAiRAAv5DgAKW/7SFp0pCActTZHldEiABEiCBkCFAAStkmpoVJQESIAESIAES8FMCFLD8tGESsVgUsBIRJi9FAiRAAiQQmgQoYIVmu7PWJEACJEACJEAC/kOAApb/tIWnSkIBy1NkeV0SIAESIIGQIUABK2SamhUlARIgARIgARLwUwIUsPy0YRKxWBSwEhEmL0UCJEACJBCaBChghWa7s9YkQAIkQAIkQAL+Q4AClv+0hadKQgHLU2R5XRIgARIggZAhQAErZJqaFSUBEiABEiABEvBTAhSw/LRhErFYFLASESYvRQIkQAIkEJoEKGCFZruz1iRAAiRAAiRAAv5DgAKW/7SFp0pCActTZHldEiABEiCBkCFAAStkmpoVJQESIAESIAES8FMCFLD8tGESsVgUsBIRJi9FAiRAAiQQmgQoYIVmu7PWJEACJEACJEAC/kOAApb/tIWnSkIBy1NkeV0SIAESIIGQIUABK2SamhUlARIgARIgARLwUwIUsPy0YRKxWBSwEhEmL0UCJEACJBCaBChghWa7s9YkQAIkQAIkQAL+Q4AClv+0hadKQgHLU2R5XRIgARIggZAhQAErZJqaFSUBEiABEiABEvBTAhSw/LRhErFYFLASESYvRQIkQAIkEJoEKGCFZruz1iRAAiRAAiRAAv5DgAKW/7SFp0pCActTZHldEiABEiCBkCFAAStkmpoVJQESIAESIAES8FMCFLD8tGESsVgUsBIRJi9FAiRAAiQQmgQoYIVmu7PWJEACJEACJEAC/kOAApb/tIWnSkIBy1NkeV0SIAESIIGQIUABK2SamhUlARIgARIgARLwUwIUsPy0YRKxWBSwEhEmL0UCJEACJBCaBChghWa7s9YkQAIkQAIkQAL+Q4AClv+0hadKQgHLU2R5XRIgARIggZAhQAErZJqaFSUBEiABEiABEvBTAhSw/LRhErFYFLASESYvRQIkQAIkEJoEKGCFZruz1iRAAiRAAiRAAv5DgAKW/7SFp0pCActTZHldEiABEiCBkCFAAStkmpoVJQESIAESIAES8FMCFLD8tGESsVgUsBIRJi9FAiRAAiQQmgQoYIVmu7PWJEACJEACJEAC/kOAApb/tIWnSkIBy1NkeV0SIAESIIGQIUABK2SamhUlARIgARIgARLwUwIUsPy0YRKxWBSwEhEmL0UCJEACJBCaBChghWa7s9YkQAIkQAIkQAL+Q4AClv+0hadKQgHLU2R5XRIgARIggZAhQAErZJqaFSUBEiABEiABEvBTAhSw/LRhErFYFLASESYvRQIkQAIkEJoEKGCFZruz1iRAAiRAAiRAAv5DgAKW/7SFp0pCActTZHldEiABEiCBkCFAAStkmpoVJQESIAESIAES8FMCFLD8tGESsVgUsBIRJi9FAiRAAiQQmgQoYIVmu7PWJEACJEACJEAC/kOAApb/tIWnSkIBy1NkeV0SIAESIIGQIUABK2SamhUlARIgARIgARLwUwIUsPy0YRKxWBSwEhEmL0UCJEACJBCaBChghWa7s9YkQAIkQAIkQAL+Q4AClv+0hadKQgHLU2R5XRIgARIggZAhQAErZJqaFSUBEiABEiABEvBTAhSw/LRhErFYFLASESYvRQIkQAIkEJoEKGCFZruz1iRAAiRAAiRAAv5DgAKW/7SFp0pCActTZHldEiABEiCBkCFAAStkmpoVJQESIAESIAES8FMCFLD8tGESsVgUsBIRJi9FAiRAAiQQmgQoYIVmu7PWJEACJEACJEAC/kOAApb/tIWnSkIBy1NkeV0SIAESIIGQIUABK2SamhUlARIgARIgARLwUwIUsPy0YRKxWBSwEhEmL0UCJEACJBCaBChghWa7s9YkQAIkQAIkQAL+Q4AClv+0hadKQgHLU2R5XRIgARIggZAhQAErZJqaFSUBEiABEiABEvBTAhSw/LRhErFYFLASESYvRQIkQAIkEJoEKGCFZruz1iRAAiRAAiRAAv5DgAKW/7SFp0pCActTZHldEiABEiCBkCFAAStkmpoVJQESIAESIAES8FMCFLD8tGESsVgUsBIRJi9FAiRAAiQQmgQoYIVmu7PWJEACJEACJEAC/kOAApb/tIWnSkIBy1NkeV0SIAESIIGQIUABK2SamhUlARIgARIgARLwUwIUsPy0YRKxWBSwEhEmL0UCJEACJBCaBChghWa7s9YkQAIkQAIkQAL+Q4AClv+0hadKQgHLU2R5XRIgARIggZAhQAErZJqaFSUBEiABEiABEvBTAhSw/LRhErFYFLASESYvRQIkQAIkEJoEKGCFZruz1iRAAiRAAiRAAv5DgAKW/7SFp0pCActTZHldEiABEiCBkCFAAStkmpoVJQESIAESIAES8FMCFLD8tGESsVgUsBIRJi9FAiRAAiQQGgROnj4jR4+fclR2yccbo1S8fo1Kjn+nSpFC8ubOLmFhYaEBh7UkARIgARIgARIgAS8QOHP2nBw6esJxp3WbvpLzFy46/u3sj6VInkzy5c4hSZMm9ULJeAtPEaCA5SmyvC4JkAAJkEBQErhy5aqMnjRbrl+/7nb9qj75mJQodp/bx/NAEiABEiABEiABEiCBmAlcvXpNRk+cJRHx8MceebiYVCxbmlgDmAAFrABuPBadBEiABEjANwQWr94of+3aE+vNIW8l0T8pNQKrQ4v6kjZNat8UlnclARIgARIgARIggSAksPazr+THX/5wyx9LniyZtG9eTzKkTxeEJEKnShSwQqetWVMSIAESIIFEIgBxasLMhXL6zDmxQpWrS4eFJZHGtarKnflyJ9KdeRkSIAESIAESIAESIAFLYNq85XL42IlY/bEkSZJInWpPyH333EVwAU6AAlaANyCLTwIkQAIk4BsCyLEwXkUshLBf1/8lMfFWUe2Jx0rKYyUf9E0BeVcSIAESIAESIAESCHICFy9dlomzF8sl/ftWfyxymrHUQ0WlcrkyQU4iNKpHASs02pm1JAESIAES8ACBv3fvFSwndJUP6+4780mjmpU9cFdekgRIgARIgARIgARIwBLYs/+QzFu+TiIiIm6BkjtHNmnVqCZhBQkBClhB0pCsBgmQAAmQgG8IbNzyjXz74y8SGbseOdOXUfMrtG9eX5Il4043vmkV3pUESIAESIAESCCUCHz13U+yeev2yCojsbsuG0yVMoV0af2MJNcdCGnBQYACVnC0I2tBAiRAAiTgQwKT5yyR4ydPmxJAtHquSV3JnCmDD0vEW5MACZAACZAACZBAaBGYu2SN7DlwyFQ6TAWstk3rStYsmUILQpDXlgJWkDcwq0cCJEACJOB5AteuRcjbE2dq6Pp1qfvUk0wS6nnkvAMJkAAJkAAJkAAJRCGAJYRjp8yV8PArUqNiWXmw6L0kFGQEKGAFWYOyOiRAAiRAAr4hcO7CBTl56ozky53TNwXgXUmABEiABEiABEhFJiVbAAAgAElEQVQgxAlcuHhJjuiuhNwBOjgfBApYwdmurBUJkAAJkAAJkAAJkAAJkAAJkAAJkAAJBA0BClhB05SsCAmQAAmQAAmQAAmQAAmQAAmQAAmQAAkEJwEKWMHZrqwVCZAACZAACZAACZAACZAACZAACZAACQQNAQpYQdOUrAgJkAAJkAAJkAAJkAAJkAAJkAAJkAAJBCcBCljB2a6sFQmQAAmQAAmQAAmQAAmQAAmQAAmQAAkEDQEKWEHTlKwICZAACZAACZAACZAACZAACZAACZAACQQnAQpYwdmurBUJkAAJkAAJkAAJkAAJkAAJkAAJkAAJBA0BClhB05SsCAmQAAmQgCcIXNeLXrp2VS7on4vXrunfV8zfF6/qvyOuynUcEIOlCAuTNEmTSWr8SZbM8d/4WdIkSTxRXF6TBEiABEiABEiABIKOANyty1evy6Ur1+XilQj9o/999cbf+t8RsdQ4RZhIquRhkjp5Ev07if6t/50s8r+ThdEfC6SHhQJWILUWy0oCJEACJOARAmeuhMvBSxf0z3nZr3//fe607D1/TvZdPGf+fe16bG7R7RXpjhSpJG+atJI/dXrJnzadFEyTQXKmSiO59A/+ppEACZAACZAACZBAKBE4H35dDp29Kkf0z6Fz12TX8Suy//QVOXDmqhzUP6pXJbplTBUmeTIm0z/JJbf+fVfmZJI9vf5Jl0xypk+a6PfjBRNGgAJWwvjxbBIgARIggQAjcDz8kvxx9pT589Pp47JD/xxSkcqfDBFbxTJkkYcy3SFF0meW+/RPgTTpJIxRW/7UTCwLCZAACZAACZDAbRI4fSlC/j4Wrn+uyK+HL+sfnUxUkcqfLGXSJFI4ewopmjOlFM6WXO7JmkLyZ0ouSTWii+YbAhSwfMOddyUBEiABEvASgfCICNl0dL8sPbBLfj1zQo5evuSlOyfubVIlTSqF02WSJ7Lllrp5CkrOlKkT9wa8GgmQAAmQAAmQAAl4iECErgHc+t9FWfHLOfnzaLgc0QirQLQUKmrdfUdyeSR/Knm6aDrJnSFZIFYjYMtMAStgm44FJwESIAESiIkARKtlKlh9cnivfHfyiODfwWb3pMso5bLmkoZ57pa70qYPtuqxPiRAAiRAAiRAAgFO4Mq167LhrwuyUf9s33dJwvXfwWb5MyVTMSu11Lo/nRG2aJ4lQAHLs3x5dRIgARIgAS8S+EUjrN7/Z6d8efyQXAlC0coVSqQeLZw+kzTJV0jFrIJcZujF5423IgESIAESIAESuJUAcld9+O1p+Xr3RU20HnyiVUxtfleW5EbIavgg0z546r2ggOUpsrwuCZAACZCA1wj8qUnXB/yyTXaePiGh4ybdijerJobvWLCoNM9/r9fY80YkQAIkQAIkQAIkAAL7Tl+VNzcel58PXhYsGQxVQ2L4Zx5OL61KZgxVBB6rNwUsj6HlhUmABEiABDxNAL5Rv5+3yepDu3WnwBD2lKKBzpc6nUwvXdHsaEgjARIgARIgARIgAU8TGLv5pCzbeU53CqQ/ZllnT5dURtfJLndm5tLCxHr+KGAlFklehwRIgARIwKsETuhugvW+XhuwSdk9DStZkjAZXqyM1MhVwNO34vVJgARIgARIgARClMC5yxHy7LxDcvisf+0g6C/NgR0LuzyeWRoXZ77SxGgTCliJQZHXIAESIAES8CqBQ5cuSNUvVspVRl3FyX1AkZLSVPNj0UiABEiABEiABEggMQmcvnRN6nx4gFFXbkBtXTqDtCuTyY0jeUhsBChg8fkgARIgARIIKAJXrkdIhc+Xy4nwywFVbl8WdkXZ6nJPWuZh8GUb8N4kQAIkQAIkEEwEkLqhwbQDcuzCtWCqlkfr8nbtbFJGdyyk3T4BCli3z45nkgAJkAAJ+IDA8gO7pN/ObT64c+DeMnPylLKlQl1Jov+jkQAJkAAJkAAJkEBCCfyw/5K8sPRIQi8TUuenTxkmq57LI0nD6I/dbsNTwLpdcjyPBEiABEjAJwSafbNefjx13Cf3DuSbbq/USFIlTRrIVWDZSYAESIAESIAE/IRAz+VH5Nu9l/ykNIFTjAWtckvuDMkCp8B+VlIKWH7WICwOCZAACZBA7ARKbFwol64xXD2+z8k3FRtIumTcBSe+3Hg8CZAACZAACZDArQSqTNonF8MjiCaeBKY1ySmFsqaI51k83BKggMVngQRIgARIIKAI1Plqjfx17nRAldkfCvt9pYaSOiln/PyhLVgGEiABEiABEgh0Au0XHJLfjoQHejW8Xv6PWuSWfJnoj90ueApYt0uO55EACZAACfiEwHt//yzj//3FJ/cO1JumDEsq36mAlTQJcy4Eahuy3CRAAiRAAiTgTwSW7Twnozad8Kci+X1ZkidNIqvb5ZE0ycP8vqz+WkAKWP7aMiwXCZAACZCASwJHLl+U6ltWyUUuI3T7CRn+wKNSO9edbh/PA0mABEiABEiABEggNgLnLkdI/en75cKV6wTlJoHOZTNJs4czuHk0D3NFgAIWnwsSIAESIIGAI7D52AHptH1zwJXbFwWumj2vjH6orIQx+soX+HlPEiABEiABEghaAr8cuiwdFx0O2volZsVK50slI2tlk2TcgTBBWClgJQgfTyYBEiABEvAVgU+P7JeeO76UKxFMIBpTGzTIU1AGFCklKcIYqu6r55T3JQESIAESIIFgJrB93yXps/KoXL7GSKyY2vnJu1NL/8pZJVVypnJI6LtAASuhBHk+CZAACZCAzwjsOn9Wuv24Rf45z6Tuzo2QNEmYDL3/Eamdu4Ak0f/RSIAESIAESIAESMBTBA6dvSoD1x6TXw8zqbszYwRb9SifWeoWS6+R8J6iH1rXpYAVWu3N2pIACZBAwBN47ddvZXDR0o56XL0eIYv375I3f/9ewhmNJZV0yeDAIiUlW8rUDkY7z5yQgmkzSBruQhjwzz8rQAIkQAIkQAL+QKDfx0flzRrZHEW5FnFdNvx1wSR2v8i8WFIybyrpVymL5Ex/c8fBXcfDJYmmdLgzS3J/aMKALAMFrIBsNhaaBEiABEKXQNFP5sn9GbLIjNIVowgy569elRUHd8swFbKuXQ+9MPYqOfJKv8IlJGeqNFEejuF/bJfZe/6SryvUl/TJ6DCF7pvDmpMACZAACZBA4hH437g9RoiZ0CCHpEt5M1XBpavX5bO/L8joz0NTyCqTP5X0qRBVuAL16d+dlunfnJGJDXNI4ewpEq8hQuxKFLBCrMFZXRIgARIIdAIQsGCpkiaVd4uXk//dkTNKlSBenQi/JAM1UuvzowcCvbqxlv+OFCmlf9FSUu6OXLdEV52+clme2bZe9lw4Z66xrWIDClhB/TSwciRAAiRAAiTgPQIQsGApkiaRfpXvkCqFok6gaUCWnLp4TcZuPimfqqAVzJYmRRLpWT6LPFEwtaRJETXv6Pnw69JlySH5+9gVg2Bq45wUsBLwMFDASgA8nkoCJEACJOB9AlbAsne+W5fGzSxdSTKrmBPdIlTMOnU1XMb++ZMs2v+v9wvrgTvemz6j9C9SWopnzCLJNNeVqzq/snObrDr4n0TIzUg0ClgeaAxekgRIgARIgARClIAVsGz1c2dIJu/Wy6FL5pK68E3ELCucsu2ULPzpbFAQy58pmXR/IouUyJ1SkquIF92wGGDsFydk6c/nBGKeNQpYCWt+ClgJ48ezSYAESIAEvEwguoBlb58xeQqZ+UhlKZgmvSTV/AIx2e9nT8mCvX/LmsN75IIuO7ymIg+ELn8ylD5M64Bk7KUyZZVGee+RSjnyuBSsUG6U/mT4ZemuCe2/P3XUZVUoYPlTC7MsJEACJEACJBDYBKILWLY2aTUa6e3a2aVIjpTqx8Rcx/9OXpXlO8/K+j/Py9nLkb6Ys9DjL3SS6lwh/MqiOVJI7fvTyZP3pDFRZ64M/tj58AgZtO6YbP3vkstjKGAlrGUpYCWMH88mARIgARLwMoGYBCznYjTJc7d0uqeYZEiWwiw1jMuwm+GW4wfl62OH5NezJ+VyxDW5ognhr2iC+Kv6tyfkLThDycPCJHmSpJJC/86pSdcfzZpTymbJKY/ekSOuIps8X2euhMvqQ//JqD9+lHAta2xGAStOpDyABEiABEiABEjATQIxCVjOp1e7N420fyyTZEqdVFIli3sbvgNnrsm2PRflW/3z25Fwuaz5tK5eu64+mZi/PeOPiSRTQQpRVMl1q8AsaXTyMF8qKZ1P/bICqeKkAdHt7OUI+eLfiybvV7iWMzajgBUn0lgPoICVMH48mwRIgARIwMsE3BGwnItUQCOyWuS/V8plzSXIGZU2nonMMSN4+PIlOXTpvBy8dEEOXDyv/33B/PdB/VlsslGW/7d3FuBRXU0YHuKEEIIGl2Jtcf2LU6RIcXd3L+7uUqBooZQixZ3iULRAKVoo7u6EBOIJ/8wJd9kY2exuNsnmG559kuzec+8577nhTr4zM4ejwtI6JaF0Ton55ULpnZ1ZqHKm9Fxo3SmaOwKKoCa1vW6z2Lby/nU6+OJRtMhDwIoWLhwMAiAAAiAAAiDwGQKGCFj6zd05tbBBflcqnS0xJWeRyCVMraioYEuw/Mv3QfRMXp6B9MwrkJ6/4+/56zP+KrsgRmauTjbk7mJHabgP7rwroOwM6O5iS2n4PalfFR0L5Ot4+ATTA49A2nTRiw7d8qboBPJDwIoO7fDHQsAyjR9agwAIgAAIWJhAdAWssN3LlNiFaqXPSv9LkYbSsJiU2tGJEkdTTIrpIUt01UsWq176+dA1Tnnc+fQ+nXz9zKRURwhYMT1rOD8IgAAIgAAIJBwC0RWwwpJJk8SWqnyVhIpztFMq/j4lv5ztw9f2jE2ioom98Q6iV/y68zqADtx4zxFiviyWGd8rCFjGs5OWELBM44fWIAACIAACFiZgqoAVUXfdOX3v66TJ6WsujJ7LhUPdOXLKlV9SV0u+OptZ4JJoKk8uLv+WUwC110Ofd3TZ8w395/mao6w8VYqgOQ0Cljlp4lwgAAIgAAIgkLAJmCpgRUQvhbMt5U5tT7nSOFKOlPaUjCOnkjrakKuTrfoa3WipqGZIoqmk/paXbxB5chqgl28wPeGIrusvAujacz+6zaKVKWJVRNeHgBXVrHz+cwhYpvFDaxAAARAAAQsTiAkBK6ohSI2qDBy5Jal/Lvb2lNjGTkVtSX0t9dVGvtqqmlbvuTC8D9fQ8g3ir0FB/Ark70O+PpMURE479GDhytIGAcvSxHE9EAABEAABELBeAjEhYEVFy45rVKVzDUkDFEFL6mo58suJI7fke/WyT6SKrL/3/0C+XEPLLzCYfHkHRPlevbiglqQiPmWhSlIBLW0QsEwjDgHLNH5oDQIgAAIgYGECsSFgWXiIMXI5CFgxghUnBQEQAAEQAIEESSA2BCxrAA0By7RZhIBlGj+0BgEQAAEQsDABCFjGAYeAZRw3tAIBEAABEAABEAhPAAKWcXcFBCzjuGmtIGCZxg+tQQAEQAAELEwAApZxwCFgGccNrUAABEAABEAABCBgmesegIBlGkkIWKbxQ2sQAAEQAAELE4CAZRxwCFjGcUMrEAABEAABEAABCFjmugcgYJlGEgKWafzQGgRAAARAwMIEIGAZBxwClnHc0AoEQAAEQAAEQAAClrnuAQhYppGEgGUaP7QGARAAARCwMAEIWMYBh4BlHDe0AgEQAAEQAAEQgIBlrnsAApZpJCFgmcYPrUEABEAABCxMAAKWccAhYBnHDa1AAARAAARAAAQgYJnrHoCAZRpJCFim8UNrEAABEAABCxOAgGUccAhYxnFDKxAAARAAARAAAQhY5roHIGCZRhIClmn80BoEQAAEQMDCBCBgGQc8pgSsD9ydRMZ1Ca1AAARAAARAAATiKYHSc+/H057HbrchYJnGHwKWafzQGgRAAARAwMIEIGAZB9zcAlZQUBBt3XOY3nt7U4v631OiRJCxjJsZtLImAkePn6LL165TpzbN48XvxI49B+iNx1tq0bhevJuGDx8+0O279+mvk/9QxvTpqEK5UvTP2Qt07t9Lij8MBECA6Nbdh7T70HFqWKMSpUmVwqxIIGAZhxMClnHctFYQsEzjh9YgAAIgAAIWJgAByzjg5hSwvN69p2Xr/6B3771VZ3p3aEaJnRyN6xhagYAVEZgyaz7t3HuA/ty+nmxtbeL8yLr3G0o3bt2lvVtWxfm+hu3g8b/PUP/hYylVyhRUpkRxGtC7Ky38dQWt3rCVDu/cEO/Ggw6DQEwQ2Lb3MF2+fludunqF0pTvqxxmE9chYBk3YxCwjOMGAcs0bmgNAiAAAiAQSwQgYBkH3lwC1t0Hj2nt1j0kqYOaQcAybk7QCgRim0B8FrCat+9BPn5+tGnl4tjGiOuDQJwloC9gSSfz5s5O1SuWJhsb0wV2CFjGTTsELOO4QcAyjRtagwAIgAAIxBIBCFjGgTdVwJJ0nZNnL9LhE2fCdQAClnFzglbxj4AHp9uFM06fdUvmqt72Y0HFzz+AXJO66A7zeOupPpevz56/UJ+lS+tu1OCfPntObz29KGWK5CryKKzJ5x78eQq3ZJQmdapwn/sHBNDDh4/V+5kzZaDeg0ZGGIElUZZyrsSJnShDunQcsWF4d+X/irc81qSuSek9R2k+4fO4JHGm9Dxm/VTjd3wNKaCXxNmZHj99Rh+CP1DGDOl0FwqQvj5+SnI+SRF0cLDXfeb17h1Vb9CK3NOkol9+mkaOHAGa2MmJ/P39ydfPX8ff08uLHOwdyEkvQtTb24cCAwPJlfsHAwFrJ6ATsPQKVrq6JKE2jWuRM/9+m2IQsIyjBwHLOG5aK6QQmsYPrUEABEAABCxMAAKWccBNEbCCgoJp084DdOveQ3XxD/wvkfzl+dEh/rZUMf4j8dMfl8b1EK1AIO4QsGHFJq17KnIPUzOmZOXaSlAJa1tX/6oEo2mzF9LWnXvo2J7N6hAfXz+qUKMhTR03nAaOGK9rVql8aRo7bIDBqTz+LIoNHTOJ/vr7tO4cLZvUpy7tWqpICj8WbQaPmkgnT5/VfV79uwo0YmAf3c/3Hjykbn2H0us3Huq9L7JmUWmOT5+9CJVC+Pv6zTT356W6drlyfEEzJoyMUDCLaMZE+KrbvAM1rleLNmzdQVIvT0zS/MaPGMhClIP6uVKtJhTAQlLmjOnp5u276r3G9WtRn64d6NKVazRo5ARdX5OwADZp1BAqVriAOq5EpVqhLl2+TAn1+ZLlq2nluk108I/16vO+Q8dwTaz/aNeGFUrECggIpPLfN6Cypf6njtdM+N68+0CJjzAQsCYC/165ziLyS92QtOe3iMlNalehLBk/icbRHTcErOgSCzkeApZx3LRWELBM44fWIAACIAACFiYAAcs44MYKWJ4cJbF07Tby8fHVCVZ6njC2IDRuOtAqnhDo2LwepUyeTNfbM+f+1X0fGBRI46bOVsLI6iXzyd7ejgWsBSxg7f0kYPHvTYWajVSbSaOHUtbMGWnTtp20fssfNHxAb/q+SkWDSEyZOY+2795P/Xt1ocIF8tLJf87SyrUbaeGsKSqyafi4qXTg8DEa2KcbFS9ckI6e+JtmL1hCHbmYebsWjZXW3KZLH7rP0VdD+/Wk7Fkz06btu2gj9yWpi4tOwHrw6DE1at2F2nKbujWq0gM+fvj4qZQpQ3r6efYUg/oqEVf1WMASLnKtHNmy0pYde2jd5u00clAfqla5gjqPCFiyCUSnts2pasXySrQqXqQQ2dvZUe1m7Vhgy0wDenVVXGfMWcQF2s/Tvq2rOZoriSo8X6tJG3JPnZoWzJxEzs6JVSTXLyJgrd1Eh3aECFi+vr58XDsqXCgfTRo5mDr2HEAi5O3ZsppEpNRszZY9dPdjZJpBg8RBIBCPCYgILwKWvMqXLEr/K5TXqNFAwDIKGwQs47DpWkHAMhEgmoMACIAACFiWQIH96yggONiyF7WCq52qUJ9c7KIfJbVk9WZ68SokYkMvAyGESLg3rAAUhgACegQa1/qOsmXOECETEYi27dpLyxfOpgzp06pjIhOwhvbvRTWrVlLHSNRRlTpNqUC+PDRz0ugoeQcGBlGZqnWpdIliNG3cCN3xwZxyZ2MTIsJUqduMqlb+ln7o1lH3eYsOPTmd0JP+WLeMXr1+QzUatVbClP4OfQ1adSZPTjnUirh36NGP7t5/RPu3rdGd59CxEzRk9CTatvY3Sh1B2mLYAWgCVvNGdalHp7a6j5u266bEskU/TVXviYDlwwLTX3u3hDrFcY4y6zdsLK1f/rNKHRST1Mfv6jTjqLV+VLbkN+q9stXqUzr3NLT2twW69mEFLPngxKkz6nytmjag5avX0zKer5zZs4W65vQFyynwY6RYlBOCA0DACghokVgSwTmgayuDo0H1h15hwQPyDwofkWoFeGJ0CL82Tku5UodEosKiTwACVvSZoQUIgAAIgEAsEmhwcg9d9nwTiz2In5c+U7EBJba1i3bnvTmCZMnqLRwp4aMEqw/897IubgECVrR5okH8ItC5ZQNKnix8raTDx07S0LGTaTqn1pUoVlg3qMgErIM7NpCT46c/WDpwJNCHD8G0ZO6MKIFIXa3y3zekXl3aUdMGdcIdrwlcc6aNo6KFQlLsxBYsWa4irPZvXaOijpq07cZRYEOofOkSumO69BlMt+/e1wlYkppnz+nAZUr+T3fMWxbBJPJMor0K5P0qyv5qAtb44QOpIqdKatZn8Gi6cu0G7dn8u3pLBCypWXVk96ZQ59y2ax9NmjGHypcpGarQ9NHjJ6lR3VosirVRxxsqYMmxAzh989iJU1SvZlXerbBbuDGs375PlyId5QBxAAjEcwLao1sisKqUL0EF8+Q2akTdNz2jC4/9jGqbkButbZmeMiSLvj+WkJnpjx0CFu4EEAABEACBeEVgxb1rNOnauXjV59jurDMLVxKBpZ8yE50+SaTH9n2H6cqNO6pZ2BpYNSuXDVVgOTrnxrEgEBcJyB92KbkQenK3kOLs+vbi5Suq3bQdtW/dlNq3aBLqs8gErKMs0thxapxmnVk4CmDx5tf5P0Y5fF8WsL5lAeuH7h1ZwKkZ7nip31Suen2a/+NEKpT/UyrQ4t9W0dpN21Q01d37D0kioKaMHcYRTJ/Eqa4/DKFbd+6FErAcWWhr1rBuuOtISmHqVCmj7K8mYE0cNZi+ZRFKM6lHdfG/qyoNUEwELCmmfmjnhlDnlBpik3+cR62bNiQbrtGlb0UK5qMiBfOrt6IjYLXm9MnrN28rAU6EuLAmUXGPnjxX0XEwELAmAqfO/0cPHj1VQ9I9u/l7+T+udaOalDZ11L/TkfE4fNubhu38VF/LmrjF1Fic7BLRro4Zyd42GjtjxFRn4ul5IWDF04lDt0EABEAgoRLwCgygCoe30nuuPwMzjMDK4hWpsFtqww6O5CipmXHh8nXaffD4R0eYHeCPy7jYhdAktGgczwhUrNWYcufMTvNnTAzX88gErIWzJrN48rXu+Kr1mlOOL7LR3OmfCrtHhkEKj5etVo9TECvT0P49IzysQo1G1LV9S2qoJ3D1Hsw7DN68Qzu5gLnsflinWXvqzQXSm3ChdM1adOxFz1+81AlYTdt3p5cs0O3jqC1jTROwundsTS0a19edpn33fqqo/aolc9V7kQlYR47/rQq4b1q5+LO7NRoqYImIN2v+L5x+OVxFYk1lEU8/wszYcaIdCMQHAtouhPrilRvvwNmWdyEUsdoU8wv8QHWWPiIvP5R1MJTjmCqpqGJOZ0MPx3EREICAhdsCBEAABEAg3hGQFEJJJYRFTaBH9rzUlV/mWut78vwlLV//R6id2CBgRT0POMI6CEhxck8vL06DW8U7+NmGG1RkApYUNNd2xjt28hQNGD6eOrTiCC5+GWISsXXtxk3aunopJeM/PiUlcNyUWfQTpw06J05MnXoPoqucnrd93W/8uavave/7hq2o8rdluW5Uf/X7Wq1BS7V76ObfF3OBdSfaf+gYjZwwTRVF12pg/Xf1GnXoMYDat2xKHTjCTGzvwcO0a+9B+nHiKIPq5GgCliv3c+uqJepah7mO1tAxk6kz75ootag+J2B5vPWk6tzXPF/mooVcON6Wa/S8ePWKevQbRot/mkZyXjFDBCyvd++49lcbatKgNnXlaw/inRr/5gL4f/IuhVr9MEP44xgQiK8ENAFL63+hvLmpcrkSRkdkh+Xw8G0gNVnxOL7isWi/6+VzoR/KpuD/Ry16Wau7GAQsq5tSDAgEQAAEEgaBe95eVOf4bvILDtmiHRaewMivilLjTNnVH63mNElp+nX1VpIdCsUgYJmTLs4VVwlIke8yVeoqEccujHi1kaOFJL0uMgGrHacaLlu1juwd7HlnPD9K656aNixfFKEIFtH4vfh3TUSdIO6Do6Ojqh2V96vcNI+jwOzsbNVufnWatldfnfhzKY6e1CUJ7dq4UneNv0+foz6DR6m6Ug5c50oKo6dP505v334q4i7X7jlgOJ3mmldyjPzXISmKXdu3opZNGhj0h5cmYJUsXpROnj6rzuPH/XVJ4kybWdCS3QLFIovAks927z9IYybPVH2XXQj9/Pwpz1e5OE1yktqlUMwQAUtSB588fc4cVqhzBfMGIKW+q0O5uIj7sp9nx9VbDf0CAbMR0Bew6lWrwPd+FrOdWzvR83eB1Oz3J+QbgILukcFtVzwZtSmWjIVDs+NPcCeEgJXgphwDBgEQAAHrIRDEUQUtTh2gC29Rg0F/Vh35D9QtJatRFufwxafNNfsS0bFlzyFV2L1utW/NdVqcBwTiNAGp2RSRafWtRCCRmnEiKon58CYIFWo2ouP7OO35vTcd5ULiuXN8QdmyZjYomkn/WvI79/DRE7rMkVb5uZZT2jSpQ51DPn/w8DFdunqdihXKT6l4x0AR2/RNRKvT5y4oUbt4kYK6j8JGkxZJR1kAACAASURBVHn7+NDpsxcoMUd3FS6Qj8Wf0LWoPjdJmoAlKXv5vv6STp05z+PNRNmzZQ3VHyk+LwJZWDFQO7d8fvHyFfLw8KRihQuQCwty+iaCooxOv++KP3PQzinnkEgrEe00CztHcfqGQ+dAwEQCN+8+oE07D1DnFg04OtPFxLNF3pz/26NBO17Qibu84QtMR8CeHwULG6Sl3Nh10Gx3BQQss6HEiUAABEAABCxBoPU/B+jXohXIVu8Ps3MsYHU7e4TeBvhbogtx9hr2iWyoXbYvqXeOkCLHmv35/CEVT+FOLnYcUQEDARCwGAF9ASusmCSdePX6NV2+evOz/SlTsrjF+hvVhc5f/I+8vEIiLyOyjBnSqpRBSbUUAat0ibjT96jGhs9BAASiR6DZ749pedN0ZKcXVnTjVQD13/qcXnkn7Oh40fxr53GhvuVShIJ65oEvuTjZQNCK3q0W6mgIWCbAQ1MQAAEQAAHLE/h67xpKbu9I6775jjIkDr0if/zVUxp5+R966uNNwRIalABMIhCSMY9mmXOS1LvSN1+OUOh14Sgde/mU/uZdCJNCwEoAdwSGGJcIRCVgXb56g1Zv3PLZLo8bNiDODOnnpSvp4eMnkfan9P+KU/58X0HAijMzho6AQMwRKD33PiVxSESLG6alzMlDL5BdeuJHEw+8okeegRSUgGq8J3W0oepfJaGepZOHAu8f9IEm//ma9l57T0sacURWGtMK6MfcrMb9M0PAivtzhB6CAAiAAAjoERABS7NBuQtR00w5yUEvPUT7bOq1c7T/+SN67PtepZRYm6V0cKKvXZPTD7kK0JcubuGGd8HjFXU6e4hk10YxCFjWdgdgPPGBgKT17dhzgGpUrRQfumuWPvpxjby9fx7l6KtilNwtmVnOiZOAAAjEPQIiYGkm9Z1aFnElR7vwRZ4Wn/Cg/Te96amIWdbnjpFbYhvKxgJel1LJKY97eGHq+gt/6r/9Ob32DlHyIGCZdi9DwDKNH1qDAAiAAAhYmIC+gCWXTuOQmEbnKUalU6blMPbwdVp8ggNp7f2btOvZA7rz3pPefRR0LNxtky9nz2PLnNiF/sepgK2y5KbMzuFrWcg22Ve93tLkq2fpnzfPQ10TApbJU4ATgAAIgAAIgAAIfCSgL2DJW26cGte3fAoqlTVxhEJWIOs32y7xphHXvenumwB65xc/Q7MkZTKdqy0VTO9IjQq6UrYU4csziE53h9MpF7J4dzxMXTAIWKb9CkHAMo0fWoMACIAACFiYQFgBS7u8M+9M1YdrP1VKk5HSOoXschWRPfB5T8dfPqHTHi/o7nsveujzLs7VznK0saWMnB6ZiUWqAslSUgkW5/K6poh022vvoEBOE3xCc25epFss0kVkELAsfKPiciAAAiAAAiBgxQTCCljaUJ04CqsN77pXMYczCz0hu4ZGZM+8guifBz507pEfPfAIpEdvA+itb9wStextWaxKakcZktnRV5z2VzSzE0dZOVJk+1pIquCp+7706ykPuv4iJAI+rEHAMu2XAgKWafzQGgRAAARAwMIEIhOw9LtRkqOUqqXLQkWTpzZoJ76nvt50zYudjXceHKXlRc/8vOmVvx+99PMhDy4MHxMpiFKPStIAUznKKzH304VycSpgTn7lcHGNkqqkBv7z+jkd4ALt25/co8APn3f6IGBFiRQHgAAIgAAIgAAIGEggMgFLv3mBdI5UOXcSKpTBkbKEqZMV0WVec/H3Gy8D6NZLf7r3JpCevwukNz5BKv3Og7/KbofmtiQONpTc2YZSJLalFM68gOhmR1+ktKfsKR34FfXmNz4BH+j8I186dseHdlx5RxJp9jmDgGXaDELAMo0fWoMACIAACFiYgCECln6XRCQqxRFMknpXWAla0dtGWsQrz0B/JWR5BPjRW/+Qr/KzJ78+50slsbUjNwdHLrLuQG5caD3k5UAp+D2bMNvbR4XRMyCAznHU2Ok3L0iK1V/xehNVk1CfQ8CKFi4cDAIgAAIgAAIg8BkChghY+s1dOcWweCYnKpzRiQpw+p0hgpZ+eyln6sVph578kkgtTxa0PPmrfC/vf07ccrZPRHJ9eSVzstV9n5xFq8iiqSIburf/B7r01I/OP/ZTEWRXn33eFwx7HghYpv1aQcAyjR9agwAIgAAIWJhAdAWssN2THQzzu6WkL5O6UT5Oz8vPr1QscsUl8w0Oosuer+mix2slVF3i76V+lykLjxCw4tIMoy8gAAIgAAIgEL8JRFfACjta2bHv67QOlDOVg0rP+zqtI6VOYhunoASwKiapgFdYsLrOUWFXn/vT3dcBJkWCQcAybYohYJnGD61BAARAAAQsTMBUASui7rpwOl9aR2dyd0pMqSWdj4ulZ+BIrUzOSShD4qQscDmadZRSs+oR1+J6wPW3Hni/U3W4JI3xma8PPf2Yvii7l5nTIGCZkybOBQIgAAIgAAIJm4CpAlZE9CRSKrWLHb9sKRWLWRm59lRaqUHFaX3p+WtKMwtcvoEf1O6Ij/j1+C2/+KukLb54F6y+SkqjudMWIWCZ9nsDAcs0fmgNAiAAAiBgYQIxIWBFNQRbTvdLaufAL3tysLUlO/7ZPpGN2vXQTr7yz/K9HBcQHKxeUpMqkEWoQPlZvuev77luldSukggrSxsELEsTx/VAAARAAARAwHoJxISAFRUt3gCQXDhyy4XrVjlwsXjZEdCON6CWr5IKqP1syz8HcEF1qUcVyApUEL+07wPZBfMOCFa7IIqAZWmDgGUacQhYpvFDaxAAARAAAQsTiA0By8JDjJHLQcCKEaw4KQiAAAiAAAgkSAKxIWBZA2gIWKbNIgQs0/ihNQiAAAiAgIUJQMAyDjgELOO4oRUIgAAIgAAIgEB4AhCwjLsrIGAZx01rBQHLNH5oDQIgAAIgYGECELCMAw4ByzhuaAUCIAACIAACIAABy1z3AAQs00hCwDKNH1qDAAiAAAhYmAAELOOAQ8AyjhtagQAIgAAIgAAIQMAy1z0AAcs0khCwTOOH1iAAAiAAAhYmAAHLOOAQsIzjhlYgAAIgAAIgAAIQsMx1D0DAMo0kBCzT+KE1CIAACICAhQlAwDIOOAQs47ihFQiAAAiAAAiAAAQsc90DELBMIwkByzR+aA0CIAACIGBhAhCwjAMOAcs4bmgFAiAAAiAAAiAAActc9wAELNNIQsAyjR9agwAIgAAIWJgABCzjgEPAMo4bWoEACIAACIAACEDAMtc9AAHLNJIQsEzjh9YgAAIgAAIWJgAByzjgELCM44ZWIAACIAACIAACELDMdQ9AwDKNJAQs0/ihNQiAAAiAgIUJQMAyDjgELOO4oRUIgAAIgAAIgAAELHPdAxCwTCMJAcs0fmgNAiAAAiBgYQIQsIwDDgHLOG5oBQIgAAIgAAIgAAHLXPcABCzTSELAMo0fWoMACIAACFiYAAQs44BDwDKOG1qBAAiAAAiAAAhAwDLXPQAByzSSELBM44fWIAACIAACFiYAAcs44BCwjOOGViAAAiAAAiAAAhCwzHUPQMAyjSQELNP4oTUIgAAIgICFCUDAMg44BCzjuKEVCIAACIAACIAABCxz3QMQsEwjCQHLNH5oDQIgAAIgYGECELCMAw4ByzhuaAUCIAACIAACIAABy1z3AAQs00hCwDKNH1qDAAiAAAhYmEDhA+vJNyjIwleN/5c7VaE+udjZx/+BYAQgAAIgAAIgAAKxTqDyzw/IJ+BDrPcjvnVgaZO0lDOVQ3zrdpzpLwSsODMV6AgIgAAIgIAhBJqd2kfnPV4ZciiO0SNwtmJDcrK1BRMQAAEQAAEQAAEQMJlA323P6dR9X5PPk9BOsL5VekrnapfQhm228ULAMhtKnAgEQAAEQMASBP54cpcGXjxpiUtZzTWS2TnQiQr1rGY8GAgIgAAIgAAIgEDsErj0xJe6bHweu52IZ1d3cUhEuzpmokSJ4lnH41B3IWDFoclAV0AABEAABKImEPAhmCod2UYv/LDqFzUtIvGRdpepQZkSuxhyOI4BARAAARAAARAAgSgJBHH2YOPlj+ipF8o6RAnr4wFz67lTwfSOhh6O4yIgAAELtwUIgAAIgEC8I/DU15tq/LWTvIMC413fLdlhEa8m5/uGaqbLasnL4logAAIgAAIgAAIJgMBb3yBqvOIJvfMLTgCjNX6I4o91L+VGTQq5Gn8StFQEIGDhRgABEAABEIiXBDwC/KjJ3/vovve7eNn/mO601LuaXaA0lUmVLqYvhfODAAiAAAiAAAgkUALv/YOpy4ZndOd1QAIl8PlhO9gmokEVUlCV3EnAxwwEIGCZASJOAQIgAAIgEDsEZO+bCVfO0LqHNynwA3bC0WYhj2tyWlC4HKVycIqdicFVQQAEQAAEQAAEEgwB8cAWnfSgNee8KEByC2GKwBcp7Wny96kpPYq2m+2OgIBlNpQ4EQiAAAiAQGwRuP3eiyZdPUMnXj2jYEq4jlMW56TUI0de+j5tltiaClwXBEAABEAABEAggRJ44hVIPx15Q8fv+lBC1rHck9pSm6LJqGYe1B81968CBCxzE8X5QAAEQAAEYo3AdS8PWnb/Gu14co/8gxNGPQYb3sqmWPI01DRTDvrOPVOssceFQQAEQAAEQAAEQEAIPPAIoDXnvWjftffkHZAwFhalzlXedI5UJ68L0gVj8NcAAlYMwsWpQQAEQAAEYo/Arqf3ae+zB3TwxSOrFLMKuqWk79JkoippM1M6J+fYA40rgwAIgAAIgAAIgEAkBA7f8qZDt3zoyG1v8gu0PjErdxoH+ja7M32bw5kyJLPDfRDDBCBgxTBgnB4EQAAEQCB2CQR8CKYzr1/QkVdPaA+LWk94B8P4aEns7KhcqgxUMU0G+iaFOyV3wDbM8XEe0WcQAAEQAAEQSIgEglm7+vexH/1934cO3PCmx57xcydpJ7tE9L/MTlSORasiGZ0oZRLbhDidsTZmCFixhh4XBgEQAAEQiA0CHgH+dI9rZt3x9qR/3rygU6+f0SOf97HRlUiv6WpvT0Xd0lBxFqpyuSSjLEmSUlqOspLwdBgIgAAIgAAIgAAIxHcC7/yCOdUwkO5zuuEFFrbOPvKlh/xzXDJn+0RUIL0TFWKhKicXZM/oZkfuSe3IBg5ZrE0TBKxYQ48LgwAIgAAIxBUC7wMD6JW/H73296VHHKF1xfMN3WOB6+Y7T3ro844LkZo/5N3d0ZmysjCV3cWVsidJRjn4awqOqkph74ToqrhyY6AfIAACIAACIAACFiPgw/Wy3ngH0RufIHr2LohuvPBXAtfd14H08G0gBUkYl5ktpbMtZU5uT1n4lTW5ndo50I3fS57Yhl+IrjIzbpNPBwHLZIQ4AQiAAAiAgDUTEFfJPzhI1dHyk69Bet+rQvGRO1P2NjbkYGPLLxtyVF9t1VdHW1tEU1nzTYOxgQAIgAAIgAAImJ2AP29tqF5cSytA9734aeyLfUbbsrMhcuDUP3vbROSgvfhnR/6e98KBxSMCELDi0WShqyAAAiAAAiAAAiAAAiAAAiAAAiAAAiCQEAlAwEqIs44xgwAIgAAIgAAIgAAIgAAIgAAIgAAIgEA8IgABKx5NFroKAiAAAiAAAiAAAiAAAiAAAiAAAiAAAgmRAASshDjrGDMIgAAIgAAIgAAIgAAIgAAIgAAIgAAIxCMCELDi0WShqyAAAiAAAiAAAiAAAiAAAiAAAiAAAiCQEAlAwEqIs44xgwAIgAAIgAAIgAAIgAAIgAAIgAAIgEA8IgABKx5NFroKAiAAAiAAAiAAAiAAAiAAAiAAAiAAAgmRAASshDjrGDMIgAAIgAAIgAAIgAAIgAAIgAAIgAAIxCMCELDi0WShqyAAAiAAAiAAAiAAAiAAAiAAAiAAAiCQEAlAwEqIs44xgwAIgAAIgAAIgAAIgAAIgAAIgAAIgEA8IgABKx5NFroKAiAAAhqB3gNHUq3qVahi+VLqrXfvvanPoFHUtkUjKvVNsXgH6qeFv5K3jw8N/qF7vOs7OhxCYN4vy+jmrbs0c9IoIAEBEAABEAABEDCQwOSZ8+n2nbu06KepuhYDR06g1ClT0oDeXQw8S9w/zMfHl3oOHEHTx40gNzfXONHhgSMm0Ndf5qQ2zRvFif4MGjWRsmbOSF3bt4oT/YmLnYCAFRdnBX0CARAAgSgIVK7TlFo3bUgtGtdTR3q9e0eN2nSlfj06U6XypQ3i5+/vTw1bd6HxIwZSvq+/NKhNTB30w5DR5OnpRUvmzYipS8TaeXv0H05f5c5B3Tu2ibU+WOLC/YePowsXL9O+raujdbkGLTtR/15d6JtihaPVzlwH127ajlYs+olck7qY65Q4DwiAAAiAAAgYTKBtt7509fpNOrF/m66NvJc2TWqaNHqIwedp3qEHZc+WlcYO629wG0se+O7dexL/dfPKXyht2jSWvDS9ePmKOvQcQEP69gjlb7Tu0ocKF8xHvbu0t2h/IrtYjcatKU/uXDRl7DCD+3P95m0aOGI8rV46nxI7ORnczlwHHvnrJM2Yu4iWzv+RUiR3M9dpIz0PBKwYR4wLgAAIgID5CYQVsIy5gq+fH337fUOaPWUsFS9S0JhTmK2NNQtYTdp2pXx5vqJh/XuZjVdcPJGxAlaZqnXZ2R5A35YpGSvDKlGpFu3csJySu8W80xUrA8RFQQAEQAAE4jSBiAQsYzpcoWYjXjDLSfOmTzCmeYy3iU0B6/HTZ1S/RUeaMHIQVSgbkr0QF80YAevS5WvUsdcA2r9tDSVxdrb4sHbvO0hjpsykrat/pTSpU8X49SFgxThiXAAEQAAEok9Awqz3Hz5GfiwylSv1DaVOlTLUScIKWMHBH+jGrduUNUsmcnRw0B37/MUrOn7qNNnZ2rBIVSjUg+Xif1eoU+9B1LdHJypaqABl47bRsVNnztO1m7foq1w5VHt9e/7iJXn7+lLWTBnp5D9n6OWrN1SjaiXdIZ5e72jvn4fJzs6OqlYqT0NGT4owAuvs+Yt08cpVyvlFNir5v6KhrvH2rSe9euNBX2TNTOcv/kf37j+kapUrkIODvcHDePT4Kf118hQ58YqV9M/Gxka1DQ4OZp53wvG8e+8BpUyRnJKGidb5k+fqydMXVLRwfsqdM7vu+g/5/D36D6McX2Sljq2b8cpoFjVmzY7/fZqu83XyfJmLihUOzVBWC/38AyhDOnc6fe4CM3xNFcuV0Y1PHJaL/12lkt8UoSzMOazJvbP/0FESobJiubLkliyp7pAP/N31G7cpHa+A2iRKxPfaUZ7/zFQg79cGs3v3/j3t+/MoswqiKpW+pdGTZkQYgSVRWf9dvUaurknpf0ULc0pECt01bnHKhKx+dmrTgj8rRLlyfEGJuD9ibzze0qmz59Wqae4c2cPxkWPec9rpkWMnVfpp0QL5KEsE9/D9h494jk/z71AKKl+6JPO31V3/2o1b1KbrD/TjxFHqd0zmCQYCIAACIAAC5iZw9sIlunL1BuXMkS3comFEApb4J+KTyHNa38RvuHP3PuXNk5vy5/la98y8//AxtezUUz3LJcoorL/xufF8+PBB+UKPn73g5+Q3lNTFhe4/eBTqmSztvb29ac+Bw2Rra0vfVSjHvpNjuNO+fPmaDnNEjvhilb4tEyoi6HMClkQR/cO+Tro0aagc90GuEdbEBzvBPqU8ryuUK638F81kDML4Evsb7vI5i1QOH/1h8en+OvkPSVqmpOaVKfk/nc97l31Ht2TJQvlIck7py9VrN5VPF3aR9+WrV6p0R9bMmejsv5fUfEj2QzLX6KdFvn7zhvYeOKJ8pGqVv6WaTdqEi8ASf/rM2Qt0h8efKUN6Kl+mhG7eAwIDeU4O0YRpPynhMh37jOncP90z93gez1+8RP7sT37N4maer3KH4yp+0snT5yiFWzLla0U0jjPn/mW219kfy8YRbEV05/Dx9aNV6zbRL8tX04wJI5UfFdMiFgQsc//vhPOBAAiAgIkE9rJzMG7abArkh5KYODCN6tag3l076M4cVsASQahK3WY0Zmh/dirKquN+W7mOHyirKIgf3JrJQ38Th27LH/ESeaJZKhZltq9bZlDPAwICSVaIJOVP/7wrF83hB3BIGpZEVP3D4kOK5MmVACH2Za7sHF48k46yYzNk7BQKCgpS7ydO7ESpuM5D0iTOoVII63Bq1zMWwjSTsOS1vy0glyRJ1FsLf11BK9ZsVA9LcXzE0qV1p40rFuke7J8b0MgJ05XAI06PmL29Pa1eMo8ypE9LHiyOVavfgsYPH8h1xj6lZFat15ya1K/FtRIaqzZP2dlr0q4rC43+uktJ/xbPmaocm+YdetLtu/d0n0mqmvRXGNZiJ0Wuo5k7pwqs4/FpDtfICdPo/L//8fx9IHFwxORe+GXONFVD4j07T2Ii+NSoVomG9u2pO9f23ftp2qz5JI6Ndkyt6pW5xlgP9bMIpLJSK4LVxctXlWAnZmg03ml2ZGSOtXtURFMR9uQ+1E8hrFirMTu8Prp+Sf+7tGtJLZvUV++VqVpPdw75+c/t69T9MGTMZDp87IRubuQzccg28NxqIuPu/eywTf8pVPvk7Hzt3LBCnVvGFHIfXtCdR5ztBT9O4nsxhzqmZOXaus9cXJLQvi3RS3/UDQzfgAAIgAAIgEAEBES0adquG718HfIcF3NL5kqr2N+QZ5ZYRAKWlHhI556afpo6Th0j/kLjNl3Uc1YzeabJczs/R3lXqNmYn+2fnrdST8uQ8hABAQFUn1P5NV9NfAoRbSSlcdPvv+jEkDk/L6U1G7fq/AURmLq0a8GlLEKe52JzuJ7pmk3bdMeIryliWvXvKqrPIxKw5Fndpc9gusSLlR/dMSV6rVw8h9KzGCMmx7Tt3o8X3m7priUim6Ssic/28NETatm5F/mymKKZ+AozJo6kb3jhTBYAazZuo/vMhf3NfVvXqJ/rNe+gFkillIGY+ITi/73V83HFv5H+yLyJDRUfhX3ZVLwgJwu2YsJt9NB+9N23IT64IbZwyXJavnoDhXihpPwo8Q8L5vtal0K4decemv7Tz6F8HUdHB462WsuL07Z078FDatK2m+5yshg4a/IY9bNw/ZcXqzU/V94TAWzdsoW644ePn0p/Hv5Ld4xwK5Q/L82dPl53TI1GremV3v0r/VzL6YpJ2N8VX20wL0JrVpwFsNkf71lDGBhzDAQsY6ihDQiAAAjEEAGJaqlcuymnnH1Jc6dNUA/ERUtX0Mp1m2nJ3OlcaDKXunJUAlZQUDCVq16PV5paU7OGddSDyZdXcJ6zmCTCiphErVRkh2fm5NFUvHBBnTAQ1dC69xtC/166SttY8HLlP/ofP3nG9be6KKFHBB8xEQ5O/nNWOV6FC+SlQBar7DnySESr8py2KNEwa5cuVCtsIiKNmfyjWhnSamCJuLTv4BH684915OToqFa6RKATZ+zn2VPUNUTAWrZqvar7VbdmVXVuOV9Eq3ZhxyQrcZLyJtFndWtUVXy6DxhOQ/v14qixDDoBaxyPR7+mmAhYjVnAavtRwBKn9PWbt0o0sbFJxI5HAJ258C+VKBYSLSZOV9N23dV8Du3XU8dYon4k+kfG58DCmUTK1WsR4kTJCpbYiPHTFJspY4ZxYf6iany1WNSTyLPvq1RiMaqbcnrGTPqR/jzyFx3asUGtePrwPFep25z7XYav2UPdQ+s2bycplH9g+1pyTpxYJ2CJM7Zx5WIVtSercyIeRWXCqgpzkJVPcW4d7B1UhJjMuYh3+gLWhf8uq5VEmRNhMYr7eo2d4vXLf9bxKVe9Po0e0k+lEGrilAhj0h9xzqX/t+7c45XlXqquR+WPzmGz9t3V74NwZddRsT915pxaWRWTyMN+Q8dydNVoju4qqPh17DWQJI1g18aVZMtOmvSp1Hd1WLz9jVce3Qz+HYiKET4HARAAARAAASEwfuos2sULLmuWLlBikCxI1W/ZkUoUL0JTxw5XkAwRsGYv+IW27dxHOzeuUH5DYGCQikYq+/GZJ8+zSrWaqJqbc6aNN/h5Jn6G+BsjBvZRC6CywFWnWXvlI2oCltRZrVqvBUeSN+cFqHrKZ5q9YAlt2bGH9nPdS0f2065cu0HtWGRq3qgudW7bMsSv6j+UJFr84I71Ib5cBDWw1m3aTjPnL2YWw5hJUfYXA5WoJP04wIta4luJwDJs3BSaMGoQlS3xP+VT9h40koYP6K0EGbEHjx4xX3flb8jCbc1GbdQzfs/m39XnDx8/oYatOtO44QNUdJbmb4QVsHqyLyiRXH+Ij8vR9s+ev1ACn/gW0kcxEbAOHj2ufha/TbGv3URF2B9gYclQK1OlLjmzmLZ9zVLVn+279tHU2QvUnGo1sOTcLzjiK1WKFOoYEbgq1W5MVSqW49IUvdWlRKTqzBkVe7as4sXgJLpFXIniS5HCjX08iZQLiVCT8Wm11p7y2OryXE8ZM1SNT64lGRNyrCyqikmGxCEWqWQOxVcUAVUEPvHt53LEl4iOu/b9SeP4Ppf7Req2aZH0hnKI7nEQsKJLDMeDAAiAQAwSkGiYzr0H0qGdG5WDIiZOQPnqDahV0wbUvlVT9V5UApYUaC/Hbdo0a0Sd2jZXbcI+UIytgSWRWxXKlaIJIwbpSCzgHejWsBNyiB9wch1NwDqyaxNHNn1KmXvNKX/fN2xFIwf/QNU47UyzFh17qgejJmDJMSJWTeaHqmbyYBeHSXL8xTQBaz+voiVhByA6Np5DreWBe3T3pgidPC0CKyoBS5zQ1689lDAk447ooR1RDSyJTKrzfRXq2bmdrtuz5i2ifYeO0Y71y9V74lBKCt2eTSHOl/6Y9Qu9SoSXRHot5sisvBwaLk6VOFfrl/1MGTOk07UVoah+7e+pF19Ti8CSlMuRg/pEB51ahZPVOAnDl3tSMymOKmmcnyvivu/gUZr04xwVaaWZITWwxFkVR68zHHuDqgAAFs1JREFUR2+1adZQNRVHNGPG9DRj/IgI2fcZPIr/UPCg5T/P1l3rxKkz1HfoGLX6qDm9qIEVrenHwSAAAiAAAgYSkCjoshxprL/AJ02nzp5Pm7fvVotYEm1kiIA1jYWNPzi6WhbMnJ0TR+hvGFMDqzNH6Tx7/py2rPpVN6rfedF07qKlOgFryYrV9Muy1XR4pyyUhZSp0CL/B/Hu0eLP/LpyDS3hNDLx+7SFRPFfS/Oze840WczMF6GA1ZF9Bzv2EyU6WrN9XGJi5MQZukW3us3bUzAvzG5locdQm8WC33YW/MQ/E4usBlZYAUt8AtnNezr7FpotXbmWflu1Ti0Uip+nCVj6Pq6kVo7n7AnxKw0xSfmUiLojuzaqDAAx7X7RF7AiOpdE24kwtYH9PLHo1MCS8W3hWlXuXKtKBK4GrTrRUK7RWqMKR8mJHxvmgrJgWYTnbuKowbpPNm3bRQs4ekzz91ADy5AZxzEgAAIgYKUE/ti9T+3kcfCP9aFGWI8LTxYtlP9jtEnUApY0njX/FxV5o4UOZ+daUZN5tShj+hBRwxQBq2sHFi+afBIvNv+xm6ZyyppWQFKlbnGNrGN7t4Qah4So12rSVglVEnGlWa+PKXGagPUdR1t56YXJ659EE2+0FMK/wlzDkFtjAO/WIsLPxhWLIzzcUAFLwtnbs/OlpdJJWHrvbh3YEfhU7ysiAatstfo0ikW8ilzDQbNtu/bSj3MXKxFQTASsG7fv0Jpf5+uOkdXOKTPnhdqpSELnG7burGofyE46m7bvInF0I7IiBfOrsHBNwGrbojHXnwoROA01zQkMm14pwpDU5NIXsGRFdhiniz559lx3eonyikrAkvpdU2ctYEHvqIqs0kzSFVqzKCu2av1mmrd4mS5VIXXqlDRl9FBVwFasMe/KKXUdIrLfFs7iOg5fqI8gYBk68zgOBEAABEAgOgS0qPrWvPAi6fOarVq/heb8/KsSoySN0BAB6wlHDzflyGOtZIGIHm2aN1QR4drimTEClkR/S4TO6l/n6fq3988jNGridJ2ANW7qbNq590CEQ5cUwu4dWyvf5C+uz7UtjMj0bY2G1KNjW15Aqx6hgCXlIgrmz6MisTW7zTWlZEdFSeuX9H55TsuCnCzMRWTi5x7lyPoZsxdypsGn0hMScW6MgNWhdVNq3zJkwVhMxCmp87mX+5OU+yMC1tHjf9PRPZt1x1y8fIW6/jCUjum997l7RRYoew8cGcqfk+Mlgl4/hVAi7Vbz/bJ8zXqVjaBZRk6dXL98kfoxMgHrFUf7jRo/g85xDSytVIQcv2XVEl2EVZcfBqv6pZoV4rkYzwvU2m6CYUtB6I9J88chYEXnfwUcCwIgAAJWRkDq+kyeOVet8uibhHOX5HDzgX1C8tyjisDS2soKmRQYl8iuE5zS94YjUiS8WVbvTBGwOnBB8vYtm+i6uHHbTs7RX6hbTRQB6zTXHtJ/uMvBL7i4p9R+kjRAqdmgWfd+w1SKoyZgyYqP1GeSelP6Jqt6WqFxEbBWcg2ssCKZIbfE4FET6eqNm6FWHPXb6QQs3h1PipBqJv2SPmkphNr7h46eYAfiinLepCBo/56dVbSTWEQClkRDDeGaVVLAXjNZ0ZIVT1mRFTNWwBIhbNKMuTRx5GBKple4Xc7pnjq1qhehCVjtWjShjm2aGYJMd8xTFqPqcni/1HqowkVcNeszeDT9d+WaTsCSUPXu/YZymHt5xdCZhavTZ//lSL2tUQpYUhsrGRc0lSgvSbmQdAAROfUFLLmuRBoe4NQCua6kDD55+pxrvC3iWmhpVcqhRG4N+FjXQn+Qeb7MzSkPIavIELCiNf04GARAAARAwEAC77nouaT1NW9cj0WcNrpWUr9zPkeuSzq7pPIbImBpjcW3OnvhIh3n9EHZjKVOjSo0sHeIb2iMgNWcI+BloWjdb5/qIkmkl9SY1FIIp/AC5RZeqPxp6thwZRoyZ8zItaCS0/Q5C+ngkeO6KHKtv1I2om/3jlSr+ncRCliyM6CUA5DUPs2krqls8CILYlKaQOpVpk+XljZ8LD8QFv8yriMl5Tbq1/pepfRJOYX1m//gsgLnjRKwwgqOu3iXvbG8y55Wp9McAtY5Lv7ere/QcAKW3C9FeDFSSyEUf1XG0bZlY/oyZw7mb6MiyWVDnM8JWF6crlmL635lzZyRS4nUpZQ8R2Lib+sLWPKe1PGSubtw6bK6lqRxSvS/pIZKaqRs1CS1ePXNztaO8ucN8eMhYBn4HwIOAwEQAAFrJCA7rMgKmzgSmTg9SkyrPdC7a3t+gNRU74mAJRFQWjHsiIq4Sw0h/R355I95CWXfzDnqktsuUS7iWMzkYo/fcNFHQ03+4BcRaeGsybomY6fMUrsNagW0IxOw3np6qjoKXViYaP0x/UyilxpwOlhKLtKuCViyImfHq4v6zoqsHslL28XPFAHrR45yW7/lD67d8Cn90J8dOC1tU1s1FZFOxDoxqQchjoUIPpqAJQzlAa+ZrAIK42JFCqqd7cSkuGber3OrWg2aSYRZYS6SqaVISjspgnmDnTZxGMWMFbDEsRUHRWpgSNSeZnIfSdFTMVMELClsGlILrDb14XtSTPrfjFdLZfchLQKr28daafqrkdt27iUJ6w8dgVWPxbC+VLHsp2g0uce2rV3KDlrI7pvavaovYMkqtCZCaWOUdt06tFa/F+J8/8276sg9pKU8yHH68yw/l6xcS21gkJI3HICBAAiAAAiAgLkIiM8iEUgF8+XlYushhbXFJDJZioBLXSGpDyoFyq9yxLJ+eYCwRdwlvUyKduuXKpDC5G88PDjqJyTavRKXJ5AC7PNmTDR4CDM5Wn87L3xJ5JSIRfI8H8GbyBzgkgaagLWdswMmTp+j6kJJAW/NJCJIIs/F1m7cpp7vWlSZvCfCiCzArvplrtrVWauBJdHvWoF28RflOEn311IPpb6p+HiSjSC1MDv0GECPnjzlcy/XjV//Wd6NF8vEf9OKl8u1pSaTLC5qEVgSwSbZDONH8OY8etHvEaUQfskMly6YqRvnlJnzuTzDX7T7Y0kHcwhYb96+per1W9LvXBz+C96hWkxEp+/Yv9dPIazeoKXyQ+vVrKbrT4UajXge3D4JWLyIJ6mYmuAnB8rYh4yZFGrOtLqfmoAldVRlIVB/93KtRqxsmpOBRUMp6eHs7MzRb58EzrD+uCy+Sy1bLTXR4JvPyANRA8tIcGgGAiAAAjFBwI8fJFU5fNiNQ8rHcDi1CFDzf1lO51iUWMeh09p2yvJAkx0Fh3Heei5OhQorYMnqVScuWC07F0pothNHm2z+Yw/v2rdBF4ElK26SyiZFsVs3a8BbLmc1aEg/S/F0Xu0SQUbStc7zKpIUnWzBK4zdP64wRiZgyUOvdtO2vDOdL00aPUQ5Qhu27OBCoLtDFXHfxBFd0ziiqwsXAi1VopiKzlrM9RdE7Jo3Y4LqpykClhQFb92lN29FXFIJaSL29ee0wg4cMi5h7hLxU5tTHYOCg1QRdQkZX7xslVqhkppimoAlD/YyJYrzCmhVNZZbd+5y/a8x1IfTCBvXC4keE8dKdsARXrJ6JnMqNbh27Nmvagp8kTULp95dUYJLExaFRKgUM1bAEudTnDQRrCTNT8RKqU0lBVA3ccF2+dkUAUv6JqvFN2/f5SivQWpVdOfeP1VKn34R958WLuEdi7bRMk7Xky2VpRBq70GjyM/fL5SAJfeyROPJiqfsDijOuQhRDTiCrU3zRlx8PZj+YFaLf/tdF4H1xuOtqh3RtEEdVXhU5kdC6GU3HdlJUhxl6Z9EYclqbAeuHZeIi59u4fRKKXq7ftkinbgrRdwb8sqipH3KDpEwEAABEAABEDAXgd/XbeLo6t/UhjOS5i8RwxNnzOEakg05yjgkrVCez1KoXH/nwLAClkTrJGYxpy1HTqfhlHnxK7rye1J4XXxBsTb8bPbg5+MYjpCW56m+MBHZeLTI+PS8i7NE6khB8EPHjiu/SBOwtALxDuxLTho1hNw4QlqOk+Lrm39fotIg5Rkv5QwK5s1DXXkhKSAwQPkx8ryWyH+phyq7EktKmiwyyTNefAMR8iTKqGmD2uo5LJsNSeHwLBw5JDtXs0uge57X5lpbDep8r8Y4bOxUrt3Uk8qV+kYJgrJgJfxE2HnEmwu1Z1FQP4VQW3yTqHApNJ8zezaFJKyA9evyNfQL1/ySc0u0tqQGSlR7wzo11MY/YuYQsOQ8UqtW+bVcAkJquYpwd4CzJvQFLEmldEuWjIYP7K3m88r1GzRg+HgWl9x1Apb4tFJLVuqqliv9jRKeZBdJ8dWGDehFpb8prjb4kdprJ0+d1UVgHeO0S4ksk50iNf9n3uLf6NTp8yqSTko+SCTbj1yjVSLiZUMh8R9/Xvq7Kq4vO2CKyUY+PQeM4Ei7Tspnl3spJg0CVkzSxblBAARAwAgCd+7dJ6nRJMUVxZLz7miD+nTlh1IJ3dmk9s8qdoqCWayQFTsRK76r00wVVpcC6xKxMosLnu/ef1C3rbDUEZA6BXW+r6o7j9Q1kGLmkusuK2uGmDgyQz7m/4tYIuHMsoOc1C/QVs9kh7/T5/7V1XPSP6+IKT05HUzbsjnvV1+yY2OrdtQR50MzKYYpwohWwysbixKy40vGjzvOiKCxYu0mVQDTGJN6UvKglhVBMTm/1EbSorCkBkOvgcO5aLmHKvRes1plOnLsJDVhJ0srXr6FRUEpbiqOpJgcV5mdydGD++q6dPTEKbVToKQSrFj0k85JEEay0qW1q8jzNpZTFjWTegs3bt2l33+Zo3tPC+vXX6XVinAunDmZCvDWy2LSd1l5u/8gpAaUOI51a1SjHziMX0wcGVnB68ireu30UkEN5SjOoaT0PeYVUTFZPZQdKe/w3O7mlAgxmbdWLBLe5DGIJU+eTDmnkiqpFeKX96Uw7LLV65UTp4XnS3rFz0tXqp0DhansBHmI2YsQJY6vnFuKxa5jx0rufTHZVVCc2wG9u+qGITXgFvF98v5j3QgRfUfx3Eh4vmYS+SbbQMvvh9TbgIEACIAACICAuQjIs20sRwNJOQdZkJFnmix8ScqcVrxbxB/ZWdfH14+O79uqLi07GEuh7VkfI7eOc4kCiXB6wMW/NSvCUdZzOdpaMykXIen83uxvLJo9Ve2AbIiJiLT4t1X8rHyvnuey8CNlITZzrSTZVU7sHJcFGDVpuioFISbihmws1JxFL80O/3VC1a+UDVTEJMpq+viRyr8SE/+xc59BasGpMpcW0Hwe8eekLpiUthDLwxvSSLqiCFCaLV72O0lxeYm+lkLjMvap44arIviymU6XvoN1bGRBUc4vuzZqEVhynpnzFtOGrTtUG80Pkc14SvN8/NAtxD8SEwFNmIivIfNVttT/1IKg5uOO4MWyo8dP8YZLn8p9iLDUqefAcKUzPsdfmA4cOYFrW4X4ocJdFt+kRqws8opJSt9IjogTAU5MIuyePX/Jfxu40ipesBOTe0wETpn/4kUK6aL9Jv84l7ZzOqhwFz9QFgrF59rOEe6pOMJdas2OmzaLTrCopdVyFVFRarRK0X3NJLpK6oB9qqmbRaU4SkkKMflbpOsPQ+gipyAWLVxA7UAekwYBKybp4twgAAIgYCQBeUhIPR+JkpLCldpDU/90Ivh4ennpCi1GdCnZble2DhaBKD3XBdK2DQ51HhYJ5CEmK2jRMREFpKB3Wq5RJBEw0TF5mMoOLBIOr79TXthz+LIzJ4W4k7m6cuRQquhcwqBjheEDPr+kmGkPYv2GwcEfFL9U7AxJ3bDITDgIj8yc9qmfUqgdL/Mpq5BS60J/DiRcXMLiM/JqmQgo5jbZIlkEOlnJlDQFc5qM6cGjx8qhkRoYskoakUkfgvkek0ityEzuh9ecBiHbRGsmTqpsi505Y4ZQKYBhzyHOvETKya6CEf2eSNqF9NPBzl7NcUQ7RYpQ5sHprUgjNOcdgnOBAAiAAAhoBMRHkDQ2d/fUunT+sHRkl1/9FL2I6ImAJGmD8jxLwqldYU3nb7BPZxPZgzmKaRGhaN7ipZziuCFcFNdDXlyVtDOJdI7o/BLB/og3l7Gzs+WsAfcIn7lSkoG3vFO1MTXz5Wf+Q35Wiy8aGQNJGxSfzTVpUpWFENbEnxJfR0SYyEyEGhGMJKrpcyYi4MPH4uOm5uuFlF+ICZP5kkVHEeu0LIuw1xFfVXzh1KlSRHrvSBvxmQO4flVSTgXVTIQvKe+QjTdykqipiEyEQ9kQSHx5YReRnySZEOK3J2M/VoTViMybo7M+8PxHd2fw6HKFgBVdYjgeBEAABKyUwB2uv/Xb7yEFxCOz0UP6Rvhgi0tIJDRf26Unon5J4fQSXBAfFp6ApJ6K4xqZSSrqkH49gQ4EQAAEQAAEQCCOE5AUPw8Pz0h7Wa9WNcqWOZMqodClbQtVlPs2+4IDho1Vgod+Tak4PtQ41b2tHOEvG9lEZrlyZOM0xnpxqs/xqTMQsOLTbKGvIAACIBCDBGTnPalp8DmTvPy4bhJmLwXrI7Mv2CnLmD5dXB9GrPRPwv4vcX2OyEwi5iTEHQYCIAACIAACIBC3CUj6mZaWF1FPpVi5RKB36j1IRTZJ5I1EBImfNGPCKBV9BIs+AVkMlOjzyEzKduTlNEmYcQQgYBnHDa1AAARAAARAAARAAARAAARAAARAIF4TkDR+SbV//uKVKnUgNau0HZ/j9cDQeaskAAHLKqcVgwIBEAABEAABEAABEAABEAABEAABEAAB6yEAAct65hIjAQEQAAEQAAEQAAEQAAEQAAEQAAEQAAGrJAAByyqnFYMCARAAARAAARAAARAAARAAARAAARAAAeshAAHLeuYSIwEBEAABEAABEAABEAABEAABEAABEAABqyQAAcsqpxWDAgEQAAEQAAEQAAEQAAEQAAEQAAEQAAHrIQABy3rmEiMBARAAARAAARAAARAAARAAARAAARAAAaskAAHLKqcVgwIBEAABEAABEAABEAABEAABEAABEAAB6yEAAct65hIjAQEQAAEQAAEQAAEQAAEQAAEQAAEQAAGrJAAByyqnFYMCARAAARAAARAAARAAARAAARAAARAAAeshAAHLeuYSIwEBEAABEAABEAABEAABEAABEAABEAABqyQAAcsqpxWDAgEQAAEQAAEQAAEQAAEQAAEQAAEQAAHrIQABy3rmEiMBARAAARAAARAAARAAARAAARAAARAAAaskAAHLKqcVgwIBEAABEAABEAABEAABEAABEAABEAAB6yEAAct65hIjAQEQAAEQAAEQAAEQAAEQAAEQAAEQAAGrJAAByyqnFYMCARAAARAAARAAARAAARAAARAAARAAAeshAAHLeuYSIwEBEAABEAABEAABEAABEAABEAABEAABqyQAAcsqpxWDAgEQAAEQAAEQAAEQAAEQAAEQAAEQAAHrIQABy3rmEiMBARAAARAAARAAARAAARAAARAAARAAAaskAAHLKqcVgwIBEAABEAABEAABEAABEAABEAABEAAB6yEAAct65hIjAQEQAAEQAAEQAAEQAAEQAAEQAAEQAAGrJAAByyqnFYMCARAAARAAARAAARAAARAAARAAARAAAeshAAHLeuYSIwEBEAABEAABEAABEAABEAABEAABEAABqyQAAcsqpxWDAgEQAAEQAAEQAAEQAAEQAAEQAAEQAAHrIQABy3rmEiMBARAAARAAARAAARAAARAAARAAARAAAaskAAHLKqcVgwIBEAABEAABEAABEAABEAABEAABEAAB6yHwf5WArESEpFtYAAAAAElFTkSuQmCC;" vertex="1" parent="1">
          <mxGeometry x="300" y="810" width="448.75" height="270" as="geometry" />
        </mxCell>
      </root>
    </mxGraphModel>
  </diagram>
</mxfile>
